{
.formatVersion = 3;
axes = (
{
name = Weight;
tag = wght;
}
);
classes = (
{

glyphs = (
{
glyphname = .notdef;
layers = (
{
layerId = "78C5E225-AB5C-450D-A6D0-D457B4E69ACE";
shapes = (
{
closed = 1;
nodes = (
(90,650,ls),
(90,704,o),
(126,730,o),
(180,730,cs),
(420,730,ls),
(474,730,o),
(510,704,o),
(510,650,cs),
(510,80,ls),
(510,26,o),
(474,0,o),
(420,0,cs),
(180,0,ls),
(126,0,o),
(90,26,o),
(90,80,cs)
);
},
{
closed = 1;
nodes = (
(370,120,ls),
(397,120,o),
(400,123,o),
(400,150,cs),
(400,580,ls),
(400,607,o),
(397,610,o),
(370,610,cs),
(230,610,ls),
(203,610,o),
(200,607,o),
(200,580,cs),
(200,150,ls),
(200,123,o),
(203,120,o),
(230,120,cs)
);
},
{
closed = 1;
nodes = (
(135,52,l),
(365,680,l),
(465,680,l),
(235,52,l)
);
},
{
closed = 1;
nodes = (
(365,52,l),
(135,680,l),
(235,680,l),
(465,52,l)
);
}
);
width = 600;
},
{
layerId = "A3C04AAB-708A-4E7C-A386-00C8304CC3CD";
shapes = (
{
closed = 1;
nodes = (
(100,650,ls),
(100,704,o),
(126,730,o),
(180,730,cs),
(420,730,ls),
(474,730,o),
(500,704,o),
(500,650,cs),
(500,80,ls),
(500,26,o),
(474,0,o),
(420,0,cs),
(180,0,ls),
(126,0,o),
(100,26,o),
(100,80,cs)
);
},
{
closed = 1;
nodes = (
(370,90,ls),
(397,90,o),
(410,103,o),
(410,130,cs),
(410,600,ls),
(410,627,o),
(397,640,o),
(370,640,cs),
(230,640,ls),
(203,640,o),
(190,627,o),
(190,600,cs),
(190,130,ls),
(190,103,o),
(203,90,o),
(230,90,cs)
);
},
{
closed = 1;
nodes = (
(145,52,l),
(375,680,l),
(455,680,l),
(225,52,l)
);
},
{
closed = 1;
nodes = (
(375,52,l),
(145,680,l),
(225,680,l),
(455,52,l)
);
}
);
width = 600;
},
{
layerId = "D6017CDA-DCCB-46D4-A8A1-3FBBF500E309";
shapes = (
{
closed = 1;
nodes = (
(110,660,ls),
(110,704,o),
(136,730,o),
(180,730,cs),
(420,730,ls),
(464,730,o),
(490,704,o),
(490,660,cs),
(490,70,ls),
(490,26,o),
(464,0,o),
(420,0,cs),
(180,0,ls),
(136,0,o),
(110,26,o),
(110,70,cs)
);
},
{
closed = 1;
nodes = (
(370,60,ls),
(407,60,o),
(430,83,o),
(430,120,cs),
(430,610,ls),
(430,647,o),
(407,670,o),
(370,670,cs),
(230,670,ls),
(193,670,o),
(170,647,o),
(170,610,cs),
(170,120,ls),
(170,83,o),
(193,60,o),
(230,60,cs)
);
},
{
closed = 1;
nodes = (
(145,42,l),
(395,690,l),
(455,690,l),
(205,42,l)
);
},
{
closed = 1;
nodes = (
(395,42,l),
(145,690,l),
(205,690,l),
(455,42,l)
);
}
);
width = 600;
}
);
},
{
color = (153, 254, 255, 255);
glyphname = A;
layers = (
{
layerId = "78C5E225-AB5C-450D-A6D0-D457B4E69ACE";
shapes = (
{
closed = 1;
nodes = (
(444.465,148,ls),
(444.717,168,o),
(434.63,177,o),
(414.63,177,cs),
(260.63,177,ls),
(240.63,177,o),
(226.717,168,o),
(216.465,148,cs),
(163.504,40,ls),
(147.276,6,o),
(112.874,-10,o),
(73.874,-10,cs),
(33.874,-10,o),
(17.488,7,o),
(25.142,43,cs),
(27.906,56,o),
(34.307,72,o),
(43.134,90,cs),
(339.166,664,ls),
(366.009,715,o),
(404.324,740,o),
(457.324,740,cs),
(510.324,740,o),
(538.009,715,o),
(543.166,664,cs),
(596.41,96,ls),
(597.795,79,o),
(597.394,63,o),
(594.63,50,cs),
(586.126,10,o),
(556.874,-10,o),
(512.874,-10,cs),
(471.874,-10,o),
(444.701,8,o),
(444.354,44,cs)
);
},
{
closed = 1;
nodes = (
(411.717,295,ls),
(427.717,295,o),
(436.993,301,o),
(439.544,313,cs),
(440.182,316,o),
(440.032,320,o),
(439.882,324,cs),
(425.127,518,ls),
(424.253,528,o),
(419.103,532,o),
(413.103,532,cs),
(407.103,532,o),
(400.253,528,o),
(395.127,518,cs),
(298.882,324,ls),
(297.032,320,o),
(295.182,316,o),
(294.544,313,cs),
(291.993,301,o),
(298.717,295,o),
(314.717,295,cs)
);
}
);
width = 600;
},
{
layerId = "A3C04AAB-708A-4E7C-A386-00C8304CC3CD";
shapes = (
{
closed = 1;
nodes = (
(471.567,172,ls),
(470.331,185,o),
(463.607,191,o),
(450.607,191,cs),
(230.607,191,ls),
(217.607,191,o),
(208.331,185,o),
(201.567,172,cs),
(127.74,27,ls),
(115.425,2,o),
(96.874,-10,o),
(67.874,-10,cs),
(40.874,-10,o),
(24.85,4,o),
(31.016,33,cs),
(32.929,42,o),
(37.055,52,o),
(42.394,63,c),
(366.418,684,ls),
(386.497,722,o),
(416.537,741,o),
(456.537,741,cs),
(496.537,741,o),
(518.497,722,o),
(522.418,684,cs),
(584.394,63,l),
(585.055,52,o),
(584.929,42,o),
(583.016,33,cs),
(576.85,4,o),
(554.874,-10,o),
(527.874,-10,cs),
(498.874,-10,o),
(485.425,2,o),
(483.74,27,cs)
);
},
{
closed = 1;
nodes = (
(442.615,271,ls),
(452.615,271,o),
(459.465,275,o),
(461.166,283,cs),
(461.591,285,o),
(462.016,287,o),
(461.654,290,cs),
(441.135,598,ls),
(440.261,608,o),
(436.111,612,o),
(431.111,612,cs),
(425.111,612,o),
(419.261,608,o),
(414.135,598,cs),
(261.654,290,ls),
(260.016,287,o),
(259.378,284,o),
(258.953,282,cs),
(257.252,274,o),
(263.615,271,o),
(271.615,271,cs)
);
}
);
width = 600;
},
{
layerId = "D6017CDA-DCCB-46D4-A8A1-3FBBF500E309";
shapes = (
{
closed = 1;
nodes = (
(486.67,196,ls),
(485.945,202,o),
(480.796,206,o),
(473.796,206,cs),
(213.796,206,ls),
(206.796,206,o),
(198.945,202,o),
(195.67,196,cs),
(101.913,9,ls),
(95.15,-4,o),
(85.874,-10,o),
(72.874,-10,cs),
(55.874,-10,o),
(47.575,-2,o),
(50.764,13,cs),
(51.614,17,o),
(53.677,22,o),
(55.74,27,c),
(398.033,701,ls),
(411.56,727,o),
(430.324,740,o),
(457.324,740,cs),
(484.324,740,o),
(497.773,728,o),
(500.245,702,cs),
(556.953,28,l),
(557.677,22,o),
(557.614,17,o),
(556.551,12,cs),
(553.362,-3,o),
(541.874,-10,o),
(525.874,-10,cs),
(510.874,-10,o),
(502.15,-4,o),
(500.913,9,cs)
);
},
{
closed = 1;
nodes = (
(471.426,256,ls),
(477.426,256,o),
(479.851,258,o),
(480.701,262,cs),
(480.914,263,o),
(483.339,265,o),
(483.552,266,cs),
(452.828,653,ls),
(451.954,663,o),
(446.017,668,o),
(442.017,668,cs),
(438.017,668,o),
(429.954,663,o),
(424.828,653,cs),
(229.552,266,ls),
(229.339,265,o),
(230.914,263,o),
(230.701,262,cs),
(229.851,258,o),
(231.426,256,o),
(237.426,256,cs)
);
}
);
width = 600;
}
);
unicode = 65;
},
{
color = (153, 254, 255, 255);
glyphname = AE;
layers = (
{
layerId = "78C5E225-AB5C-450D-A6D0-D457B4E69ACE";
shapes = (
{
closed = 1;
nodes = (
(24,0,o),
(8.89,23,o),
(27.882,70,cs),
(253.363,632,ls),
(279.395,698,o),
(325.198,730,o),
(392.198,730,cs),
(673.198,730,ls),
(715.198,730,o),
(730.946,710,o),
(722.017,668,cs),
(713.088,626,o),
(688.623,605,o),
(646.623,605,cs),
(569.623,605,ls),
(552.623,605,o),
(542.922,597,o),
(539.308,580,cs),
(514.009,461,ls),
(510.394,444,o),
(516.694,436,o),
(533.694,436,cs),
(581.694,436,ls),
(625.694,436,o),
(643.229,415,o),
(633.875,371,cs),
(624.52,327,o),
(597.843,305,o),
(553.843,305,cs),
(505.843,305,ls),
(488.843,305,o),
(479.142,297,o),
(475.528,280,cs),
(453.418,176,ls),
(446.189,142,o),
(459.788,126,o),
(492.788,126,cs),
(543.788,126,ls),
(585.788,126,o),
(602.323,105,o),
(593.394,63,cs),
(584.465,21,o),
(559,0,o),
(517,0,cs),
(391,0,ls),
(324,0,o),
(298.016,33,o),
(312.26,100,cs),
(320.764,140,ls),
(324.378,157,o),
(318.079,165,o),
(301.079,165,cs),
(229.079,165,ls),
(212.079,165,o),
(201.378,157,o),
(194.764,140,cs),
(169.095,71,ls),
(152.102,24,o),
(120,0,o),
(72,0,cs)
);
},
{
closed = 1;
nodes = (
(252.717,295,ls),
(246.103,278,o),
(251.402,270,o),
(268.402,270,cs),
(323.402,270,ls),
(340.402,270,o),
(350.103,278,o),
(353.717,295,cs),
(414.521,581,ls),
(417.922,597,o),
(411.623,605,o),
(395.623,605,cs),
(379.623,605,o),
(367.922,597,o),
(361.521,581,cs)
);
}
);
width = 600;
},
{
anchors = (
{
name = m.uni0308;
position = "{455, 730}";
},
{
name = m.uni0325_2;
position = "{300, 0}";
}
);
layerId = "A3C04AAB-708A-4E7C-A386-00C8304CC3CD";
shapes = (
{
closed = 1;
nodes = (
(46,0,o),
(36.189,15,o),
(48.567,45,cs),
(297.615,652,ls),
(318.883,705,o),
(356.198,730,o),
(410.198,730,cs),
(685.198,730,ls),
(712.198,730,o),
(722.434,717,o),
(716.694,690,cs),
(710.954,663,o),
(694.765,648,o),
(667.765,648,cs),
(545.765,648,ls),
(532.765,648,o),
(524.277,641,o),
(521.513,628,cs),
(481.544,440,ls),
(478.78,427,o),
(484.292,420,o),
(497.292,420,cs),
(594.292,420,ls),
(621.292,420,o),
(631.528,407,o),
(625.788,380,cs),
(620.048,353,o),
(603.859,338,o),
(576.859,338,cs),
(479.859,338,ls),
(466.859,338,o),
(458.371,331,o),
(455.607,318,cs),
(413.937,122,ls),
(408.197,95,o),
(418.433,82,o),
(445.433,82,cs),
(547.433,82,ls),
(574.433,82,o),
(584.669,69,o),
(578.929,42,cs),
(573.189,15,o),
(557,0,o),
(530,0,cs),
(382,0,ls),
(328,0,o),
(307.528,26,o),
(319.008,80,cs),
(340.906,183,ls),
(343.67,196,o),
(338.158,203,o),
(325.158,203,cs),
(224.158,203,ls),
(211.158,203,o),
(201.67,196,o),
(195.906,183,cs),
(139.567,45,ls),
(127.189,15,o),
(106,0,o),
(76,0,c)
);
},
{
closed = 1;
nodes = (
(242.355,298,ls),
(236.591,285,o),
(241.103,278,o),
(254.103,278,cs),
(341.103,278,ls),
(354.103,278,o),
(362.591,285,o),
(365.355,298,cs),
(433.812,620,ls),
(437.851,639,o),
(430.765,648,o),
(411.765,648,c),
(392.765,648,o),
(380.851,639,o),
(373.025,621,cs)
);
}
);
width = 600;
},
{
layerId = "D6017CDA-DCCB-46D4-A8A1-3FBBF500E309";
shapes = (
{
closed = 1;
nodes = (
(42,0,o),
(37.701,8,o),
(45.102,24,cs),
(349.867,672,ls),
(368.159,711,o),
(397.198,730,o),
(437.198,730,cs),
(701.198,730,ls),
(716.198,730,o),
(722.71,723,o),
(719.521,708,cs),
(716.332,693,o),
(707.631,685,o),
(692.631,685,cs),
(520.631,685,ls),
(510.631,685,o),
(504.568,680,o),
(502.442,670,cs),
(448.654,417,ls),
(446.528,407,o),
(450.465,402,o),
(460.465,402,cs),
(596.465,402,ls),
(611.465,402,o),
(616.977,395,o),
(613.788,380,cs),
(610.599,365,o),
(601.898,357,o),
(586.898,357,cs),
(450.898,357,ls),
(440.898,357,o),
(434.835,352,o),
(432.709,342,cs),
(375.945,75,ls),
(371.693,55,o),
(379.567,45,o),
(399.567,45,cs),
(556.567,45,ls),
(571.567,45,o),
(577.079,38,o),
(573.89,23,cs),
(570.701,8,o),
(561,0,o),
(546,0,cs),
(370,0,ls),
(330,0,o),
(314.252,20,o),
(322.756,60,cs),
(352.52,200,ls),
(354.646,210,o),
(350.709,215,o),
(340.709,215,cs),
(200.709,215,ls),
(190.709,215,o),
(183.646,210,o),
(178.52,200,cs),
(95.102,24,ls),
(87.701,8,o),
(76,0,o),
(59,0,cs)
);
},
{
closed = 1;
nodes = (
(215.465,275,ls),
(211.339,265,o),
(213.276,260,o),
(223.276,260,cs),
(350.276,260,ls),
(360.276,260,o),
(366.339,265,o),
(368.465,275,cs),
(450.103,659,ls),
(453.718,676,o),
(447.631,685,o),
(430.631,685,cs),
(413.631,685,o),
(400.93,677,o),
(393.316,660,cs)
);
}
);
width = 600;
}
);
unicode = 198;
},
{
color = (153, 254, 255, 255);
glyphname = B;
layers = (
{
layerId = "78C5E225-AB5C-450D-A6D0-D457B4E69ACE";
shapes = (
{
closed = 1;
nodes = (
(521.914,390,o),
(520.851,385,o),
(532.001,381,cs),
(554.512,374,o),
(571.323,359,qs),
(598.221,335,o),
(615.851,258,o),
(605.859,211,qs),
(592.465,148,o),
(509.268,53,o),
(385,0,o),
(310,0,qs),
(156,0,ls),
(106,0,o),
(74.504,40,o),
(85.134,90,cs),
(199.938,630,ls),
(214.82,700,o),
(251.198,730,o),
(321.198,730,cs),
(456.198,730,ls),
(529.198,730,o),
(628.206,683,o),
(671.347,599,o),
(659.229,542,qs),
(650.513,501,o),
(606.694,436,o),
(574.229,415,qs),
(555.465,402,o),
(534.977,395,qs)
);
},
{
closed = 1;
nodes = (
(308.607,318,ls),
(293.607,318,o),
(281.481,308,o),
(278.292,293,cs),
(250.016,160,ls),
(244.701,135,o),
(256.512,120,o),
(281.512,120,cs),
(330.512,120,ls),
(379.512,120,o),
(447.567,172,o),
(457.559,219,qs),
(467.339,265,o),
(421.607,318,o),
(372.607,318,qs)
);
},
{
closed = 1;
nodes = (
(314.434,463,ls),
(311.245,448,o),
(319.119,438,o),
(334.119,438,cs),
(392.119,438,ls),
(436.119,438,o),
(496.686,483,o),
(505.19,523,qs),
(513.906,564,o),
(472.686,610,o),
(428.686,610,qs),
(385.686,610,ls),
(360.686,610,o),
(342.497,595,o),
(337.182,570,cs)
);
}
);
width = 600;
},
{
layerId = "A3C04AAB-708A-4E7C-A386-00C8304CC3CD";
shapes = (
{
closed = 1;
nodes = (
(480.001,381,o),
(480.363,378,o),
(488.725,375,cs),
(518.812,366,o),
(539.985,348,qs),
(568.882,324,o),
(585.063,259,o),
(575.284,213,qs),
(562.103,151,o),
(488.417,49,o),
(382,0,o),
(315,0,qs),
(172,0,ls),
(116,0,o),
(97.89,23,o),
(110.008,80,cs),
(231.19,650,ls),
(243.308,707,o),
(271.198,730,o),
(327.198,730,cs),
(454.198,730,ls),
(522.198,730,o),
(607.631,685,o),
(640.56,600,o),
(628.017,541,qs),
(620.15,504,o),
(580.757,441,o),
(552.867,418,qs),
(527.402,397,o),
(489.638,384,qs)
);
},
{
closed = 1;
nodes = (
(276.945,329,ls),
(259.945,329,o),
(250.245,321,o),
(246.63,304,cs),
(209.638,130,ls),
(203.685,102,o),
(213.134,90,o),
(241.134,90,cs),
(324.134,90,ls),
(387.134,90,o),
(474.591,158,o),
(486.922,216,qs),
(500.103,278,o),
(440.945,329,o),
(374.945,329,qs)
);
},
{
closed = 1;
nodes = (
(276.394,444,ls),
(272.78,427,o),
(279.079,419,o),
(296.079,419,cs),
(387.079,419,ls),
(456.079,419,o),
(526.261,481,o),
(537.528,534,qs),
(548.796,587,o),
(494.064,640,o),
(435.064,640,qs),
(358.064,640,ls),
(329.064,640,o),
(315.513,628,o),
(309.56,600,cs)
);
}
);
width = 600;
},
{
layerId = "D6017CDA-DCCB-46D4-A8A1-3FBBF500E309";
shapes = (
{
closed = 1;
nodes = (
(468.938,376,o),
(470.3,373,o),
(474.087,372,cs),
(508.961,362,o),
(526.497,341,qs),
(550.544,313,o),
(567.087,245,o),
(557.52,200,qs),
(544.551,139,o),
(472.417,49,o),
(367,0,o),
(301,0,qs),
(180,0,ls),
(136,0,o),
(115.528,26,o),
(124.882,70,cs),
(250.316,660,ls),
(259.67,704,o),
(291.198,730,o),
(335.198,730,cs),
(453.198,730,ls),
(514.198,730,o),
(593.418,684,o),
(625.347,599,o),
(613.229,542,qs),
(605.363,505,o),
(574.182,443,o),
(544.442,416,qs),
(520.764,394,o),
(474.363,378,qs)
);
},
{
closed = 1;
nodes = (
(248.985,348,ls),
(239.985,348,o),
(232.709,342,o),
(230.796,333,cs),
(178.071,85,ls),
(173.394,63,o),
(183.63,50,o),
(205.63,50,cs),
(311.63,50,ls),
(388.63,50,o),
(492.213,128,o),
(507.307,199,qs),
(522.402,270,o),
(447.985,348,o),
(374.985,348,qs)
);
},
{
closed = 1;
nodes = (
(247.804,413,ls),
(245.89,404,o),
(250.615,398,o),
(259.615,398,cs),
(382.615,398,ls),
(446.615,398,o),
(548.772,474,o),
(563.017,541,qs),
(577.261,608,o),
(512.568,680,o),
(442.568,680,qs),
(339.568,680,ls),
(317.568,680,o),
(301.804,667,o),
(297.127,645,cs)
);
}
);
width = 600;
}
);
unicode = 66;
},
{
color = (153, 254, 255, 255);
glyphname = C;
layers = (
{
layerId = "78C5E225-AB5C-450D-A6D0-D457B4E69ACE";
shapes = (
{
closed = 1;
nodes = (
(170.544,567,o),
(291.324,740,o),
(520.324,740,cs),
(572.324,740,o),
(683.474,736,o),
(687.442,670,cs),
(688.316,660,o),
(687.19,650,o),
(685.064,640,cs),
(679.962,616,o),
(667.985,602,o),
(642.009,588,cs),
(631.946,583,o),
(623.946,583,o),
(615.946,583,cs),
(604.946,583,o),
(593.584,586,o),
(582.647,591,cs),
(559.198,603,o),
(533.261,608,o),
(498.261,608,cs),
(362.261,608,o),
(301.198,476,o),
(277.386,364,cs),
(255.276,260,o),
(250.937,122,o),
(380.937,122,cs),
(413.937,122,o),
(441.788,126,o),
(476.126,137,cs),
(489.977,141,o),
(503.402,143,o),
(516.402,143,cs),
(523.402,143,o),
(530.402,143,o),
(536.764,140,cs),
(559.851,131,o),
(566.386,110,o),
(561.071,85,cs),
(559.158,76,o),
(556.244,67,o),
(551.118,57,cs),
(517.874,-10,o),
(402.874,-10,o),
(346.874,-10,cs),
(130.874,-10,o),
(85.929,169,o),
(126.749,361,cs)
);
}
);
width = 600;
},
{
layerId = "A3C04AAB-708A-4E7C-A386-00C8304CC3CD";
shapes = (
{
closed = 1;
nodes = (
(180.969,569,o),
(300.324,740,o),
(526.324,740,cs),
(574.324,740,o),
(678.836,733,o),
(679.844,686,cs),
(679.993,682,o),
(679.143,678,o),
(678.292,674,cs),
(674.678,657,o),
(662.851,639,o),
(647.576,633,cs),
(642.151,631,o),
(637.938,630,o),
(632.938,630,cs),
(625.938,630,o),
(619.363,632,o),
(614.788,634,cs),
(583.127,645,o),
(543.19,650,o),
(507.19,650,cs),
(354.19,650,o),
(255.45,496,o),
(226.961,362,cs),
(200.599,238,o),
(207.008,80,o),
(371.008,80,cs),
(410.008,80,o),
(440.433,82,o),
(476.984,94,cs),
(486.622,97,o),
(497.047,99,o),
(507.047,99,cs),
(514.047,99,o),
(521.835,98,o),
(527.197,95,cs),
(540.709,88,o),
(546.732,74,o),
(543.331,58,cs),
(541.63,50,o),
(537.929,42,o),
(531.228,34,cs),
(496.874,-10,o),
(403.874,-10,o),
(351.874,-10,cs),
(138.874,-10,o),
(95.717,168,o),
(136.961,362,cs)
);
}
);
width = 600;
},
{
layerId = "D6017CDA-DCCB-46D4-A8A1-3FBBF500E309";
shapes = (
{
closed = 1;
nodes = (
(190.969,569,o),
(308.324,740,o),
(531.324,740,cs),
(574.324,740,o),
(659.474,736,o),
(674.883,705,cs),
(676.245,702,o),
(676.395,698,o),
(675.544,694,cs),
(673.631,685,o),
(669.292,674,o),
(657.229,669,cs),
(651.804,667,o),
(647.804,667,o),
(645.804,667,cs),
(638.804,667,o),
(634.229,669,o),
(628.08,673,cs),
(611.206,683,o),
(571.694,690,o),
(520.694,690,cs),
(333.694,690,o),
(230.977,522,o),
(197.599,365,cs),
(166.772,220,o),
(187.504,40,o),
(366.504,40,cs),
(399.504,40,o),
(459.504,40,o),
(503.48,54,cs),
(508.906,56,o),
(513.118,57,o),
(518.118,57,cs),
(521.118,57,o),
(524.906,56,o),
(527.48,54,cs),
(534.205,48,o),
(536.291,39,o),
(534.591,31,cs),
(533.528,26,o),
(531.677,22,o),
(528.827,18,cs),
(508.299,-8,o),
(402.874,-10,o),
(355.874,-10,cs),
(146.874,-10,o),
(105.717,168,o),
(146.961,362,cs)
);
}
);
width = 600;
}
);
unicode = 67;
},
{
color = (153, 254, 255, 255);
glyphname = D;
layers = (
{
layerId = "78C5E225-AB5C-450D-A6D0-D457B4E69ACE";
shapes = (
{
closed = 1;
nodes = (
(153,0,ls),
(93,0,o),
(69.378,30,o),
(82.134,90,cs),
(199.064,640,ls),
(211.82,700,o),
(248.198,730,o),
(308.198,730,cs),
(425.198,730,ls),
(524.198,730,o),
(622.867,672,o),
(657.143,551,o),
(655.111,485,qs),
(653.969,442,o),
(650.103,405,o),
(642.024,367,cs),
(633.733,328,o),
(621.441,289,o),
(604.087,245,cs),
(577.205,175,o),
(492.543,59,o),
(369,0,o),
(270,0,qs)
);
},
{
closed = 1;
nodes = (
(250.205,175,ls),
(244.465,148,o),
(254.701,135,o),
(281.701,135,cs),
(298.701,135,ls),
(367.701,135,o),
(440.796,206,o),
(458.087,245,qs),
(477.441,289,o),
(490.52,327,o),
(498.599,365,cs),
(506.678,403,o),
(509.969,442,o),
(509.111,485,cs),
(508.253,528,o),
(464.497,595,o),
(396.497,595,qs),
(379.497,595,ls),
(352.497,595,o),
(336.733,582,o),
(330.993,555,cs)
);
}
);
width = 600;
},
{
layerId = "A3C04AAB-708A-4E7C-A386-00C8304CC3CD";
shapes = (
{
closed = 1;
nodes = (
(172,0,ls),
(118,0,o),
(97.528,26,o),
(109.008,80,cs),
(230.19,650,ls),
(241.67,704,o),
(273.198,730,o),
(327.198,730,cs),
(416.198,730,ls),
(487.198,730,o),
(587.568,680,o),
(618.67,577,o),
(620.639,511,qs),
(622.072,466,o),
(616.654,417,o),
(606.449,369,cs),
(595.607,318,o),
(578.977,268,o),
(558.772,220,cs),
(530.74,154,o),
(453.63,50,o),
(332,0,o),
(261,0,qs)
);
},
{
closed = 1;
nodes = (
(209.638,130,ls),
(203.898,103,o),
(214.134,90,o),
(241.134,90,cs),
(280.134,90,ls),
(350.134,90,o),
(448.079,165,o),
(477.898,230,qs),
(498.89,277,o),
(514.457,322,o),
(523.812,366,cs),
(533.379,411,o),
(536.733,455,o),
(535.513,501,cs),
(533.119,565,o),
(467.064,640,o),
(397.064,640,qs),
(358.064,640,ls),
(331.064,640,o),
(315.3,627,o),
(309.56,600,cs)
);
}
);
width = 600;
},
{
layerId = "D6017CDA-DCCB-46D4-A8A1-3FBBF500E309";
shapes = (
{
closed = 1;
nodes = (
(181,0,ls),
(133,0,o),
(114.89,23,o),
(124.882,70,cs),
(250.316,660,ls),
(260.308,707,o),
(288.198,730,o),
(336.198,730,cs),
(386.198,730,ls),
(473.198,730,o),
(581.379,665,o),
(607.332,566,o),
(601.3,500,qs),
(596.457,449,o),
(590.528,407,o),
(581.599,365,cs),
(572.67,323,o),
(560.953,282,o),
(543.898,230,cs),
(521.866,164,o),
(453.819,65,o),
(318,0,o),
(231,0,qs)
);
},
{
closed = 1;
nodes = (
(179.071,85,ls),
(174.181,62,o),
(183.63,50,o),
(206.63,50,cs),
(241.63,50,ls),
(349.63,50,o),
(468.103,151,o),
(493.898,230,qs),
(509.953,282,o),
(521.67,323,o),
(530.599,365,cs),
(539.528,407,o),
(545.457,449,o),
(551.3,500,cs),
(558.883,578,o),
(482.568,680,o),
(375.568,680,qs),
(340.568,680,ls),
(317.568,680,o),
(303.017,668,o),
(298.127,645,cs)
);
}
);
width = 600;
}
);
unicode = 68;
},
{
color = (153, 254, 255, 255);
glyphname = E;
layers = (
{
layerId = "78C5E225-AB5C-450D-A6D0-D457B4E69ACE";
shapes = (
{
closed = 1;
nodes = (
(397.56,600,ls),
(368.56,600,o),
(355.009,588,o),
(349.056,560,cs),
(329.922,470,ls),
(325.245,448,o),
(331.544,440,o),
(353.544,440,cs),
(526.544,440,ls),
(568.544,440,o),
(587.654,417,o),
(578.725,375,cs),
(569.796,333,o),
(540.481,308,o),
(498.481,308,cs),
(325.481,308,ls),
(305.481,308,o),
(293.355,298,o),
(289.103,278,cs),
(266.142,170,ls),
(260.402,143,o),
(270.638,130,o),
(297.638,130,cs),
(492.638,130,ls),
(536.638,130,o),
(553.173,109,o),
(543.819,65,cs),
(534.465,21,o),
(509,0,o),
(465,0,cs),
(180,0,ls),
(113,0,o),
(87.016,33,o),
(101.26,100,cs),
(213.938,630,ls),
(228.182,697,o),
(268.198,730,o),
(335.198,730,cs),
(620.198,730,ls),
(664.198,730,o),
(680.733,709,o),
(671.379,665,cs),
(662.025,621,o),
(636.56,600,o),
(592.56,600,cs)
);
}
);
width = 600;
},
{
layerId = "A3C04AAB-708A-4E7C-A386-00C8304CC3CD";
shapes = (
{
closed = 1;
nodes = (
(366.064,640,ls),
(339.064,640,o),
(323.3,627,o),
(317.56,600,cs),
(286.095,452,ls),
(282.481,435,o),
(288.78,427,o),
(305.78,427,cs),
(535.78,427,ls),
(562.78,427,o),
(576.953,409,o),
(571.213,382,cs),
(565.473,355,o),
(543.646,337,o),
(516.646,337,cs),
(286.646,337,ls),
(269.646,337,o),
(259.945,329,o),
(256.331,312,cs),
(217.638,130,ls),
(211.898,103,o),
(222.134,90,o),
(249.134,90,cs),
(498.134,90,ls),
(525.134,90,o),
(535.307,72,o),
(529.567,45,cs),
(523.827,18,o),
(506,0,o),
(479,0,cs),
(180,0,ls),
(126,0,o),
(105.528,26,o),
(117.008,80,cs),
(238.19,650,ls),
(249.67,704,o),
(281.198,730,o),
(335.198,730,cs),
(634.198,730,ls),
(661.198,730,o),
(671.371,712,o),
(665.631,685,cs),
(659.891,658,o),
(642.064,640,o),
(615.064,640,cs)
);
}
);
width = 600;
},
{
layerId = "D6017CDA-DCCB-46D4-A8A1-3FBBF500E309";
shapes = (
{
closed = 1;
nodes = (
(349.568,680,ls),
(326.568,680,o),
(312.017,668,o),
(307.127,645,cs),
(260.568,426,ls),
(257.804,413,o),
(263.316,406,o),
(276.316,406,cs),
(539.316,406,ls),
(554.316,406,o),
(559.19,396,o),
(556.001,381,cs),
(552.812,366,o),
(543.686,356,o),
(528.686,356,cs),
(265.686,356,ls),
(252.686,356,o),
(244.197,349,o),
(241.434,336,cs),
(188.071,85,ls),
(183.181,62,o),
(192.63,50,o),
(215.63,50,cs),
(497.63,50,ls),
(512.63,50,o),
(518.504,40,o),
(515.315,25,cs),
(512.126,10,o),
(502,0,o),
(487,0,cs),
(190,0,ls),
(143,0,o),
(124.89,23,o),
(134.882,70,cs),
(260.316,660,ls),
(270.308,707,o),
(298.198,730,o),
(345.198,730,cs),
(642.198,730,ls),
(657.198,730,o),
(663.072,720,o),
(659.883,705,cs),
(656.694,690,o),
(646.568,680,o),
(631.568,680,cs)
);
}
);
width = 600;
}
);
unicode = 69;
},
{
glyphname = Eopen;
layers = (
{
layerId = "78C5E225-AB5C-450D-A6D0-D457B4E69ACE";
shapes = (
{
closed = 1;
nodes = (
(491,696,o),
(403,740,o),
(305,740,cs),
(184,740,o),
(64,676,o),
(64,541,cs),
(64,469,o),
(105,399,o),
(179,386,c),
(95,368,o),
(44,291,o),
(44,207,cs),
(44,59,o),
(177,-10,o),
(309,-10,cs),
(409,-10,o),
(505,31,o),
(547,114,cs),
(575,168,o),
(542,210,o),
(471,210,cs),
(448,210,o),
(432,198,o),
(409,163,cs),
(389,132,o),
(348,118,o),
(309,118,cs),
(249,118,o),
(196,152,o),
(196,217,cs),
(196,288,o),
(246,316,o),
(301,316,cs),
(329,316,ls),
(371,316,o),
(391,336,o),
(391,378,cs),
(391,420,o),
(371,440,o),
(329,440,cs),
(301,440,ls),
(254,440,o),
(214,465,o),
(214,529,cs),
(214,583,o),
(255,616,o),
(307,616,cs),
(346,616,o),
(376,598,o),
(391,568,cs),
(410,531,o),
(424,520,o),
(451,520,cs),
(522,520,o),
(555,561,o),
(529,616,cs)
);
}
);
width = 600;
},
{
anchors = (
{
name = m.uni0308;
position = "{300, 730}";
},
{
name = m.uni0325_2;
position = "{300, 0}";
}
);
layerId = "A3C04AAB-708A-4E7C-A386-00C8304CC3CD";
shapes = (
{
closed = 1;
nodes = (
(496,685,o),
(411,740,o),
(305,740,cs),
(191,740,o),
(89,674,o),
(89,551,cs),
(89,477,o),
(131,403,o),
(206,384,c),
(116,368,o),
(66,286,o),
(66,199,cs),
(66,61,o),
(183,-10,o),
(309,-10,cs),
(416,-10,o),
(511,43,o),
(539,141,cs),
(550,178,o),
(530,200,o),
(488,200,cs),
(469,200,o),
(460,191,o),
(455,170,cs),
(440,104,o),
(377,70,o),
(308,70,cs),
(226,70,o),
(158,118,o),
(158,205,cs),
(158,292,o),
(226,340,o),
(308,340,cs),
(354,340,ls),
(381,340,o),
(394,353,o),
(394,380,cs),
(394,407,o),
(381,420,o),
(354,420,cs),
(308,420,ls),
(250,420,o),
(179,448,o),
(179,542,cs),
(179,616,o),
(234,660,o),
(305,660,cs),
(373,660,o),
(423,622,o),
(435,560,cs),
(439,539,o),
(449,530,o),
(468,530,cs),
(510,530,o),
(531,553,o),
(521,590,cs)
);
}
);
width = 600;
},
{
layerId = "D6017CDA-DCCB-46D4-A8A1-3FBBF500E309";
shapes = (
{
closed = 1;
nodes = (
(502,670,o),
(421,740,o),
(306,740,cs),
(191,740,o),
(103,665,o),
(103,547,cs),
(103,471,o),
(147,397,o),
(224,381,c),
(137,360,o),
(83,282,o),
(83,194,cs),
(83,63,o),
(187,-10,o),
(310,-10,cs),
(424,-10,o),
(519,52,o),
(535,163,cs),
(538,184,o),
(527,196,o),
(504,196,cs),
(493,196,o),
(487,190,o),
(486,179,cs),
(478,86,o),
(402,35,o),
(310,35,cs),
(213,35,o),
(133,93,o),
(133,196,cs),
(133,299,o),
(213,356,o),
(310,356,cs),
(352,356,ls),
(367,356,o),
(375,364,o),
(375,379,cs),
(375,394,o),
(368,401,o),
(353,401,cs),
(306,401,ls),
(217,401,o),
(153,458,o),
(153,549,cs),
(153,639,o),
(218,696,o),
(306,696,cs),
(398,696,o),
(460,635,o),
(467,547,cs),
(468,536,o),
(474,530,o),
(485,530,cs),
(508,530,o),
(519,541,o),
(516,563,cs)
);
}
);
width = 600;
}
);
unicode = 400;
},
{
color = (153, 254, 255, 255);
glyphname = Schwa;
layers = (
{
layerId = "78C5E225-AB5C-450D-A6D0-D457B4E69ACE";
shapes = (
{
closed = 1;
nodes = (
(250.906,310,ls),
(241.906,310,o),
(236.843,305,o),
(235.93,296,cs),
(219.591,158,o),
(247.449,115,o),
(319.449,115,cs),
(388.449,115,o),
(444.378,157,o),
(486.504,294,cs),
(489.63,304,o),
(487.906,310,o),
(476.906,310,cs)
);
},
{
closed = 1;
nodes = (
(633.324,740,o),
(694.072,593,o),
(647.3,373,cs),
(598.402,143,o),
(474.874,-10,o),
(292.874,-10,cs),
(101.874,-10,o),
(64.851,131,o),
(114.599,365,cs),
(123.953,409,o),
(148.418,430,o),
(189.418,430,cs),
(502.418,430,ls),
(515.418,430,o),
(520.481,435,o),
(521.607,445,cs),
(534.119,565,o),
(486.812,620,o),
(416.812,620,cs),
(335.812,620,o),
(291.182,570,o),
(265.206,556,cs),
(250.505,548,o),
(238.229,542,o),
(228.229,542,cs),
(194.229,542,o),
(173.607,572,o),
(180.198,603,cs),
(183.812,620,o),
(193.576,633,o),
(208.127,645,cs),
(268.332,693,o),
(342.324,740,o),
(452.324,740,cs)
);
}
);
width = 600;
},
{
layerId = "A3C04AAB-708A-4E7C-A386-00C8304CC3CD";
shapes = (
{
closed = 1;
nodes = (
(241.158,330,ls),
(230.158,330,o),
(224.52,327,o),
(221.756,314,cs),
(189.016,160,o),
(222.008,80,o),
(317.008,80,cs),
(416.008,80,o),
(498.268,180,o),
(527.182,316,cs),
(529.945,329,o),
(523.158,330,o),
(514.158,330,cs)
);
},
{
closed = 1;
nodes = (
(610.324,740,o),
(680.111,612,o),
(629.3,373,cs),
(580.827,145,o),
(472.874,-10,o),
(297.874,-10,cs),
(123.874,-10,o),
(85.,127,o),
(137.3,373,cs),
(142.402,397,o),
(166.292,420,o),
(194.292,420,cs),
(531.292,420,ls),
(544.292,420,o),
(550.355,425,o),
(553.331,439,cs),
(579.694,563,o),
(527.19,650,o),
(428.19,650,cs),
(347.19,650,o),
(284.71,596,o),
(256.67,577,cs),
(247.395,571,o),
(244.757,568,o),
(234.757,568,cs),
(209.757,568,o),
(195.434,590,o),
(200.111,612,cs),
(202.662,624,o),
(209.788,634,o),
(219.489,642,cs),
(279.694,690,o),
(360.324,740,o),
(450.324,740,cs)
);
}
);
width = 600;
},
{
layerId = "D6017CDA-DCCB-46D4-A8A1-3FBBF500E309";
shapes = (
{
closed = 1;
nodes = (
(198.709,342,ls),
(192.709,342,o),
(190.071,339,o),
(188.583,332,cs),
(150.103,151,o),
(178.504,40,o),
(308.504,40,cs),
(438.504,40,o),
(518.229,161,o),
(554.583,332,cs),
(555.859,338,o),
(554.709,342,o),
(548.709,342,cs)
);
},
{
closed = 1;
nodes = (
(623.198,730,o),
(664.284,594,o),
(617.3,373,cs),
(568.189,142,o),
(477.874,-10,o),
(297.874,-10,cs),
(117.874,-10,o),
(95.213,128,o),
(144.961,362,cs),
(148.15,377,o),
(162.339,392,o),
(178.339,392,cs),
(560.339,392,ls),
(565.339,392,o),
(571.19,396,o),
(572.678,403,cs),
(608.607,572,o),
(553.568,680,o),
(439.568,680,cs),
(338.568,680,o),
(299.426,637,o),
(257.773,601,cs),
(246.647,591,o),
(240.584,586,o),
(232.584,586,cs),
(217.584,586,o),
(209.41,604,o),
(212.387,618,cs),
(213.875,625,o),
(218.151,631,o),
(224.214,636,cs),
(286.694,690,o),
(340.198,730,o),
(450.198,730,cs)
);
}
);
width = 600;
}
);
unicode = 399;
},
{
color = (153, 254, 255, 255);
glyphname = F;
layers = (
{
layerId = "78C5E225-AB5C-450D-A6D0-D457B4E69ACE";
shapes = (
{
closed = 1;
nodes = (
(206,640,ls),
(219,700,o),
(255,730,o),
(315,730,cs),
(630,730,ls),
(674,730,o),
(691,709,o),
(681,665,cs),
(672,621,o),
(647,600,o),
(603,600,cs),
(388,600,ls),
(361,600,o),
(345,588,o),
(339,560,cs),
(319,466,ls),
(315,446,o),
(323,436,o),
(343,436,cs),
(545,436,ls),
(587,436,o),
(602,416,o),
(593,374,cs),
(585,332,o),
(560,312,o),
(518,312,cs),
(316,312,ls),
(296,312,o),
(284,302,o),
(280,282,cs),
(236,75,ls),
(225,25,o),
(195,0,o),
(145,0,cs),
(95,0,o),
(75,25,o),
(86,75,cs)
);
}
);
width = 600;
},
{
layerId = "A3C04AAB-708A-4E7C-A386-00C8304CC3CD";
shapes = (
{
closed = 1;
nodes = (
(233,650,ls),
(245,704,o),
(276,730,o),
(330,730,cs),
(635,730,ls),
(665,730,o),
(677,715,o),
(671,685,cs),
(664,655,o),
(646,640,o),
(616,640,cs),
(361,640,ls),
(334,640,o),
(318,627,o),
(313,600,cs),
(281,452,ls),
(277,435,o),
(284,427,o),
(301,427,cs),
(550,427,ls),
(577,427,o),
(587,414,o),
(581,387,cs),
(576,360,o),
(560,347,o),
(533,347,cs),
(284,347,ls),
(267,347,o),
(257,339,o),
(253,322,cs),
(195,45,ls),
(188,15,o),
(170,0,o),
(140,0,cs),
(110,0,o),
(98,15,o),
(105,45,cs)
);
}
);
width = 600;
},
{
layerId = "D6017CDA-DCCB-46D4-A8A1-3FBBF500E309";
shapes = (
{
closed = 1;
nodes = (
(255,660,ls),
(265,707,o),
(293,730,o),
(340,730,cs),
(655,730,ls),
(672,730,o),
(678,722,o),
(675,705,cs),
(671,688,o),
(662,680,o),
(645,680,cs),
(345,680,ls),
(322,680,o),
(307,668,o),
(302,645,cs),
(256,426,ls),
(253,413,o),
(258,406,o),
(271,406,cs),
(551,406,ls),
(568,406,o),
(575,398,o),
(571,381,cs),
(567,364,o),
(558,356,o),
(541,356,cs),
(261,356,ls),
(248,356,o),
(239,349,o),
(236,336,cs),
(170,25,ls),
(167,8,o),
(157,0,o),
(140,0,cs),
(123,0,o),
(117,8,o),
(120,25,cs)
);
}
);
width = 600;
}
);
unicode = 70;
},
{
color = (153, 254, 255, 255);
glyphname = G;
layers = (
{
layerId = "78C5E225-AB5C-450D-A6D0-D457B4E69ACE";
shapes = (
{
closed = 1;
nodes = (
(470.725,248,ls),
(476.465,275,o),
(466.229,288,o),
(439.229,288,cs),
(401.229,288,ls),
(361.229,288,o),
(345.481,308,o),
(353.985,348,cs),
(362.489,388,o),
(386.741,408,o),
(426.741,408,cs),
(514.741,408,ls),
(594.741,408,o),
(626.237,368,o),
(609.229,288,cs),
(592.646,210,ls),
(578.614,144,o),
(496.567,45,o),
(370.874,-10,o),
(297.874,-10,qs),
(225.874,-10,o),
(132.567,45,o),
(84.827,145,o),
(84.646,210,qs),
(84.819,319,o),
(105.253,401,o),
(148.426,510,cs),
(174.458,576,o),
(266.631,685,o),
(373.324,740,o),
(457.324,740,qs),
(520.324,740,o),
(623.631,685,o),
(643.214,636,q),
(647.3,627,o),
(649.962,616,q),
(666.843,559,o),
(629.552,520,o),
(558.552,520,cs),
(530.552,520,o),
(517.103,532,o),
(515.804,540,cs),
(511.757,568,o),
(488.009,588,qs),
(468.623,605,o),
(428.623,605,qs),
(383.623,605,o),
(303.402,524,o),
(284.135,471,qs),
(254.489,388,o),
(238.008,334,o),
(234.599,238,cs),
(232.544,186,o),
(283.575,125,o),
(326.575,125,qs),
(371.575,125,o),
(453.504,167,o),
(462.646,210,qs)
);
}
);
width = 600;
},
{
layerId = "A3C04AAB-708A-4E7C-A386-00C8304CC3CD";
shapes = (
{
closed = 1;
nodes = (
(485.402,270,ls),
(491.142,297,o),
(478.78,300,o),
(451.78,300,cs),
(388.78,300,ls),
(358.78,300,o),
(346.969,315,o),
(353.347,345,cs),
(359.725,375,o),
(377.914,390,o),
(407.914,390,cs),
(520.914,390,ls),
(574.914,390,o),
(595.386,364,o),
(583.906,310,cs),
(560.52,200,ls),
(546.914,136,o),
(474.717,41,o),
(363.874,-10,o),
(297.874,-10,qs),
(233.874,-10,o),
(151.504,40,o),
(109.914,136,o),
(110.52,200,qs),
(111.182,316,o),
(134.103,405,o),
(178.552,520,cs),
(203.371,585,o),
(287.694,690,o),
(391.324,740,o),
(457.324,740,qs),
(513.324,740,o),
(602.481,689,o),
(618.489,642,qs),
(627.174,617,o),
(630.009,588,qs),
(634.143,551,o),
(611.678,530,o),
(570.678,530,cs),
(551.678,530,o),
(541.379,538,o),
(539.843,559,cs),
(537.261,608,o),
(511.3,627,qs),
(480.19,650,o),
(438.19,650,qs),
(384.19,650,o),
(292.67,577,o),
(270.765,521,qs),
(225.316,406,o),
(202.969,315,o),
(202.52,200,cs),
(202.551,139,o),
(266.008,80,o),
(317.008,80,qs),
(369.008,80,o),
(457.339,138,o),
(470.52,200,qs)
);
}
);
width = 600;
},
{
layerId = "D6017CDA-DCCB-46D4-A8A1-3FBBF500E309";
shapes = (
{
closed = 1;
nodes = (
(521.229,288,ls),
(525.481,308,o),
(517.607,318,o),
(497.607,318,cs),
(372.607,318,ls),
(355.607,318,o),
(349.308,326,o),
(352.922,343,cs),
(356.536,360,o),
(366.237,368,o),
(383.237,368,cs),
(528.237,368,ls),
(568.237,368,o),
(583.985,348,o),
(575.481,308,cs),
(552.52,200,ls),
(538.488,134,o),
(468.929,42,o),
(359.874,-10,o),
(297.874,-10,qs),
(238.874,-10,o),
(165.504,40,o),
(134.851,131,o),
(135.394,190,qs),
(136.331,312,o),
(161.741,408,o),
(207.678,530,cs),
(230.434,590,o),
(301.907,691,o),
(402.324,740,o),
(457.324,740,qs),
(517.324,740,o),
(596.269,688,o),
(611.277,641,qs),
(623.048,607,o),
(623.694,563,qs),
(624.229,542,o),
(612.678,530,o),
(589.678,530,cs),
(578.678,530,o),
(571.741,535,o),
(573.08,546,c),
(579.324,613,o),
(547.403,651,qs),
(514.694,690,o),
(446.694,690,qs),
(382.694,690,o),
(284.773,601,o),
(257.678,530,qs),
(211.741,408,o),
(187.331,312,o),
(185.394,190,cs),
(184.299,119,o),
(240.504,40,o),
(308.504,40,qs),
(380.504,40,o),
(485.937,122,o),
(502.52,200,qs)
);
}
);
width = 600;
}
);
unicode = 71;
},
{
color = (153, 254, 255, 255);
glyphname = H;
layers = (
{
layerId = "AF231975-8591-4A9E-9633-127BEEE6582E";
name = "#instance";
shapes = (
{
closed = 1;
nodes = (
(105.874,-10,o),
(94.063,5,o),
(100.441,35,cs),
(240.757,695,ls),
(247.135,725,o),
(265.324,740,o),
(295.324,740,cs),
(325.324,740,o),
(337.135,725,o),
(330.757,695,cs),
(276.969,442,ls),
(274.205,429,o),
(279.717,422,o),
(292.717,422,cs),
(486.717,422,ls),
(499.717,422,o),
(508.205,429,o),
(510.969,442,cs),
(564.757,695,ls),
(571.135,725,o),
(589.324,740,o),
(619.324,740,cs),
(649.324,740,o),
(661.135,725,o),
(654.757,695,cs),
(514.441,35,ls),
(508.063,5,o),
(489.874,-10,o),
(459.874,-10,cs),
(429.874,-10,o),
(418.063,5,o),
(424.441,35,cs),
(483.331,312,ls),
(486.095,325,o),
(480.583,332,o),
(467.583,332,cs),
(273.583,332,ls),
(260.583,332,o),
(252.095,325,o),
(249.331,312,cs),
(190.441,35,ls),
(184.063,5,o),
(165.874,-10,o),
(135.874,-10,cs)
);
}
);
width = 600;
},
{
layerId = "78C5E225-AB5C-450D-A6D0-D457B4E69ACE";
shapes = (
{
closed = 1;
nodes = (
(88.874,-10,o),
(69.189,15,o),
(79.819,65,cs),
(207.379,665,ls),
(218.009,715,o),
(248.324,740,o),
(298.324,740,cs),
(348.324,740,o),
(368.009,715,o),
(357.379,665,cs),
(316.772,474,ls),
(313.158,457,o),
(319.457,449,o),
(336.457,449,cs),
(454.457,449,ls),
(471.457,449,o),
(481.158,457,o),
(484.772,474,cs),
(525.379,665,ls),
(536.009,715,o),
(566.324,740,o),
(616.324,740,cs),
(666.324,740,o),
(686.009,715,o),
(675.379,665,cs),
(547.819,65,ls),
(537.189,15,o),
(506.874,-10,o),
(456.874,-10,cs),
(406.874,-10,o),
(387.189,15,o),
(397.819,65,cs),
(444.378,284,ls),
(447.993,301,o),
(441.693,309,o),
(424.693,309,cs),
(306.693,309,ls),
(289.693,309,o),
(279.993,301,o),
(276.378,284,cs),
(229.819,65,ls),
(219.189,15,o),
(188.874,-10,o),
(138.874,-10,cs)
);
}
);
width = 600;
},
{
layerId = "A3C04AAB-708A-4E7C-A386-00C8304CC3CD";
shapes = (
{
closed = 1;
nodes = (
(105.874,-10,o),
(94.063,5,o),
(100.441,35,cs),
(240.757,695,ls),
(247.135,725,o),
(265.324,740,o),
(295.324,740,cs),
(325.324,740,o),
(337.135,725,o),
(330.757,695,cs),
(276.969,442,ls),
(274.205,429,o),
(279.717,422,o),
(292.717,422,cs),
(486.717,422,ls),
(499.717,422,o),
(508.205,429,o),
(510.969,442,cs),
(564.757,695,ls),
(571.135,725,o),
(589.324,740,o),
(619.324,740,cs),
(649.324,740,o),
(661.135,725,o),
(654.757,695,cs),
(514.441,35,ls),
(508.063,5,o),
(489.874,-10,o),
(459.874,-10,cs),
(429.874,-10,o),
(418.063,5,o),
(424.441,35,cs),
(483.331,312,ls),
(486.095,325,o),
(480.583,332,o),
(467.583,332,cs),
(273.583,332,ls),
(260.583,332,o),
(252.095,325,o),
(249.331,312,cs),
(190.441,35,ls),
(184.063,5,o),
(165.874,-10,o),
(135.874,-10,cs)
);
}
);
width = 600;
},
{
layerId = "D6017CDA-DCCB-46D4-A8A1-3FBBF500E309";
shapes = (
{
closed = 1;
nodes = (
(115.874,-10,o),
(109.575,-2,o),
(113.189,15,cs),
(259.883,705,ls),
(263.497,722,o),
(273.198,730,o),
(290.198,730,cs),
(307.198,730,o),
(313.497,722,o),
(309.883,705,cs),
(249.292,420,ls),
(247.166,410,o),
(251.103,405,o),
(261.103,405,cs),
(511.103,405,ls),
(521.103,405,o),
(527.166,410,o),
(529.292,420,cs),
(589.883,705,ls),
(593.497,722,o),
(603.198,730,o),
(620.198,730,cs),
(637.198,730,o),
(643.497,722,o),
(639.883,705,cs),
(493.189,15,ls),
(489.575,-2,o),
(479.874,-10,o),
(462.874,-10,cs),
(445.874,-10,o),
(439.575,-2,o),
(443.189,15,cs),
(512.284,340,ls),
(514.41,350,o),
(510.473,355,o),
(500.473,355,cs),
(250.473,355,ls),
(240.473,355,o),
(234.41,350,o),
(232.284,340,cs),
(163.189,15,ls),
(159.575,-2,o),
(149.874,-10,o),
(132.874,-10,cs)
);
}
);
width = 600;
}
);
unicode = 72;
},
{
color = (153, 254, 255, 255);
glyphname = I;
layers = (
{
layerId = "78C5E225-AB5C-450D-A6D0-D457B4E69ACE";
shapes = (
{
closed = 1;
nodes = (
(148,0,ls),
(103,0,o),
(84.89,23,o),
(94.457,68,cs),
(104.024,113,o),
(131.701,135,o),
(176.701,135,cs),
(228.701,135,ls),
(245.701,135,o),
(255.402,143,o),
(259.016,160,cs),
(346.182,570,ls),
(349.796,587,o),
(343.497,595,o),
(326.497,595,cs),
(274.497,595,ls),
(229.497,595,o),
(211.387,618,o),
(220.954,663,cs),
(230.521,708,o),
(258.198,730,o),
(303.198,730,cs),
(607.198,730,ls),
(652.198,730,o),
(670.521,708,o),
(660.954,663,cs),
(651.387,618,o),
(623.497,595,o),
(578.497,595,cs),
(526.497,595,ls),
(509.497,595,o),
(499.796,587,o),
(496.182,570,cs),
(409.016,160,ls),
(405.402,143,o),
(411.701,135,o),
(428.701,135,cs),
(480.701,135,ls),
(525.701,135,o),
(544.024,113,o),
(534.457,68,cs),
(524.89,23,o),
(497,0,o),
(452,0,cs)
);
}
);
width = 600;
},
{
layerId = "A3C04AAB-708A-4E7C-A386-00C8304CC3CD";
shapes = (
{
closed = 1;
nodes = (
(150,0,ls),
(123,0,o),
(108.827,18,o),
(114.567,45,cs),
(120.307,72,o),
(142.134,90,o),
(169.134,90,cs),
(253.134,90,ls),
(266.134,90,o),
(274.622,97,o),
(277.386,110,cs),
(385.812,620,ls),
(388.576,633,o),
(383.064,640,o),
(370.064,640,cs),
(286.064,640,ls),
(259.064,640,o),
(244.891,658,o),
(250.631,685,cs),
(256.371,712,o),
(278.198,730,o),
(305.198,730,cs),
(605.198,730,ls),
(632.198,730,o),
(646.371,712,o),
(640.631,685,cs),
(634.891,658,o),
(613.064,640,o),
(586.064,640,cs),
(502.064,640,ls),
(489.064,640,o),
(480.576,633,o),
(477.812,620,cs),
(369.386,110,ls),
(366.622,97,o),
(372.134,90,o),
(385.134,90,cs),
(469.134,90,ls),
(496.134,90,o),
(510.307,72,o),
(504.567,45,cs),
(498.827,18,o),
(477,0,o),
(450,0,cs)
);
}
);
width = 600;
},
{
layerId = "D6017CDA-DCCB-46D4-A8A1-3FBBF500E309";
shapes = (
{
closed = 1;
nodes = (
(145,0,ls),
(130,0,o),
(122.126,10,o),
(125.315,25,cs),
(128.504,40,o),
(140.63,50,o),
(155.63,50,cs),
(271.63,50,ls),
(281.63,50,o),
(287.693,55,o),
(289.819,65,cs),
(417.379,665,ls),
(419.505,675,o),
(415.568,680,o),
(405.568,680,cs),
(289.568,680,ls),
(274.568,680,o),
(266.694,690,o),
(269.883,705,cs),
(273.072,720,o),
(285.198,730,o),
(300.198,730,cs),
(610.198,730,ls),
(625.198,730,o),
(633.072,720,o),
(629.883,705,cs),
(626.694,690,o),
(614.568,680,o),
(599.568,680,cs),
(483.568,680,ls),
(473.568,680,o),
(467.505,675,o),
(465.379,665,cs),
(337.819,65,ls),
(335.693,55,o),
(339.63,50,o),
(349.63,50,cs),
(465.63,50,ls),
(480.63,50,o),
(488.504,40,o),
(485.315,25,cs),
(482.126,10,o),
(470,0,o),
(455,0,cs)
);
}
);
width = 600;
}
);
unicode = 73;
},
{
color = (153, 254, 255, 255);
glyphname = IJ;
layers = (
{
layerId = "78C5E225-AB5C-450D-A6D0-D457B4E69ACE";
shapes = (
{
closed = 1;
nodes = (
(79.662,116,o),
(117.103,151,o),
(180.103,151,cs),
(209.103,151,o),
(225.701,135,o),
(245.347,91,c),
(248.858,84,o),
(253.583,78,qs),
(274.843,51,o),
(320.63,50,q),
(366.63,50,o),
(431.898,103,o),
(441.677,149,qs),
(525.867,545,ls),
(533.095,579,o),
(519.497,595,o),
(486.497,595,cs),
(426.497,595,ls),
(409.497,595,o),
(399.796,587,o),
(396.182,570,cs),
(351.536,360,ls),
(347.922,343,o),
(354.221,335,o),
(371.221,335,cs),
(373.221,335,ls),
(418.221,335,o),
(436.544,313,o),
(426.977,268,cs),
(417.41,223,o),
(389.52,200,o),
(344.52,200,cs),
(140.52,200,ls),
(95.52,200,o),
(77.41,223,o),
(86.977,268,cs),
(96.544,313,o),
(124.221,335,o),
(169.221,335,cs),
(171.221,335,ls),
(188.221,335,o),
(197.922,343,o),
(201.536,360,cs),
(246.182,570,ls),
(249.796,587,o),
(243.497,595,o),
(226.497,595,cs),
(224.497,595,ls),
(179.497,595,o),
(161.387,618,o),
(170.954,663,cs),
(180.521,708,o),
(208.198,730,o),
(253.198,730,cs),
(595.198,730,ls),
(675.198,730,o),
(706.694,690,o),
(689.686,610,cs),
(591.677,149,ls),
(569.142,43,o),
(408.992,-80,o),
(292.992,-80,qs),
(178.992,-80,o),
(124.386,-17,qs),
(94.614,17,o),
(87.606,64,qs)
);
}
);
width = 600;
},
{
layerId = "A3C04AAB-708A-4E7C-A386-00C8304CC3CD";
shapes = (
{
closed = 1;
nodes = (
(120.362,124,o),
(138.764,140,o),
(169.764,140,cs),
(197.764,140,o),
(209.,127,o),
(210.197,95,cs),
(212.181,62,o),
(229.929,42,qs),
(259.126,10,o),
(322.126,10,qs),
(385.913,9,o),
(470.52,73,o),
(484.764,140,qs),
(582.56,600,ls),
(588.3,627,o),
(578.064,640,o),
(551.064,640,cs),
(405.064,640,ls),
(392.064,640,o),
(383.576,633,o),
(380.812,620,cs),
(314.906,310,ls),
(312.142,297,o),
(317.654,290,o),
(330.654,290,cs),
(364.654,290,ls),
(391.654,290,o),
(405.827,272,o),
(400.087,245,cs),
(394.347,218,o),
(372.52,200,o),
(345.52,200,cs),
(145.52,200,ls),
(118.52,200,o),
(104.347,218,o),
(110.087,245,cs),
(115.827,272,o),
(137.654,290,o),
(164.654,290,cs),
(198.654,290,ls),
(211.654,290,o),
(220.142,297,o),
(222.906,310,cs),
(288.812,620,ls),
(291.576,633,o),
(286.064,640,o),
(273.064,640,cs),
(239.064,640,ls),
(212.064,640,o),
(197.891,658,o),
(203.631,685,cs),
(209.371,712,o),
(231.198,730,o),
(258.198,730,cs),
(620.198,730,ls),
(674.198,730,o),
(694.67,704,o),
(683.19,650,cs),
(574.764,140,ls),
(553.079,38,o),
(406.992,-80,o),
(302.992,-80,qs),
(197.992,-80,o),
(150.535,-21,qs),
(114.102,24,o),
(118.197,95,qs)
);
}
);
width = 600;
},
{
layerId = "D6017CDA-DCCB-46D4-A8A1-3FBBF500E309";
shapes = (
{
closed = 1;
nodes = (
(145.725,121,o),
(155.638,130,o),
(172.638,130,cs),
(188.638,130,o),
(194.937,122,o),
(193.323,105,cs),
(186.78,46,o),
(214.551,12,qs),
(247.622,-30,o),
(318.622,-30,qs),
(390.409,-31,o),
(491.268,53,o),
(507.425,129,qs),
(618.19,650,ls),
(622.442,670,o),
(614.568,680,o),
(594.568,680,cs),
(383.568,680,ls),
(373.568,680,o),
(367.505,675,o),
(365.379,665,cs),
(280.339,265,ls),
(278.213,255,o),
(282.15,250,o),
(292.15,250,cs),
(378.15,250,ls),
(393.15,250,o),
(401.024,240,o),
(397.835,225,cs),
(394.646,210,o),
(382.52,200,o),
(367.52,200,cs),
(117.52,200,ls),
(102.52,200,o),
(94.646,210,o),
(97.835,225,cs),
(101.024,240,o),
(113.15,250,o),
(128.15,250,cs),
(214.15,250,ls),
(224.15,250,o),
(230.213,255,o),
(232.339,265,cs),
(317.379,665,ls),
(319.505,675,o),
(315.568,680,o),
(305.568,680,cs),
(219.568,680,ls),
(204.568,680,o),
(196.694,690,o),
(199.883,705,cs),
(203.072,720,o),
(215.198,730,o),
(230.198,730,cs),
(625.198,730,ls),
(665.198,730,o),
(680.946,710,o),
(672.442,670,cs),
(557.425,129,ls),
(536.803,32,o),
(402.992,-80,o),
(307.992,-80,qs),
(212.992,-80,o),
(169.898,-24,qs),
(133.315,25,o),
(143.323,105,qs)
);
}
);
width = 600;
}
);
unicode = 306;
},
{
color = (153, 254, 255, 255);
glyphname = J;
layers = (
{
layerId = "78C5E225-AB5C-450D-A6D0-D457B4E69ACE";
shapes = (
{
closed = 1;
nodes = (
(54.544,186,o),
(91.985,221,o),
(154.985,221,cs),
(183.985,221,o),
(200.583,205,o),
(220.229,161,cs),
(223.74,154,o),
(228.465,148,qs),
(249.725,121,o),
(295.512,120,qs),
(341.512,120,o),
(406.78,173,o),
(416.559,219,qs),
(482.678,530,ls),
(489.906,564,o),
(476.308,580,o),
(443.308,580,cs),
(353.308,580,ls),
(303.308,580,o),
(283.623,605,o),
(294.253,655,cs),
(304.883,705,o),
(335.198,730,o),
(385.198,730,cs),
(555.198,730,ls),
(635.198,730,o),
(666.694,690,o),
(649.686,610,cs),
(566.559,219,ls),
(544.024,113,o),
(383.874,-10,o),
(267.874,-10,qs),
(153.874,-10,o),
(99.268,53,qs),
(69.496,87,o),
(62.488,134,qs)
);
}
);
width = 600;
},
{
layerId = "A3C04AAB-708A-4E7C-A386-00C8304CC3CD";
shapes = (
{
closed = 1;
nodes = (
(85.244,194,o),
(103.646,210,o),
(134.646,210,cs),
(162.646,210,o),
(173.882,197,o),
(175.079,165,cs),
(177.063,132,o),
(194.811,112,qs),
(224.221,81,o),
(287.008,80,qs),
(351.008,80,o),
(435.402,143,o),
(449.646,210,qs),
(532.56,600,ls),
(538.3,627,o),
(528.064,640,o),
(501.064,640,cs),
(351.064,640,ls),
(321.064,640,o),
(309.253,655,o),
(315.631,685,cs),
(322.009,715,o),
(340.198,730,o),
(370.198,730,cs),
(570.198,730,ls),
(624.198,730,o),
(644.67,704,o),
(633.19,650,cs),
(539.646,210,ls),
(517.961,108,o),
(371.874,-10,o),
(267.874,-10,qs),
(162.874,-10,o),
(115.417,49,qs),
(78.984,94,o),
(83.079,165,qs)
);
}
);
width = 600;
},
{
layerId = "D6017CDA-DCCB-46D4-A8A1-3FBBF500E309";
shapes = (
{
closed = 1;
nodes = (
(110.607,191,o),
(120.52,200,o),
(137.52,200,cs),
(153.52,200,o),
(159.819,192,o),
(158.205,175,cs),
(151.662,116,o),
(179.433,82,qs),
(212.717,41,o),
(283.504,40,qs),
(355.504,40,o),
(456.15,123,o),
(472.307,199,qs),
(568.19,650,ls),
(572.442,670,o),
(564.568,680,o),
(544.568,680,cs),
(364.568,680,ls),
(347.568,680,o),
(341.269,688,o),
(344.883,705,cs),
(348.497,722,o),
(358.198,730,o),
(375.198,730,cs),
(575.198,730,ls),
(615.198,730,o),
(630.946,710,o),
(622.442,670,cs),
(522.307,199,ls),
(501.685,102,o),
(367.874,-10,o),
(272.874,-10,qs),
(177.874,-10,o),
(134.78,46,qs),
(98.197,95,o),
(108.205,175,qs)
);
}
);
width = 600;
}
);
unicode = 74;
},
{
color = (153, 254, 255, 255);
glyphname = K;
layers = (
{
layerId = "78C5E225-AB5C-450D-A6D0-D457B4E69ACE";
shapes = (
{
closed = 1;
nodes = (
(206.379,665,ls),
(217.009,715,o),
(247.324,740,o),
(297.324,740,cs),
(347.324,740,o),
(367.009,715,o),
(356.379,665,cs),
(329.379,538,ls),
(327.04,527,o),
(334.402,524,o),
(343.316,533,cs),
(503.757,695,ls),
(533.135,725,o),
(565.324,740,o),
(603.324,740,cs),
(648.324,740,o),
(688.521,708,o),
(631.765,648,cs),
(433.119,438,ls),
(419.142,424,o),
(415.379,411,o),
(421.19,396,cs),
(542.709,88,ls),
(568.89,23,o),
(520.874,-10,o),
(464.874,-10,cs),
(426.874,-10,o),
(403.488,7,o),
(390.291,39,cs),
(294.04,273,ls),
(291.528,280,o),
(289.741,281,o),
(282.465,275,cs),
(281.252,274,ls),
(273.977,268,o),
(270.063,259,o),
(268.15,250,cs),
(228.819,65,ls),
(218.189,15,o),
(187.874,-10,o),
(137.874,-10,cs),
(87.874,-10,o),
(68.189,15,o),
(78.819,65,cs)
);
}
);
width = 600;
},
{
layerId = "A3C04AAB-708A-4E7C-A386-00C8304CC3CD";
shapes = (
{
closed = 1;
nodes = (
(239.757,695,ls),
(246.135,725,o),
(264.324,740,o),
(294.324,740,cs),
(324.324,740,o),
(336.135,725,o),
(329.757,695,cs),
(274.694,436,ls),
(272.78,427,o),
(279.355,425,o),
(285.843,432,cs),
(555.371,712,ls),
(574.411,731,o),
(594.324,740,o),
(617.324,740,cs),
(637.324,740,o),
(671.497,722,o),
(634.418,684,cs),
(394.694,436,ls),
(384.355,425,o),
(381.229,415,o),
(385.678,403,cs),
(524.843,51,ls),
(541.126,10,o),
(513.874,-10,o),
(476.874,-10,cs),
(452.874,-10,o),
(438,0,o),
(430.252,20,cs),
(307.607,318,ls),
(303.158,330,o),
(296.158,330,o),
(285.819,319,cs),
(254.804,286,ls),
(244.465,275,o),
(237.914,263,o),
(235.15,250,cs),
(189.441,35,ls),
(183.063,5,o),
(164.874,-10,o),
(134.874,-10,cs),
(104.874,-10,o),
(93.063,5,o),
(99.441,35,cs)
);
}
);
width = 600;
},
{
layerId = "D6017CDA-DCCB-46D4-A8A1-3FBBF500E309";
shapes = (
{
closed = 1;
nodes = (
(262.009,715,ls),
(265.623,732,o),
(275.324,740,o),
(292.324,740,cs),
(309.324,740,o),
(315.623,732,o),
(312.009,715,cs),
(237.599,365,ls),
(236.323,359,o),
(242.111,358,o),
(245.961,362,cs),
(595.71,723,ls),
(609.686,737,o),
(620.324,740,o),
(637.324,740,cs),
(651.324,740,o),
(666.773,728,o),
(643.883,705,cs),
(382.119,438,ls),
(374.418,430,o),
(371.717,422,o),
(374.804,413,cs),
(525.315,25,ls),
(534.425,2,o),
(514.874,-10,o),
(497.874,-10,cs),
(484.874,-10,o),
(475.937,-5,o),
(471.488,7,cs),
(330.237,368,ls),
(327.15,377,o),
(321.15,377,o),
(313.449,369,cs),
(228.741,281,ls),
(221.04,273,o),
(216.126,264,o),
(214.,254,cs),
(163.189,15,ls),
(159.575,-2,o),
(149.874,-10,o),
(132.874,-10,cs),
(115.874,-10,o),
(109.575,-2,o),
(113.189,15,cs)
);
}
);
width = 600;
}
);
unicode = 75;
},
{
color = (153, 254, 255, 255);
glyphname = L;
layers = (
{
layerId = "78C5E225-AB5C-450D-A6D0-D457B4E69ACE";
shapes = (
{
closed = 1;
nodes = (
(235,0,ls),
(155,0,o),
(123.504,40,o),
(140.512,120,cs),
(256.379,665,ls),
(267.009,715,o),
(297.324,740,o),
(347.324,740,cs),
(397.324,740,o),
(417.009,715,o),
(406.379,665,cs),
(306.457,195,ls),
(297.953,155,o),
(313.701,135,o),
(353.701,135,cs),
(521.701,135,ls),
(566.701,135,o),
(584.024,113,o),
(574.457,68,cs),
(564.89,23,o),
(537,0,o),
(492,0,cs)
);
}
);
width = 600;
},
{
layerId = "A3C04AAB-708A-4E7C-A386-00C8304CC3CD";
shapes = (
{
closed = 1;
nodes = (
(210,0,ls),
(156,0,o),
(135.528,26,o),
(147.008,80,cs),
(277.757,695,ls),
(284.135,725,o),
(302.324,740,o),
(332.324,740,cs),
(362.324,740,o),
(374.135,725,o),
(367.757,695,cs),
(247.638,130,ls),
(241.898,103,o),
(252.134,90,o),
(279.134,90,cs),
(524.134,90,ls),
(551.134,90,o),
(565.307,72,o),
(559.567,45,cs),
(553.827,18,o),
(532,0,o),
(505,0,cs)
);
}
);
width = 600;
},
{
layerId = "D6017CDA-DCCB-46D4-A8A1-3FBBF500E309";
shapes = (
{
closed = 1;
nodes = (
(200,0,ls),
(160,0,o),
(144.252,20,o),
(152.756,60,cs),
(292.009,715,ls),
(295.623,732,o),
(305.324,740,o),
(322.324,740,cs),
(339.324,740,o),
(345.623,732,o),
(342.009,715,cs),
(207.008,80,ls),
(202.756,60,o),
(210.63,50,o),
(230.63,50,cs),
(530.63,50,ls),
(545.63,50,o),
(553.504,40,o),
(550.315,25,cs),
(547.126,10,o),
(535,0,o),
(520,0,cs)
);
}
);
width = 600;
}
);
unicode = 76;
},
{
color = (153, 254, 255, 255);
glyphname = M;
layers = (
{
layerId = "78C5E225-AB5C-450D-A6D0-D457B4E69ACE";
shapes = (
{
closed = 1;
nodes = (
(572.756,60,ls),
(562.764,13,o),
(534.874,-10,o),
(487.874,-10,cs),
(440.874,-10,o),
(422.764,13,o),
(432.756,60,cs),
(528.426,510,ls),
(532.04,527,o),
(526.04,527,o),
(519.426,510,cs),
(435.355,298,ls),
(420.063,259,o),
(391.024,240,o),
(351.024,240,cs),
(311.024,240,o),
(290.063,259,o),
(291.355,298,cs),
(297.426,510,ls),
(297.828,526,o),
(292.04,527,o),
(288.426,510,cs),
(192.756,60,ls),
(182.764,13,o),
(154.874,-10,o),
(107.874,-10,cs),
(60.874,-10,o),
(42.764,13,o),
(52.756,60,cs),
(169.261,608,ls),
(187.97,696,o),
(241.324,740,o),
(309.324,740,cs),
(378.324,740,o),
(397.584,713,o),
(395.891,658,cs),
(389.709,469,ls),
(388.205,429,o),
(395.418,430,o),
(410.709,469,cs),
(483.891,658,ls),
(505.584,713,o),
(546.324,740,o),
(611.324,740,cs),
(673.324,740,o),
(707.97,696,o),
(690.536,614,cs)
);
}
);
width = 600;
},
{
layerId = "A3C04AAB-708A-4E7C-A386-00C8304CC3CD";
shapes = (
{
closed = 1;
nodes = (
(547.441,35,ls),
(541.063,5,o),
(522.874,-10,o),
(492.874,-10,cs),
(462.874,-10,o),
(451.063,5,o),
(457.441,35,cs),
(575.434,590,ls),
(580.111,612,o),
(574.111,612,o),
(562.434,590,cs),
(418.394,317,ls),
(405.079,292,o),
(385.528,280,o),
(359.528,280,cs),
(333.528,280,o),
(319.079,292,o),
(316.394,317,cs),
(288.434,590,ls),
(286.324,613,o),
(280.111,612,o),
(275.434,590,cs),
(157.441,35,ls),
(151.063,5,o),
(132.874,-10,o),
(102.874,-10,cs),
(72.874,-10,o),
(61.063,5,o),
(67.441,35,cs),
(199.253,655,ls),
(211.371,712,o),
(245.324,740,o),
(292.324,740,cs),
(338.324,740,o),
(360.497,722,o),
(362.631,685,cs),
(379.993,428,ls),
(381.465,402,o),
(389.465,402,o),
(401.993,428,cs),
(528.631,685,ls),
(546.497,722,o),
(576.324,740,o),
(622.324,740,cs),
(669.324,740,o),
(691.371,712,o),
(679.253,655,cs)
);
}
);
width = 600;
},
{
layerId = "D6017CDA-DCCB-46D4-A8A1-3FBBF500E309";
shapes = (
{
closed = 1;
nodes = (
(513.189,15,ls),
(509.575,-2,o),
(499.874,-10,o),
(482.874,-10,cs),
(465.874,-10,o),
(459.575,-2,o),
(463.189,15,cs),
(596.064,640,ls),
(600.316,660,o),
(594.316,660,o),
(583.064,640,cs),
(404.182,316,ls),
(394.355,298,o),
(380.654,290,o),
(361.654,290,cs),
(342.654,290,o),
(332.355,298,o),
(330.182,316,cs),
(289.064,640,ls),
(286.529,661,o),
(280.103,659,o),
(276.064,640,cs),
(143.189,15,ls),
(139.575,-2,o),
(129.874,-10,o),
(112.874,-10,cs),
(95.874,-10,o),
(89.575,-2,o),
(93.189,15,cs),
(237.119,692,ls),
(243.922,724,o),
(263.324,740,o),
(295.324,740,cs),
(319.324,740,o),
(331.985,729,o),
(335.096,706,cs),
(371.575,379,ls),
(373.536,360,o),
(379.536,360,o),
(389.575,379,cs),
(565.096,706,ls),
(577.985,729,o),
(595.324,740,o),
(619.324,740,cs),
(651.324,740,o),
(663.922,724,o),
(657.119,692,cs)
);
}
);
width = 600;
}
);
unicode = 77;
},
{
color = (153, 254, 255, 255);
glyphname = N;
layers = (
{
layerId = "78C5E225-AB5C-450D-A6D0-D457B4E69ACE";
shapes = (
{
closed = 1;
nodes = (
(183.725,629,ls),
(199.458,703,o),
(244.324,740,o),
(318.324,740,cs),
(368.324,740,o),
(393.222,716,o),
(399.229,669,cs),
(451.024,240,ls),
(451.174,236,o),
(452.748,234,o),
(455.748,234,cs),
(458.748,234,o),
(460.174,236,o),
(461.024,240,cs),
(552.442,670,ls),
(562.434,717,o),
(590.324,740,o),
(637.324,740,cs),
(684.324,740,o),
(702.434,717,o),
(692.442,670,cs),
(571.473,101,ls),
(555.74,27,o),
(510.874,-10,o),
(436.874,-10,cs),
(386.874,-10,o),
(361.976,14,o),
(355.969,61,cs),
(304.174,490,ls),
(304.024,494,o),
(302.45,496,o),
(299.45,496,cs),
(296.45,496,o),
(295.024,494,o),
(294.174,490,cs),
(202.756,60,ls),
(192.764,13,o),
(164.874,-10,o),
(117.874,-10,cs),
(70.874,-10,o),
(52.764,13,o),
(62.756,60,cs)
);
}
);
width = 600;
},
{
layerId = "A3C04AAB-708A-4E7C-A386-00C8304CC3CD";
shapes = (
{
closed = 1;
nodes = (
(220.741,662,ls),
(231.796,714,o),
(263.324,740,o),
(315.324,740,cs),
(350.324,740,o),
(367.71,723,o),
(372.694,690,cs),
(452.89,150,ls),
(453.04,146,o),
(453.614,144,o),
(456.614,144,cs),
(459.614,144,o),
(461.04,146,o),
(461.89,150,cs),
(577.757,695,ls),
(584.135,725,o),
(602.324,740,o),
(632.324,740,cs),
(662.324,740,o),
(674.135,725,o),
(667.757,695,cs),
(534.457,68,ls),
(523.402,16,o),
(491.874,-10,o),
(439.874,-10,cs),
(404.874,-10,o),
(387.488,7,o),
(382.504,40,cs),
(302.308,580,ls),
(302.158,584,o),
(301.584,586,o),
(298.584,586,cs),
(295.584,586,o),
(294.158,584,o),
(293.308,580,cs),
(177.441,35,ls),
(171.063,5,o),
(152.874,-10,o),
(122.874,-10,cs),
(92.874,-10,o),
(81.063,5,o),
(87.441,35,cs)
);
}
);
width = 600;
},
{
layerId = "D6017CDA-DCCB-46D4-A8A1-3FBBF500E309";
shapes = (
{
closed = 1;
nodes = (
(257.332,693,ls),
(263.922,724,o),
(283.324,740,o),
(314.324,740,cs),
(338.324,740,o),
(350.985,729,o),
(354.308,707,cs),
(447.008,80,ls),
(447.158,76,o),
(448.732,74,o),
(451.732,74,cs),
(454.732,74,o),
(456.158,76,o),
(457.008,80,cs),
(592.009,715,ls),
(595.623,732,o),
(605.324,740,o),
(622.324,740,cs),
(639.324,740,o),
(645.623,732,o),
(642.009,715,cs),
(497.866,37,ls),
(491.276,6,o),
(471.874,-10,o),
(440.874,-10,cs),
(416.874,-10,o),
(404.213,1,o),
(400.89,23,cs),
(308.19,650,ls),
(308.04,654,o),
(306.466,656,o),
(303.466,656,cs),
(300.466,656,o),
(299.04,654,o),
(298.19,650,cs),
(163.189,15,ls),
(159.575,-2,o),
(149.874,-10,o),
(132.874,-10,cs),
(115.874,-10,o),
(109.575,-2,o),
(113.189,15,cs)
);
}
);
width = 600;
}
);
unicode = 78;
},
{
color = (153, 254, 255, 255);
glyphname = O;
layers = (
{
layerId = "78C5E225-AB5C-450D-A6D0-D457B4E69ACE";
shapes = (
{
closed = 1;
nodes = (
(419.449,115,o),
(465.166,283,o),
(482.599,365,cs),
(500.245,448,o),
(525.749,615,o),
(430.749,615,cs),
(336.749,615,o),
(290.032,447,o),
(272.599,365,cs),
(255.166,283,o),
(230.449,115,o),
(324.449,115,cs)
);
},
{
closed = 1;
nodes = (
(82.874,-10,o),
(89.221,208,o),
(122.599,365,cs),
(155.977,522,o),
(239.324,740,o),
(457.324,740,cs),
(673.324,740,o),
(666.402,524,o),
(633.875,371,cs),
(599.221,208,o),
(511.874,-10,o),
(297.874,-10,cs)
);
}
);
width = 600;
},
{
layerId = "A3C04AAB-708A-4E7C-A386-00C8304CC3CD";
shapes = (
{
closed = 1;
nodes = (
(445.008,80,o),
(504.615,271,o),
(525.024,367,cs),
(544.796,460,o),
(567.19,650,o),
(438.19,650,cs),
(309.19,650,o),
(250.583,459,o),
(230.812,366,cs),
(210.615,271,o),
(189.008,80,o),
(317.008,80,cs)
);
},
{
closed = 1;
nodes = (
(97.874,-10,o),
(107.221,208,o),
(141.024,367,cs),
(173.977,522,o),
(255.324,740,o),
(457.324,740,cs),
(658.324,740,o),
(648.402,524,o),
(615.237,368,cs),
(581.221,208,o),
(496.874,-10,o),
(297.874,-10,cs)
);
}
);
width = 600;
},
{
layerId = "D6017CDA-DCCB-46D4-A8A1-3FBBF500E309";
shapes = (
{
closed = 1;
nodes = (
(461.504,40,o),
(535.276,260,o),
(558.024,367,cs),
(580.347,472,o),
(600.694,690,o),
(446.694,690,cs),
(292.694,690,o),
(219.922,470,o),
(197.599,365,cs),
(175.276,260,o),
(155.504,40,o),
(308.504,40,cs)
);
},
{
closed = 1;
nodes = (
(103.874,-10,o),
(114.221,208,o),
(148.024,367,cs),
(180.977,522,o),
(261.324,740,o),
(457.324,740,cs),
(653.324,740,o),
(641.402,524,o),
(608.449,369,cs),
(574.221,208,o),
(490.874,-10,o),
(297.874,-10,cs)
);
}
);
width = 600;
}
);
unicode = 79;
},
{
color = (153, 254, 255, 255);
glyphname = OE;
layers = (
{
layerId = "78C5E225-AB5C-450D-A6D0-D457B4E69ACE";
shapes = (
{
closed = 1;
nodes = (
(319,115,o),
(365,283,o),
(383,365,cs),
(400,448,o),
(426,615,o),
(351,615,cs),
(277,615,o),
(230,447,o),
(213,365,cs),
(195,283,o),
(170,115,o),
(244,115,cs)
);
},
{
closed = 1;
nodes = (
(23,-10,o),
(29,208,o),
(63,365,cs),
(96,522,o),
(182,740,o),
(377,740,cs),
(576,740,o),
(566,524,o),
(533,365,cs),
(499,208,o),
(412,-10,o),
(218,-10,cs)
);
},
{
closed = 1;
nodes = (
(265,0,l),
(383,130,l),
(578,130,ls),
(622,130,o),
(638,109,o),
(629,65,cs),
(619,21,o),
(594,0,o),
(550,0,cs)
);
},
{
closed = 1;
nodes = (
(410,308,l),
(439,440,l),
(612,440,ls),
(654,440,o),
(673,417,o),
(664,375,cs),
(655,333,o),
(625,308,o),
(583,308,cs)
);
},
{
closed = 1;
nodes = (
(483,600,l),
(420,730,l),
(705,730,ls),
(749,730,o),
(766,709,o),
(756,665,cs),
(747,621,o),
(722,600,o),
(678,600,cs)
);
}
);
width = 600;
},
{
layerId = "A3C04AAB-708A-4E7C-A386-00C8304CC3CD";
shapes = (
{
closed = 1;
nodes = (
(345,80,o),
(405,271,o),
(425,365,cs),
(445,460,o),
(467,650,o),
(358,650,cs),
(249,650,o),
(191,459,o),
(171,365,cs),
(151,271,o),
(129,80,o),
(237,80,cs)
);
},
{
closed = 1;
nodes = (
(38,-10,o),
(47,208,o),
(81,365,cs),
(114,522,o),
(197,740,o),
(377,740,cs),
(560,740,o),
(548,524,o),
(515,365,cs),
(481,208,o),
(397,-10,o),
(218,-10,cs)
);
},
{
closed = 1;
nodes = (
(260,0,l),
(329,90,l),
(578,90,ls),
(605,90,o),
(615,72,o),
(610,45,cs),
(604,18,o),
(586,0,o),
(559,0,cs)
);
},
{
closed = 1;
nodes = (
(457,337,l),
(476,427,l),
(616,427,ls),
(643,427,o),
(657,409,o),
(651,382,cs),
(645,355,o),
(624,337,o),
(597,337,cs)
);
},
{
closed = 1;
nodes = (
(446,640,l),
(415,730,l),
(714,730,ls),
(741,730,o),
(751,712,o),
(746,685,cs),
(740,658,o),
(722,640,o),
(695,640,cs)
);
}
);
width = 600;
},
{
layerId = "D6017CDA-DCCB-46D4-A8A1-3FBBF500E309";
shapes = (
{
closed = 1;
nodes = (
(362,40,o),
(429,260,o),
(452,365,cs),
(474,472,o),
(501,690,o),
(367,690,cs),
(233,690,o),
(166,470,o),
(144,365,cs),
(121,260,o),
(96,40,o),
(229,40,cs)
);
},
{
closed = 1;
nodes = (
(44,-10,o),
(60,208,o),
(94,365,cs),
(127,522,o),
(203,740,o),
(377,740,cs),
(555,740,o),
(535,524,o),
(502,365,cs),
(468,208,o),
(391,-10,o),
(218,-10,cs)
);
},
{
closed = 1;
nodes = (
(270,0,l),
(296,50,l),
(578,50,ls),
(593,50,o),
(599,40,o),
(595,25,cs),
(592,10,o),
(582,0,o),
(567,0,cs)
);
},
{
closed = 1;
nodes = (
(476,356,l),
(486,406,l),
(619,406,ls),
(634,406,o),
(639,396,o),
(636,381,cs),
(633,366,o),
(624,356,o),
(609,356,cs)
);
},
{
closed = 1;
nodes = (
(430,680,l),
(425,730,l),
(722,730,ls),
(737,730,o),
(743,720,o),
(740,705,cs),
(737,690,o),
(727,680,o),
(712,680,cs)
);
}
);
width = 600;
}
);
unicode = 338;
},
{
color = (153, 254, 255, 255);
glyphname = P;
layers = (
{
layerId = "AF231975-8591-4A9E-9633-127BEEE6582E";
name = "#instance";
shapes = (
{
closed = 1;
nodes = (
(230.19,650,ls),
(241.67,704,o),
(273.198,730,o),
(327.198,730,cs),
(482.198,730,ls),
(550.198,730,o),
(638.93,677,o),
(675.647,591,o),
(661.615,525,qs),
(647.796,460,o),
(574.3,373,o),
(463.032,320,o),
(395.032,320,qs),
(275.032,320,ls),
(258.032,320,o),
(248.331,312,o),
(244.717,295,cs),
(189.441,35,ls),
(183.063,5,o),
(164.874,-10,o),
(134.874,-10,cs),
(104.874,-10,o),
(93.063,5,o),
(99.441,35,cs)
);
},
{
closed = 1;
nodes = (
(274.481,435,ls),
(270.867,418,o),
(277.166,410,o),
(294.166,410,cs),
(414.166,410,ls),
(473.166,410,o),
(557.56,473,o),
(568.615,525,qs),
(579.883,578,o),
(522.064,640,o),
(463.064,640,qs),
(358.064,640,ls),
(331.064,640,o),
(315.3,627,o),
(309.56,600,cs)
);
}
);
width = 600;
},
{
layerId = "78C5E225-AB5C-450D-A6D0-D457B4E69ACE";
shapes = (
{
closed = 1;
nodes = (
(199.938,630,ls),
(214.182,697,o),
(254.198,730,o),
(321.198,730,cs),
(470.198,730,ls),
(547.198,730,o),
(649.867,672,o),
(692.883,578,o),
(678.001,508,qs),
(663.331,439,o),
(579.134,344,o),
(452.804,286,o),
(375.804,286,qs),
(301.804,286,ls),
(284.804,286,o),
(275.103,278,o),
(271.489,261,cs),
(229.819,65,ls),
(219.189,15,o),
(187.874,-10,o),
(137.874,-10,cs),
(87.874,-10,o),
(69.189,15,o),
(79.819,65,cs)
);
},
{
closed = 1;
nodes = (
(309.757,441,ls),
(306.142,424,o),
(312.442,416,o),
(329.442,416,cs),
(403.442,416,ls),
(451.442,416,o),
(518.646,464,o),
(528.001,508,qs),
(537.355,552,o),
(490.56,600,o),
(442.56,600,qs),
(393.56,600,ls),
(360.56,600,o),
(339.946,583,o),
(332.93,550,cs)
);
}
);
width = 600;
},
{
layerId = "A3C04AAB-708A-4E7C-A386-00C8304CC3CD";
shapes = (
{
closed = 1;
nodes = (
(230.19,650,ls),
(241.67,704,o),
(273.198,730,o),
(327.198,730,cs),
(482.198,730,ls),
(550.198,730,o),
(638.93,677,o),
(675.647,591,o),
(661.615,525,qs),
(647.796,460,o),
(574.3,373,o),
(463.032,320,o),
(395.032,320,qs),
(275.032,320,ls),
(258.032,320,o),
(248.331,312,o),
(244.717,295,cs),
(189.441,35,ls),
(183.063,5,o),
(164.874,-10,o),
(134.874,-10,cs),
(104.874,-10,o),
(93.063,5,o),
(99.441,35,cs)
);
},
{
closed = 1;
nodes = (
(274.481,435,ls),
(270.867,418,o),
(277.166,410,o),
(294.166,410,cs),
(414.166,410,ls),
(473.166,410,o),
(557.56,473,o),
(568.615,525,qs),
(579.883,578,o),
(522.064,640,o),
(463.064,640,qs),
(358.064,640,ls),
(331.064,640,o),
(315.3,627,o),
(309.56,600,cs)
);
}
);
width = 600;
},
{
layerId = "D6017CDA-DCCB-46D4-A8A1-3FBBF500E309";
shapes = (
{
closed = 1;
nodes = (
(252.442,670,ls),
(260.946,710,o),
(285.198,730,o),
(325.198,730,cs),
(480.198,730,ls),
(544.198,730,o),
(627.568,680,o),
(662.347,599,o),
(649.166,537,qs),
(636.198,476,o),
(566.764,394,o),
(462.134,344,o),
(398.134,344,qs),
(253.134,344,ls),
(240.134,344,o),
(231.646,337,o),
(228.882,324,cs),
(163.189,15,ls),
(159.575,-2,o),
(149.874,-10,o),
(132.874,-10,cs),
(115.874,-10,o),
(109.575,-2,o),
(113.189,15,cs)
);
},
{
closed = 1;
nodes = (
(248.016,414,ls),
(245.253,401,o),
(250.764,394,o),
(263.764,394,cs),
(408.764,394,ls),
(481.764,394,o),
(584.709,469,o),
(599.166,537,qs),
(613.836,606,o),
(543.568,680,o),
(469.568,680,qs),
(334.568,680,ls),
(314.568,680,o),
(302.442,670,o),
(298.19,650,cs)
);
}
);
width = 600;
}
);
unicode = 80;
},
{
color = (153, 254, 255, 255);
glyphname = Thorn;
layers = (
{
layerId = "78C5E225-AB5C-450D-A6D0-D457B4E69ACE";
shapes = (
{
closed = 1;
nodes = (
(95,0,o),
(75,25,o),
(86,75,cs),
(209,655,ls),
(220,705,o),
(250,730,o),
(300,730,cs),
(350,730,o),
(370,705,o),
(359,655,cs),
(352,620,ls),
(348,603,o),
(354,595,o),
(371,595,cs),
(466,595,ls),
(538,595,o),
(631,544,o),
(665,448,o),
(651,380,qs),
(630,280,o),
(482,165,o),
(375,165,qs),
(280,165,ls),
(263,165,o),
(253,157,o),
(250,140,cs),
(236,75,ls),
(225,25,o),
(195,0,o),
(145,0,cs)
);
},
{
closed = 1;
nodes = (
(287,315,ls),
(283,298,o),
(290,290,o),
(307,290,cs),
(377,290,ls),
(428,290,o),
(492,337,o),
(501,380,qs),
(510,424,o),
(466,470,o),
(415,470,qs),
(345,470,ls),
(328,470,o),
(318,462,o),
(315,445,cs)
);
}
);
width = 600;
},
{
layerId = "A3C04AAB-708A-4E7C-A386-00C8304CC3CD";
shapes = (
{
closed = 1;
nodes = (
(105,0,o),
(93,15,o),
(100,45,cs),
(236,685,ls),
(242,715,o),
(260,730,o),
(290,730,cs),
(320,730,o),
(332,715,o),
(326,685,cs),
(308,600,ls),
(305,587,o),
(310,580,o),
(323,580,cs),
(456,580,ls),
(522,580,o),
(609,530,o),
(644,440,o),
(631,380,qs),
(611,289,o),
(470,180,o),
(371,180,qs),
(238,180,ls),
(225,180,o),
(217,173,o),
(214,160,cs),
(190,45,ls),
(183,15,o),
(165,0,o),
(135,0,cs)
);
},
{
closed = 1;
nodes = (
(240,280,ls),
(237,267,o),
(242,260,o),
(255,260,cs),
(388,260,ls),
(446,260,o),
(526,325,o),
(538,380,qs),
(550,436,o),
(496,500,o),
(439,500,qs),
(306,500,ls),
(293,500,o),
(285,493,o),
(282,480,cs)
);
}
);
width = 600;
},
{
layerId = "D6017CDA-DCCB-46D4-A8A1-3FBBF500E309";
shapes = (
{
closed = 1;
nodes = (
(113,0,o),
(107,8,o),
(110,25,cs),
(255,705,ls),
(258,722,o),
(268,730,o),
(285,730,cs),
(302,730,o),
(308,722,o),
(305,705,cs),
(278,580,ls),
(276,570,o),
(280,565,o),
(290,565,cs),
(453,565,ls),
(514,565,o),
(593,520,o),
(623,437,o),
(611,380,qs),
(593,295,o),
(465,195,o),
(374,195,qs),
(211,195,ls),
(201,195,o),
(195,190,o),
(193,180,cs),
(160,25,ls),
(157,8,o),
(147,0,o),
(130,0,cs)
);
},
{
closed = 1;
nodes = (
(209,256,ls),
(207,246,o),
(211,241,o),
(221,241,cs),
(384,241,ls),
(452,241,o),
(547,316,o),
(561,380,qs),
(575,445,o),
(512,520,o),
(444,520,qs),
(281,520,ls),
(271,520,o),
(264,515,o),
(262,505,cs)
);
}
);
width = 600;
}
);
unicode = 222;
},
{
color = (153, 254, 255, 255);
glyphname = Q;
layers = (
{
layerId = "78C5E225-AB5C-450D-A6D0-D457B4E69ACE";
shapes = (
{
closed = 1;
nodes = (
(419,115,o),
(465,283,o),
(483,365,cs),
(500,448,o),
(526,615,o),
(431,615,cs),
(337,615,o),
(290,447,o),
(273,365,cs),
(255,283,o),
(230,115,o),
(324,115,cs)
);
},
{
closed = 1;
nodes = (
(83,-10,o),
(89,208,o),
(123,365,cs),
(156,522,o),
(239,740,o),
(457,740,cs),
(673,740,o),
(666,524,o),
(634,371,cs),
(599,208,o),
(512,-10,o),
(298,-10,cs)
);
},
{
closed = 1;
nodes = (
(270,-177,ls),
(242,-168,o),
(229,-151,o),
(235,-124,cs),
(236,-117,o),
(239,-109,o),
(244,-100,cs),
(258,-69,o),
(280,-53,o),
(306,-53,cs),
(313,-53,o),
(321,-54,o),
(328,-56,cs),
(479,-102,ls),
(508,-111,o),
(522,-128,o),
(516,-156,cs),
(514,-163,o),
(512,-171,o),
(507,-180,cs),
(492,-211,o),
(471,-227,o),
(446,-227,cs),
(440,-227,o),
(435,-227,o),
(421,-223,cs)
);
}
);
width = 600;
},
{
layerId = "A3C04AAB-708A-4E7C-A386-00C8304CC3CD";
shapes = (
{
closed = 1;
nodes = (
(445,80,o),
(505,271,o),
(525,367,cs),
(545,460,o),
(567,650,o),
(438,650,cs),
(309,650,o),
(251,459,o),
(231,366,cs),
(211,271,o),
(189,80,o),
(317,80,cs)
);
},
{
closed = 1;
nodes = (
(98,-10,o),
(107,208,o),
(141,367,cs),
(174,522,o),
(255,740,o),
(457,740,cs),
(658,740,o),
(648,524,o),
(615,368,cs),
(581,208,o),
(497,-10,o),
(298,-10,cs)
);
},
{
closed = 1;
nodes = (
(267,-154,ls),
(246,-148,o),
(237,-136,o),
(241,-117,cs),
(242,-112,o),
(245,-105,o),
(248,-99,cs),
(259,-76,o),
(274,-65,o),
(291,-65,cs),
(296,-65,o),
(299,-66,o),
(302,-67,cs),
(472,-113,ls),
(494,-119,o),
(503,-132,o),
(499,-152,cs),
(498,-157,o),
(495,-163,o),
(492,-169,cs),
(481,-192,o),
(466,-202,o),
(447,-202,cs),
(442,-202,o),
(436,-202,o),
(430,-200,cs)
);
}
);
width = 600;
},
{
layerId = "D6017CDA-DCCB-46D4-A8A1-3FBBF500E309";
shapes = (
{
closed = 1;
nodes = (
(462,40,o),
(535,260,o),
(558,367,cs),
(580,472,o),
(601,690,o),
(447,690,cs),
(293,690,o),
(220,470,o),
(198,365,cs),
(175,260,o),
(156,40,o),
(309,40,cs)
);
},
{
closed = 1;
nodes = (
(104,-10,o),
(114,208,o),
(148,367,cs),
(181,522,o),
(261,740,o),
(457,740,cs),
(653,740,o),
(641,524,o),
(608,369,cs),
(574,208,o),
(491,-10,o),
(298,-10,cs)
);
},
{
closed = 1;
nodes = (
(265,-124,ls),
(252,-121,o),
(249,-114,o),
(251,-104,cs),
(252,-101,o),
(252,-97,o),
(254,-92,cs),
(260,-81,o),
(268,-75,o),
(279,-75,cs),
(282,-75,o),
(285,-75,o),
(288,-76,cs),
(470,-127,ls),
(482,-130,o),
(486,-139,o),
(484,-150,cs),
(483,-153,o),
(483,-156,o),
(481,-160,cs),
(475,-172,o),
(467,-177,o),
(456,-177,cs),
(453,-177,o),
(449,-177,o),
(447,-176,cs)
);
}
);
width = 600;
}
);
unicode = 81;
},
{
color = (153, 254, 255, 255);
glyphname = R;
layers = (
{
layerId = "78C5E225-AB5C-450D-A6D0-D457B4E69ACE";
shapes = (
{
closed = 1;
nodes = (
(87.874,-10,o),
(68.976,14,o),
(79.606,64,cs),
(199.938,630,ls),
(214.182,697,o),
(254.198,730,o),
(322.198,730,cs),
(456.198,730,ls),
(533.198,730,o),
(635.718,676,o),
(678.095,579,o),
(665.339,519,qs),
(650.67,450,o),
(598.339,392,qs),
(565.473,355,o),
(528.434,336,qs),
(510.52,327,o),
(502.819,319,o),
(501.119,311,cs),
(500.268,307,o),
(501.205,302,o),
(502.355,298,cs),
(561.284,86,ls),
(567.606,64,o),
(568.78,46,o),
(565.803,32,cs),
(559.85,4,o),
(535.874,-10,o),
(493.874,-10,cs),
(447.874,-10,o),
(423.276,6,o),
(415.079,38,cs),
(354.252,274,ls),
(350.441,289,o),
(340.93,296,o),
(323.93,296,cs),
(303.93,296,ls),
(286.93,296,o),
(277.229,288,o),
(273.615,271,cs),
(229.606,64,ls),
(218.976,14,o),
(189.874,-10,o),
(138.874,-10,cs)
);
},
{
closed = 1;
nodes = (
(311.883,451,ls),
(308.268,434,o),
(314.568,426,o),
(331.568,426,cs),
(391.568,426,ls),
(440.568,426,o),
(504.072,466,o),
(513.639,511,qs),
(523.631,558,o),
(477.56,600,o),
(428.56,600,qs),
(392.56,600,ls),
(359.56,600,o),
(339.946,583,o),
(332.93,550,cs)
);
}
);
width = 600;
},
{
layerId = "A3C04AAB-708A-4E7C-A386-00C8304CC3CD";
shapes = (
{
closed = 1;
nodes = (
(105.874,-10,o),
(94.063,5,o),
(100.441,35,cs),
(231.19,650,ls),
(242.67,704,o),
(274.198,730,o),
(328.198,730,cs),
(473.198,730,ls),
(538.198,730,o),
(624.93,677,o),
(661.072,593,o),
(649.166,537,qs),
(636.41,477,o),
(591.505,421,qs),
(549.237,368,o),
(503.835,352,qs),
(484.347,345,o),
(476.646,337,o),
(474.945,329,cs),
(474.095,325,o),
(474.245,321,o),
(475.394,317,cs),
(549.205,48,ls),
(552.441,35,o),
(554.315,25,o),
(552.402,16,cs),
(548.787,-1,o),
(532.874,-10,o),
(506.874,-10,cs),
(479.874,-10,o),
(465.787,-1,o),
(460.039,19,cs),
(380.481,308,ls),
(376.67,323,o),
(365.158,330,o),
(348.158,330,cs),
(277.158,330,ls),
(260.158,330,o),
(250.457,322,o),
(246.843,305,cs),
(189.441,35,ls),
(183.063,5,o),
(165.874,-10,o),
(135.874,-10,cs)
);
},
{
closed = 1;
nodes = (
(276.607,445,ls),
(272.993,428,o),
(279.292,420,o),
(296.292,420,cs),
(407.292,420,ls),
(463.292,420,o),
(544.261,481,o),
(554.678,530,qs),
(565.308,580,o),
(510.064,640,o),
(454.064,640,qs),
(358.064,640,ls),
(331.064,640,o),
(315.3,627,o),
(309.56,600,cs)
);
}
);
width = 600;
},
{
layerId = "D6017CDA-DCCB-46D4-A8A1-3FBBF500E309";
shapes = (
{
closed = 1;
nodes = (
(115.874,-10,o),
(109.575,-2,o),
(113.189,15,cs),
(252.442,670,ls),
(260.946,710,o),
(285.198,730,o),
(325.198,730,cs),
(470.198,730,ls),
(535.198,730,o),
(618.781,681,o),
(652.985,602,o),
(641.505,548,qs),
(627.261,481,o),
(577.355,425,qs),
(524.812,366,o),
(463.898,357,qs),
(447.473,355,o),
(440.623,351,o),
(439.134,344,cs),
(438.497,341,o),
(438.859,338,o),
(440.221,335,cs),
(535.315,25,ls),
(537.614,17,o),
(538.126,10,o),
(537.063,5,cs),
(534.937,-5,o),
(526.874,-10,o),
(511.874,-10,cs),
(494.874,-10,o),
(485.15,-4,o),
(481.701,8,cs),
(385.583,332,ls),
(382.134,344,o),
(372.41,350,o),
(359.41,350,cs),
(254.41,350,ls),
(241.41,350,o),
(232.922,343,o),
(230.158,330,cs),
(163.189,15,ls),
(159.575,-2,o),
(149.874,-10,o),
(132.874,-10,cs)
);
},
{
closed = 1;
nodes = (
(249.292,420,ls),
(246.528,407,o),
(252.04,400,o),
(265.04,400,cs),
(400.04,400,ls),
(473.04,400,o),
(575.985,475,o),
(589.804,540,qs),
(604.048,607,o),
(532.568,680,o),
(459.568,680,qs),
(334.568,680,ls),
(314.568,680,o),
(302.442,670,o),
(298.19,650,cs)
);
}
);
width = 600;
}
);
unicode = 82;
},
{
color = (153, 254, 255, 255);
glyphname = S;
layers = (
{
layerId = "AF231975-8591-4A9E-9633-127BEEE6582E";
name = "#instance";
shapes = (
{
closed = 1;
nodes = (
(110.118,184,o),
(128.52,200,o),
(159.52,200,cs),
(186.52,200,o),
(197.756,187,o),
(200.953,155,cs),
(203.575,125,o),
(223.323,105,qs),
(255.095,71,o),
(318.882,70,q),
(380.882,70,o),
(470.189,142,o),
(482.52,200,qs),
(491.874,244,o),
(458.693,309,o),
(417.245,321,qs),
(312.835,352,ls),
(248.087,372,o),
(190.985,475,o),
(205.867,545,qs),
(218.198,603,o),
(288.907,691,o),
(393.324,740,o),
(454.324,740,qs),
(516.324,740,o),
(601.119,692,o),
(618.765,648,qs),
(628.45,623,o),
(628.859,592,qs),
(628.906,564,o),
(611.292,547,o),
(579.292,547,cs),
(553.292,547,o),
(541.631,558,o),
(535.647,591,cs),
(532.324,613,o),
(517.725,629,qs),
(490.529,661,o),
(437.316,660,q),
(384.316,660,o),
(304.922,597,o),
(294.292,547,qs),
(285.788,507,o),
(316.67,450,o),
(353.331,439,qs),
(460.528,407,ls),
(529.276,387,o),
(586.678,276,o),
(570.52,200,qs),
(556.914,136,o),
(481.929,42,o),
(369.874,-10,o),
(301.874,-10,qs),
(231.874,-10,o),
(138.717,41,o),
(119.709,88,qs),
(108.087,118,o),
(108.953,155,qs)
);
}
);
width = 600;
},
{
layerId = "78C5E225-AB5C-450D-A6D0-D457B4E69ACE";
shapes = (
{
closed = 1;
nodes = (
(77.142,170,o),
(118.646,210,o),
(188.646,210,cs),
(211.646,210,o),
(225.882,197,o),
(240.654,163,cs),
(245.528,153,o),
(253.827,145,qs),
(278.725,121,o),
(327.512,120,qs),
(376.512,120,o),
(441.504,167,o),
(449.796,206,qs),
(456.386,237,o),
(430.804,286,o),
(397.504,294,qs),
(312.969,315,ls),
(231.221,335,o),
(154.67,450,o),
(171.678,530,qs),
(185.497,595,o),
(262.481,689,o),
(380.324,740,o),
(453.324,740,qs),
(527.324,740,o),
(624.481,689,o),
(643.489,642,qs),
(645.788,634,o),
(648.088,626,qs),
(663.607,572,o),
(622.891,531,o),
(551.891,531,cs),
(531.891,531,o),
(516.08,546,o),
(499.883,578,cs),
(496.371,585,o),
(490.647,591,qs),
(470.324,613,o),
(426.111,612,qs),
(383.111,612,o),
(326.182,570,o),
(318.741,535,qs),
(312.576,506,o),
(340.922,470,o),
(372.221,462,qs),
(459.757,441,ls),
(541.717,422,o),
(615.717,295,o),
(596.796,206,qs),
(582.977,141,o),
(501.142,43,o),
(376.874,-10,o),
(299.874,-10,qs),
(222.874,-10,o),
(120.567,45,o),
(98.984,94,qs),
(95.323,105,o),
(91.449,115,qs)
);
}
);
width = 600;
},
{
layerId = "A3C04AAB-708A-4E7C-A386-00C8304CC3CD";
shapes = (
{
closed = 1;
nodes = (
(110.118,184,o),
(128.52,200,o),
(159.52,200,cs),
(186.52,200,o),
(197.756,187,o),
(200.953,155,cs),
(203.575,125,o),
(223.323,105,qs),
(255.095,71,o),
(318.882,70,qs),
(380.882,70,o),
(470.189,142,o),
(482.52,200,qs),
(491.874,244,o),
(458.693,309,o),
(417.245,321,qs),
(312.835,352,ls),
(248.087,372,o),
(190.985,475,o),
(205.867,545,qs),
(218.198,603,o),
(288.907,691,o),
(393.324,740,o),
(454.324,740,qs),
(516.324,740,o),
(601.119,692,o),
(618.765,648,qs),
(628.45,623,o),
(628.859,592,qs),
(628.906,564,o),
(611.292,547,o),
(579.292,547,cs),
(553.292,547,o),
(541.631,558,o),
(535.647,591,cs),
(532.324,613,o),
(517.725,629,qs),
(490.529,661,o),
(437.316,660,qs),
(384.316,660,o),
(304.922,597,o),
(294.292,547,qs),
(285.788,507,o),
(316.67,450,o),
(353.331,439,qs),
(460.528,407,ls),
(529.276,387,o),
(586.678,276,o),
(570.52,200,qs),
(556.914,136,o),
(481.929,42,o),
(369.874,-10,o),
(301.874,-10,qs),
(231.874,-10,o),
(138.717,41,o),
(119.709,88,qs),
(108.087,118,o),
(108.953,155,qs)
);
}
);
width = 600;
},
{
layerId = "D6017CDA-DCCB-46D4-A8A1-3FBBF500E309";
shapes = (
{
closed = 1;
nodes = (
(124.819,192,o),
(135.52,200,o),
(152.52,200,cs),
(168.52,200,o),
(174.032,193,o),
(172.418,176,cs),
(167.299,119,o),
(199.221,81,qs),
(237.441,35,o),
(312.441,35,qs),
(383.441,35,o),
(490.662,116,o),
(504.268,180,qs),
(516.599,238,o),
(473.095,325,o),
(423.497,341,qs),
(328.087,372,ls),
(266.339,392,o),
(208.961,489,o),
(222.993,555,qs),
(234.473,609,o),
(302.544,694,o),
(402.324,740,o),
(461.324,740,qs),
(520.324,740,o),
(599.907,691,o),
(615.552,647,qs),
(628.111,612,o),
(622.969,569,qs),
(621.568,553,o),
(611.867,545,o),
(594.867,545,cs),
(578.867,545,o),
(572.355,552,o),
(573.969,569,cs),
(579.025,621,o),
(552.253,655,qs),
(520.182,697,o),
(450.97,696,qs),
(384.97,696,o),
(285.387,618,o),
(272.843,559,qs),
(262.001,508,o),
(304.268,434,o),
(349.867,418,qs),
(445.064,386,ls),
(510.386,364,o),
(569.213,255,o),
(553.906,183,qs),
(541.788,126,o),
(470.291,39,o),
(365.874,-10,o),
(302.874,-10,qs),
(237.874,-10,o),
(150.354,44,o),
(132.347,91,qs),
(118.425,129,o),
(123.418,176,qs)
);
}
);
width = 600;
}
);
unicode = 83;
},
{
color = (153, 254, 255, 255);
glyphname = Germandbls;
layers = (
{
layerId = "78C5E225-AB5C-450D-A6D0-D457B4E69ACE";
shapes = (
{
closed = 1;
nodes = (
(83,0,o),
(64.89,23,o),
(74.457,68,cs),
(168.639,511,ls),
(198.615,652,o),
(316.198,730,o),
(451.198,730,cs),
(607.198,730,ls),
(670.198,730,o),
(694.607,699,o),
(681.214,636,cs),
(674.623,605,o),
(657.67,577,o),
(631.78,554,cs),
(522.371,458,ls),
(495.268,434,o),
(496.292,420,o),
(525.528,407,cs),
(596.725,375,o),
(623.843,305,o),
(604.709,215,cs),
(574.732,74,o),
(450.85,4,o),
(321,0,cs),
(279.787,-1,o),
(263.465,21,o),
(272.394,63,cs),
(280.898,103,o),
(302.937,122,o),
(348.213,128,cs),
(398.701,135,o),
(441.378,157,o),
(456.26,227,cs),
(469.867,291,o),
(442.756,314,o),
(400.67,323,cs),
(350.796,333,o),
(334.473,355,o),
(344.253,401,cs),
(349.568,426,o),
(362.032,447,o),
(382.859,465,cs),
(498.757,568,ls),
(527.072,593,o),
(524.623,605,o),
(490.623,605,cs),
(423.623,605,ls),
(365.623,605,o),
(316.395,571,o),
(303.639,511,cs),
(209.457,68,ls),
(199.89,23,o),
(173,0,o),
(128,0,cs)
);
}
);
width = 600;
},
{
layerId = "A3C04AAB-708A-4E7C-A386-00C8304CC3CD";
shapes = (
{
closed = 1;
nodes = (
(107,0,o),
(95.189,15,o),
(101.567,45,cs),
(203.402,524,ls),
(230.19,650,o),
(332.198,730,o),
(457.198,730,cs),
(625.198,730,ls),
(664.198,730,o),
(679.946,710,o),
(671.655,671,cs),
(667.403,651,o),
(658.788,634,o),
(643.387,618,cs),
(487.733,455,ls),
(468.268,434,o),
(470.142,424,o),
(495.654,417,cs),
(579.552,393,o),
(605.906,310,o),
(585.709,215,cs),
(553.394,63,o),
(439,0,o),
(299,0,cs),
(272,0,o),
(260.976,14,o),
(266.717,41,cs),
(272.457,68,o),
(288.433,82,o),
(316.646,83,cs),
(397.496,87,o),
(467.748,107,o),
(490.709,215,cs),
(510.906,310,o),
(463.434,336,o),
(394.922,343,cs),
(359.56,346,o),
(347.174,363,o),
(354.402,397,cs),
(358.016,414,o),
(366.418,430,o),
(379.394,444,cs),
(540.962,616,ls),
(561.639,638,o),
(558.765,648,o),
(531.765,648,cs),
(439.765,648,ls),
(363.765,648,o),
(309.347,599,o),
(293.402,524,cs),
(191.567,45,ls),
(185.189,15,o),
(167,0,o),
(137,0,cs)
);
}
);
width = 600;
},
{
layerId = "D6017CDA-DCCB-46D4-A8A1-3FBBF500E309";
shapes = (
{
closed = 1;
nodes = (
(118,0,o),
(111.701,8,o),
(115.315,25,cs),
(225.442,543,ls),
(250.316,660,o),
(345.198,730,o),
(460.198,730,cs),
(641.198,730,ls),
(662.198,730,o),
(670.072,720,o),
(665.607,699,cs),
(663.481,689,o),
(658.568,680,o),
(650.867,672,cs),
(425.631,431,ls),
(410.229,415,o),
(412.741,408,o),
(432.103,405,cs),
(532.339,392,o),
(588.457,322,o),
(564.646,210,cs),
(530.205,48,o),
(412,0,o),
(270,0,cs),
(255,0,o),
(249.701,8,o),
(252.89,23,cs),
(256.079,38,o),
(264.567,45,o),
(279.567,45,cs),
(387.992,47,o),
(484.669,69,o),
(514.221,208,cs),
(539.945,329,o),
(473.961,362,o),
(377.024,367,cs),
(358.237,368,o),
(350.363,378,o),
(354.402,397,cs),
(356.528,407,o),
(360.229,415,o),
(367.93,423,cs),
(589.529,661,ls),
(604.93,677,o),
(601.631,685,o),
(581.631,685,cs),
(450.631,685,ls),
(363.631,685,o),
(294.151,631,o),
(275.442,543,cs),
(165.315,25,ls),
(161.701,8,o),
(152,0,o),
(135,0,cs)
);
}
);
width = 600;
}
);
unicode = 7838;
},
{
color = (153, 254, 255, 255);
glyphname = T;
layers = (
{
layerId = "78C5E225-AB5C-450D-A6D0-D457B4E69ACE";
shapes = (
{
closed = 1;
nodes = (
(250,0,o),
(230.315,25,o),
(240.945,75,cs),
(346.182,570,ls),
(349.796,587,o),
(343.497,595,o),
(326.497,595,cs),
(234.497,595,ls),
(189.497,595,o),
(171.387,618,o),
(180.954,663,cs),
(190.521,708,o),
(217.198,730,o),
(262.198,730,cs),
(648.198,730,ls),
(693.198,730,o),
(710.521,708,o),
(700.954,663,cs),
(691.387,618,o),
(663.497,595,o),
(618.497,595,cs),
(526.497,595,ls),
(509.497,595,o),
(499.796,587,o),
(496.182,570,cs),
(390.945,75,ls),
(380.315,25,o),
(350,0,o),
(300,0,cs)
);
}
);
width = 600;
},
{
layerId = "A3C04AAB-708A-4E7C-A386-00C8304CC3CD";
shapes = (
{
closed = 1;
nodes = (
(267.874,-10,o),
(256.063,5,o),
(262.441,35,cs),
(386.812,620,ls),
(389.576,633,o),
(384.064,640,o),
(371.064,640,cs),
(236.064,640,ls),
(209.064,640,o),
(194.891,658,o),
(200.631,685,cs),
(206.371,712,o),
(228.198,730,o),
(255.198,730,cs),
(655.198,730,ls),
(682.198,730,o),
(696.371,712,o),
(690.631,685,cs),
(684.891,658,o),
(663.064,640,o),
(636.064,640,cs),
(501.064,640,ls),
(488.064,640,o),
(479.576,633,o),
(476.812,620,cs),
(352.441,35,ls),
(346.063,5,o),
(327.874,-10,o),
(297.874,-10,cs)
);
}
);
width = 600;
},
{
layerId = "D6017CDA-DCCB-46D4-A8A1-3FBBF500E309";
shapes = (
{
closed = 1;
nodes = (
(281.874,-10,o),
(275.575,-2,o),
(279.189,15,cs),
(417.379,665,ls),
(419.505,675,o),
(415.568,680,o),
(405.568,680,cs),
(229.568,680,ls),
(214.568,680,o),
(206.694,690,o),
(209.883,705,cs),
(213.072,720,o),
(225.198,730,o),
(240.198,730,cs),
(670.198,730,ls),
(685.198,730,o),
(693.072,720,o),
(689.883,705,cs),
(686.694,690,o),
(673.568,680,o),
(658.568,680,cs),
(485.568,680,ls),
(475.568,680,o),
(469.505,675,o),
(467.379,665,cs),
(329.189,15,ls),
(325.575,-2,o),
(315.874,-10,o),
(298.874,-10,cs)
);
}
);
width = 600;
}
);
unicode = 84;
},
{
color = (153, 254, 255, 255);
glyphname = U;
layers = (
{
layerId = "78C5E225-AB5C-450D-A6D0-D457B4E69ACE";
shapes = (
{
closed = 1;
nodes = (
(199.253,655,ls),
(209.883,705,o),
(240.198,730,o),
(290.198,730,cs),
(340.198,730,o),
(359.883,705,o),
(349.253,655,cs),
(257.835,225,ls),
(248.055,179,o),
(282.512,120,o),
(325.512,120,qs),
(367.512,120,o),
(428.055,179,o),
(437.835,225,qs),
(529.253,655,ls),
(539.883,705,o),
(570.198,730,o),
(620.198,730,cs),
(670.198,730,o),
(689.883,705,o),
(679.253,655,cs),
(587.622,224,ls),
(565.725,121,o),
(408.874,-10,o),
(297.874,-10,qs),
(186.874,-10,o),
(85.512,120,o),
(107.622,224,qs)
);
}
);
width = 600;
},
{
layerId = "A3C04AAB-708A-4E7C-A386-00C8304CC3CD";
shapes = (
{
closed = 1;
nodes = (
(235.631,685,ls),
(242.009,715,o),
(260.198,730,o),
(290.198,730,cs),
(320.198,730,o),
(332.009,715,o),
(325.631,685,cs),
(224.646,210,ls),
(211.89,150,o),
(256.008,80,o),
(317.008,80,qs),
(377.008,80,o),
(451.89,150,o),
(464.646,210,qs),
(565.631,685,ls),
(572.009,715,o),
(590.198,730,o),
(620.198,730,cs),
(650.198,730,o),
(662.009,715,o),
(655.631,685,cs),
(554.646,210,ls),
(533.811,112,o),
(400.874,-10,o),
(297.874,-10,qs),
(195.874,-10,o),
(114.024,113,o),
(134.646,210,qs)
);
}
);
width = 600;
},
{
layerId = "D6017CDA-DCCB-46D4-A8A1-3FBBF500E309";
shapes = (
{
closed = 1;
nodes = (
(257.883,705,ls),
(261.497,722,o),
(271.198,730,o),
(288.198,730,cs),
(305.198,730,o),
(311.497,722,o),
(307.883,705,cs),
(200.52,200,ls),
(185.,127,o),
(241.504,40,o),
(308.504,40,qs),
(375.504,40,o),
(469.,127,o),
(484.52,200,qs),
(591.883,705,ls),
(595.497,722,o),
(605.198,730,o),
(622.198,730,cs),
(639.198,730,o),
(645.497,722,o),
(641.883,705,cs),
(534.52,200,ls),
(515.173,109,o),
(384.874,-10,o),
(297.874,-10,qs),
(209.874,-10,o),
(131.173,109,o),
(150.52,200,qs)
);
}
);
width = 600;
}
);
unicode = 85;
},
{
color = (153, 254, 255, 255);
glyphname = V;
layers = (
{
layerId = "78C5E225-AB5C-450D-A6D0-D457B4E69ACE";
shapes = (
{
closed = 1;
nodes = (
(187,662,ls),
(184,714,o),
(219,740,o),
(263,740,cs),
(299,740,o),
(324,723,o),
(324,688,cs),
(337,263,ls),
(338,230,o),
(360,230,o),
(375,263,cs),
(568,688,ls),
(584,723,o),
(615,740,o),
(651,740,cs),
(695,740,o),
(720,714,o),
(695,662,cs),
(407,62,ls),
(384,13,o),
(348,-10,o),
(298,-10,cs),
(248,-10,o),
(222,13,o),
(219,62,cs)
);
}
);
width = 600;
},
{
layerId = "A3C04AAB-708A-4E7C-A386-00C8304CC3CD";
shapes = (
{
closed = 1;
nodes = (
(210,688,ls),
(209,714,o),
(220,740,o),
(259,740,cs),
(285,740,o),
(303,728,o),
(304,705,cs),
(324,185,ls),
(326,155,o),
(340,155,o),
(354,185,cs),
(596,705,ls),
(607,728,o),
(629,740,o),
(655,740,cs),
(694,740,o),
(695,714,o),
(682,688,cs),
(371,38,ls),
(355,6,o),
(332,-10,o),
(298,-10,cs),
(265,-10,o),
(247,6,o),
(245,38,cs)
);
}
);
width = 600;
},
{
layerId = "D6017CDA-DCCB-46D4-A8A1-3FBBF500E309";
shapes = (
{
closed = 1;
nodes = (
(229,711,ls),
(229,727,o),
(237,740,o),
(257,740,cs),
(270,740,o),
(283,734,o),
(283,721,cs),
(311,100,ls),
(312,80,o),
(322,80,o),
(331,100,cs),
(623,721,ls),
(629,734,o),
(644,740,o),
(657,740,cs),
(677,740,o),
(681,727,o),
(673,711,cs),
(342,19,ls),
(333,0,o),
(318,-10,o),
(298,-10,cs),
(278,-10,o),
(267,0,o),
(266,19,cs)
);
}
);
width = 600;
}
);
unicode = 86;
},
{
color = (153, 254, 255, 255);
glyphname = W;
layers = (
{
layerId = "78C5E225-AB5C-450D-A6D0-D457B4E69ACE";
shapes = (
{
closed = 1;
nodes = (
(149.442,670,ls),
(154.434,717,o),
(180.324,740,o),
(225.324,740,cs),
(267.324,740,o),
(284.072,720,o),
(278.568,680,cs),
(214.835,225,ls),
(212.859,211,o),
(223.433,209,o),
(229.622,224,cs),
(343.489,515,ls),
(358.355,552,o),
(383.182,570,o),
(421.182,570,cs),
(459.182,570,o),
(476.355,552,o),
(475.489,515,cs),
(465.622,224,ls),
(465.433,209,o),
(476.646,210,o),
(480.835,225,cs),
(612.269,688,ls),
(621.71,723,o),
(644.324,740,o),
(683.324,740,cs),
(731.324,740,o),
(748.796,714,o),
(731.741,662,cs),
(541.095,71,ls),
(523.614,17,o),
(487.874,-10,o),
(433.874,-10,cs),
(379.874,-10,o),
(354.402,16,o),
(357.882,70,cs),
(375.119,311,ls),
(376.095,325,o),
(362.308,326,o),
(357.119,311,cs),
(272.52,73,ls),
(252.827,18,o),
(215.874,-10,o),
(159.874,-10,cs),
(103.874,-10,o),
(78.614,17,o),
(84.52,73,cs)
);
}
);
width = 600;
},
{
layerId = "A3C04AAB-708A-4E7C-A386-00C8304CC3CD";
shapes = (
{
closed = 1;
nodes = (
(162.631,685,ls),
(165.497,722,o),
(186.324,740,o),
(220.324,740,cs),
(248.324,740,o),
(258.773,728,o),
(256.458,703,cs),
(197.827,145,ls),
(196.276,133,o),
(204.063,132,o),
(208.614,144,cs),
(355.19,523,ls),
(367.993,555,o),
(389.182,570,o),
(421.182,570,cs),
(453.182,570,o),
(467.993,555,o),
(467.19,523,cs),
(452.827,145,ls),
(452.488,134,o),
(460.488,134,o),
(464.04,146,cs),
(642.458,703,ls),
(650.773,728,o),
(666.324,740,o),
(694.324,740,cs),
(728.324,740,o),
(741.497,722,o),
(728.631,685,cs),
(514.63,50,ls),
(501.126,10,o),
(474.874,-10,o),
(433.874,-10,cs),
(392.874,-10,o),
(374.126,10,o),
(375.63,50,cs),
(392.253,401,ls),
(392.591,412,o),
(382.591,412,o),
(378.253,401,cs),
(245.843,51,ls),
(230.126,10,o),
(202.874,-10,o),
(161.874,-10,cs),
(120.874,-10,o),
(102.126,10,o),
(105.843,51,cs)
);
}
);
width = 600;
},
{
layerId = "D6017CDA-DCCB-46D4-A8A1-3FBBF500E309";
shapes = (
{
closed = 1;
nodes = (
(189.946,710,ls),
(191.198,730,o),
(202.324,740,o),
(222.324,740,cs),
(237.324,740,o),
(242.048,734,o),
(241.072,720,cs),
(180.693,55,l),
(180.63,50,o),
(184.417,49,o),
(186.693,55,cs),
(376.591,539,ls),
(385.056,560,o),
(400.182,570,o),
(421.182,570,cs),
(442.182,570,o),
(453.056,560,o),
(452.591,539,cs),
(438.693,55,ls),
(438.63,50,o),
(442.63,50,o),
(444.693,55,c),
(665.072,720,ls),
(670.048,734,o),
(677.324,740,o),
(692.324,740,cs),
(712.324,740,o),
(719.198,730,o),
(711.946,710,cs),
(480.74,27,ls),
(472.425,2,o),
(455.874,-10,o),
(430.874,-10,cs),
(405.874,-10,o),
(393.425,2,o),
(393.74,27,cs),
(407.111,485,ls),
(407.174,490,o),
(401.174,490,o),
(399.111,485,cs),
(217.74,27,ls),
(207.425,2,o),
(190.874,-10,o),
(165.874,-10,cs),
(140.874,-10,o),
(128.425,2,o),
(130.74,27,cs)
);
}
);
width = 600;
}
);
unicode = 87;
},
{
color = (153, 254, 255, 255);
glyphname = X;
layers = (
{
layerId = "78C5E225-AB5C-450D-A6D0-D457B4E69ACE";
shapes = (
{
closed = 1;
nodes = (
(217,40,ls),
(192,7,o),
(165,-10,o),
(128,-10,cs),
(74,-10,o),
(41,23,o),
(89,88,cs),
(527,690,ls),
(550,724,o),
(577,740,o),
(614,740,cs),
(668,740,o),
(700,708,o),
(653,642,cs)
);
},
{
closed = 1;
nodes = (
(549,88,ls),
(568,22,o),
(522,-10,o),
(468,-10,cs),
(431,-10,o),
(409,7,o),
(401,40,cs),
(219,642,ls),
(199,707,o),
(246,740,o),
(300,740,cs),
(337,740,o),
(357,723,o),
(367,690,cs)
);
}
);
width = 600;
},
{
layerId = "A3C04AAB-708A-4E7C-A386-00C8304CC3CD";
shapes = (
{
closed = 1;
nodes = (
(159,20,ls),
(145,0,o),
(127,-10,o),
(105,-10,cs),
(75,-10,o),
(52,9,o),
(82,48,cs),
(586,711,ls),
(601,731,o),
(618,740,o),
(640,740,cs),
(669,740,o),
(692,721,o),
(662,682,cs)
);
},
{
closed = 1;
nodes = (
(538,49,ls),
(552,10,o),
(521,-10,o),
(491,-10,cs),
(469,-10,o),
(455,0,o),
(449,20,cs),
(227,682,ls),
(213,720,o),
(245,740,o),
(274,740,cs),
(296,740,o),
(310,731,o),
(316,711,cs)
);
}
);
width = 600;
},
{
layerId = "D6017CDA-DCCB-46D4-A8A1-3FBBF500E309";
shapes = (
{
closed = 1;
nodes = (
(118,6,ls),
(110,-5,o),
(100,-10,o),
(88,-10,cs),
(73,-10,o),
(59,1,o),
(76,22,cs),
(621,724,ls),
(629,735,o),
(639,740,o),
(652,740,cs),
(667,740,o),
(682,729,o),
(664,707,cs)
);
},
{
closed = 1;
nodes = (
(534,22,ls),
(541,1,o),
(523,-10,o),
(508,-10,cs),
(496,-10,o),
(488,-5,o),
(484,6,cs),
(236,707,ls),
(228,729,o),
(247,740,o),
(262,740,cs),
(275,740,o),
(283,735,o),
(287,724,cs)
);
}
);
width = 600;
}
);
unicode = 88;
},
{
color = (153, 254, 255, 255);
glyphname = Y;
layers = (
{
layerId = "78C5E225-AB5C-450D-A6D0-D457B4E69ACE";
shapes = (
{
closed = 1;
nodes = (
(247.874,-10,o),
(228.189,15,o),
(238.819,65,cs),
(273.898,230,ls),
(278.15,250,o),
(278.189,269,o),
(274.016,287,cs),
(191.253,655,ls),
(180.67,704,o),
(223.324,740,o),
(265.324,740,cs),
(307.324,740,o),
(330.285,721,o),
(338.206,683,cs),
(384.245,448,ls),
(388.205,429,o),
(394.205,429,o),
(406.245,448,cs),
(552.206,683,ls),
(576.285,721,o),
(607.324,740,o),
(649.324,740,cs),
(691.324,740,o),
(718.67,704,o),
(687.253,655,cs),
(448.016,287,ls),
(436.189,269,o),
(428.15,250,o),
(423.898,230,cs),
(388.819,65,ls),
(378.189,15,o),
(347.874,-10,o),
(297.874,-10,cs)
);
}
);
width = 600;
},
{
layerId = "A3C04AAB-708A-4E7C-A386-00C8304CC3CD";
shapes = (
{
closed = 1;
nodes = (
(267.874,-10,o),
(256.063,5,o),
(262.441,35,cs),
(307.725,248,ls),
(311.339,265,o),
(310.741,281,o),
(306.93,296,cs),
(205.694,690,ls),
(199.222,716,o),
(226.324,740,o),
(248.324,740,cs),
(273.324,740,o),
(285.261,735,o),
(293.096,706,cs),
(372.914,390,ls),
(376.725,375,o),
(382.725,375,o),
(392.914,390,cs),
(607.096,706,ls),
(627.261,735,o),
(641.324,740,o),
(666.324,740,cs),
(688.324,740,o),
(705.222,716,o),
(687.694,690,cs),
(418.93,296,ls),
(408.741,281,o),
(401.339,265,o),
(397.725,248,cs),
(352.441,35,ls),
(346.063,5,o),
(327.874,-10,o),
(297.874,-10,cs)
);
}
);
width = 600;
},
{
layerId = "D6017CDA-DCCB-46D4-A8A1-3FBBF500E309";
shapes = (
{
closed = 1;
nodes = (
(280.874,-10,o),
(274.575,-2,o),
(278.189,15,cs),
(330.276,260,ls),
(333.04,273,o),
(332.804,286,o),
(329.355,298,cs),
(215.159,711,ls),
(210.56,727,o),
(228.324,740,o),
(239.324,740,cs),
(253.324,740,o),
(265.048,734,o),
(268.285,721,cs),
(366.686,356,ls),
(370.134,344,o),
(376.134,344,o),
(384.686,356,cs),
(638.285,721,ls),
(647.048,734,o),
(661.324,740,o),
(675.324,740,cs),
(686.324,740,o),
(698.56,727,o),
(687.159,711,cs),
(397.355,298,ls),
(388.804,286,o),
(383.04,273,o),
(380.276,260,cs),
(328.189,15,ls),
(324.575,-2,o),
(314.874,-10,o),
(297.874,-10,cs)
);
}
);
width = 600;
}
);
unicode = 89;
},
{
color = (153, 254, 255, 255);
glyphname = Z;
layers = (
{
layerId = "78C5E225-AB5C-450D-A6D0-D457B4E69ACE";
shapes = (
{
closed = 1;
nodes = (
(176,0,ls),
(108,0,o),
(82.016,33,o),
(96.473,101,cs),
(101.362,124,o),
(111.614,144,o),
(126.866,164,cs),
(448.969,569,ls),
(462.584,586,o),
(459.497,595,o),
(439.497,595,cs),
(276.497,595,ls),
(231.497,595,o),
(214.387,618,o),
(223.954,663,cs),
(233.521,708,o),
(261.198,730,o),
(306.198,730,cs),
(568.198,730,ls),
(636.198,730,o),
(662.182,697,o),
(647.725,629,cs),
(642.836,606,o),
(633.584,586,o),
(617.332,566,cs),
(294.229,161,ls),
(280.614,144,o),
(283.701,135,o),
(303.701,135,cs),
(486.701,135,ls),
(531.701,135,o),
(549.024,113,o),
(539.457,68,cs),
(529.89,23,o),
(503,0,o),
(458,0,cs)
);
}
);
width = 600;
},
{
layerId = "A3C04AAB-708A-4E7C-A386-00C8304CC3CD";
shapes = (
{
closed = 1;
nodes = (
(153,0,ls),
(108,0,o),
(89.89,23,o),
(99.457,68,cs),
(102.646,83,o),
(108.41,96,o),
(119.173,109,cs),
(522.387,618,ls),
(533.363,632,o),
(532.064,640,o),
(515.064,640,cs),
(271.064,640,ls),
(244.064,640,o),
(229.891,658,o),
(235.631,685,cs),
(241.371,712,o),
(263.198,730,o),
(290.198,730,cs),
(592.198,730,ls),
(637.198,730,o),
(655.521,708,o),
(645.954,663,cs),
(642.765,648,o),
(636.788,634,o),
(626.025,621,cs),
(222.811,112,ls),
(211.835,98,o),
(213.134,90,o),
(230.134,90,cs),
(489.134,90,ls),
(516.134,90,o),
(530.307,72,o),
(524.567,45,cs),
(518.827,18,o),
(497,0,o),
(470,0,cs)
);
}
);
width = 600;
},
{
layerId = "D6017CDA-DCCB-46D4-A8A1-3FBBF500E309";
shapes = (
{
closed = 1;
nodes = (
(127,0,ls),
(102,0,o),
(92.764,13,o),
(98.079,38,cs),
(99.78,46,o),
(103.48,54,o),
(108.969,61,cs),
(573.954,663,ls),
(583.505,675,o),
(580.568,680,o),
(567.568,680,cs),
(265.568,680,ls),
(250.568,680,o),
(240.694,690,o),
(243.883,705,cs),
(247.072,720,o),
(261.198,730,o),
(276.198,730,cs),
(609.198,730,ls),
(638.198,730,o),
(649.222,716,o),
(643.056,687,cs),
(640.93,677,o),
(637.229,669,o),
(630.529,661,cs),
(171.244,67,ls),
(161.693,55,o),
(164.63,50,o),
(177.63,50,cs),
(495.63,50,ls),
(510.63,50,o),
(518.504,40,o),
(515.315,25,cs),
(512.126,10,o),
(500,0,o),
(485,0,cs)
);
}
);
width = 600;
}
);
unicode = 90;
},
{
color = (153, 254, 255, 255);
glyphname = a;
layers = (
{
layerId = "AF231975-8591-4A9E-9633-127BEEE6582E";
name = "#instance";
shapes = (
{
closed = 1;
nodes = (
(335.008,80,o),
(414.89,150,o),
(446.646,210,cs),
(473.276,260,o),
(485.93,296,o),
(495.709,342,cs),
(512.292,420,o),
(481.922,470,o),
(418.922,470,cs),
(310.922,470,o),
(218.457,322,o),
(199.111,231,cs),
(184.016,160,o),
(182.008,80,o),
(261.008,80,cs)
);
},
{
closed = 1;
nodes = (
(467.874,-10,o),
(457.488,7,o),
(460.008,80,cs),
(460.772,93,o),
(460.685,102,o),
(458.748,107,cs),
(457.811,112,o),
(455.024,113,o),
(452.024,113,cs),
(449.024,113,o),
(445.386,110,o),
(433.197,95,cs),
(386.079,38,o),
(324.874,-10,o),
(229.874,-10,cs),
(97.874,-10,o),
(81.047,99,o),
(107.197,222,cs),
(138.875,371,o),
(272.056,560,o),
(430.056,560,cs),
(481.056,560,o),
(518.804,540,o),
(529.914,517,cs),
(532.639,511,o),
(535.213,509,o),
(538.213,509,cs),
(542.213,509,o),
(545.489,515,o),
(549.19,523,cs),
(561.568,553,o),
(574.056,560,o),
(596.056,560,cs),
(630.056,560,o),
(640.442,543,o),
(633.001,508,cs),
(631.087,499,o),
(627.961,489,o),
(623.41,477,cs),
(593.04,400,o),
(570.882,324,o),
(554.087,245,cs),
(539.63,177,o),
(537.173,109,o),
(551.819,65,cs),
(555.268,53,o),
(556.291,39,o),
(553.528,26,cs),
(547.362,-3,o),
(528.874,-10,o),
(502.874,-10,cs)
);
}
);
width = 600;
},
{
layerId = "78C5E225-AB5C-450D-A6D0-D457B4E69ACE";
shapes = (
{
closed = 1;
nodes = (
(346.575,125,o),
(389.292,166,o),
(417.646,210,cs),
(446.213,255,o),
(456.567,299,o),
(463.158,330,cs),
(477.19,396,o),
(458.355,425,o),
(416.355,425,cs),
(345.355,425,o),
(271.709,342,o),
(248.536,233,cs),
(235.142,170,o),
(244.575,125,o),
(296.575,125,cs)
);
},
{
closed = 1;
nodes = (
(461.874,-10,o),
(439.063,5,o),
(440.417,49,cs),
(440.331,58,o),
(441.244,67,o),
(439.52,73,cs),
(438.37,77,o),
(436.583,78,o),
(433.583,78,cs),
(430.583,78,o),
(425.945,75,o),
(418.244,67,cs),
(362.276,6,o),
(323.874,-10,o),
(238.874,-10,cs),
(85.874,-10,o),
(73.173,109,o),
(99.323,232,cs),
(131.001,381,o),
(251.056,560,o),
(454.056,560,cs),
(480.056,560,o),
(523.418,557,o),
(537.04,527,cs),
(539.765,521,o),
(542.339,519,o),
(546.339,519,cs),
(551.339,519,o),
(554.615,525,o),
(556.465,529,cs),
(568.78,554,o),
(585.056,560,o),
(608.056,560,cs),
(651.056,560,o),
(674.442,543,o),
(664.875,498,cs),
(662.111,485,o),
(656.922,470,o),
(650.733,455,cs),
(622.276,387,o),
(605.095,325,o),
(590.213,255,cs),
(574.268,180,o),
(573.512,120,o),
(583.37,77,cs),
(586.606,64,o),
(586.354,44,o),
(583.803,32,cs),
(578.488,7,o),
(545.874,-10,o),
(514.874,-10,cs)
);
}
);
width = 600;
},
{
layerId = "A3C04AAB-708A-4E7C-A386-00C8304CC3CD";
shapes = (
{
closed = 1;
nodes = (
(335.008,80,o),
(414.89,150,o),
(446.646,210,cs),
(473.276,260,o),
(485.93,296,o),
(495.709,342,cs),
(512.292,420,o),
(481.922,470,o),
(418.922,470,cs),
(310.922,470,o),
(218.457,322,o),
(199.111,231,cs),
(184.016,160,o),
(182.008,80,o),
(261.008,80,cs)
);
},
{
closed = 1;
nodes = (
(467.874,-10,o),
(457.488,7,o),
(460.008,80,cs),
(460.772,93,o),
(460.685,102,o),
(458.748,107,cs),
(457.811,112,o),
(455.024,113,o),
(452.024,113,cs),
(449.024,113,o),
(445.386,110,o),
(433.197,95,cs),
(386.079,38,o),
(324.874,-10,o),
(229.874,-10,cs),
(97.874,-10,o),
(81.047,99,o),
(107.197,222,cs),
(138.875,371,o),
(272.056,560,o),
(430.056,560,cs),
(481.056,560,o),
(518.804,540,o),
(529.914,517,cs),
(532.639,511,o),
(535.213,509,o),
(538.213,509,cs),
(542.213,509,o),
(545.489,515,o),
(549.19,523,cs),
(561.568,553,o),
(574.056,560,o),
(596.056,560,cs),
(630.056,560,o),
(640.442,543,o),
(633.001,508,cs),
(631.087,499,o),
(627.961,489,o),
(623.41,477,cs),
(593.04,400,o),
(570.882,324,o),
(554.087,245,cs),
(539.63,177,o),
(537.173,109,o),
(551.819,65,cs),
(555.268,53,o),
(556.291,39,o),
(553.528,26,cs),
(547.362,-3,o),
(528.874,-10,o),
(502.874,-10,cs)
);
}
);
width = 600;
},
{
layerId = "D6017CDA-DCCB-46D4-A8A1-3FBBF500E309";
shapes = (
{
closed = 1;
nodes = (
(340.504,40,o),
(442.504,167,o),
(469.41,223,cs),
(492.615,271,o),
(503.819,319,o),
(514.237,368,cs),
(531.032,447,o),
(502.426,510,o),
(429.426,510,cs),
(308.426,510,o),
(201.221,335,o),
(176.772,220,cs),
(160.614,144,o),
(154.504,40,o),
(251.504,40,cs)
);
},
{
closed = 1;
nodes = (
(476.874,-10,o),
(453.465,21,o),
(459.646,83,cs),
(460.622,97,o),
(461.748,107,o),
(461.024,113,cs),
(459.937,122,o),
(456.362,124,o),
(452.362,124,cs),
(448.362,124,o),
(444.512,120,o),
(438.599,111,cs),
(418.795,79,o),
(343.874,-10,o),
(226.874,-10,cs),
(113.874,-10,o),
(101.047,99,o),
(126.347,218,cs),
(159.087,372,o),
(276.056,560,o),
(442.056,560,cs),
(495.056,560,o),
(532.017,541,o),
(539.213,509,cs),
(540.938,503,o),
(542.513,501,o),
(544.513,501,cs),
(548.513,501,o),
(553.363,505,o),
(556.489,515,cs),
(567.143,551,o),
(575.056,560,o),
(596.056,560,cs),
(616.056,560,o),
(621.717,549,o),
(616.615,525,cs),
(614.064,513,o),
(608.725,502,o),
(603.961,489,cs),
(571.528,407,o),
(549.52,327,o),
(534.,254,cs),
(505.512,120,o),
(509.307,72,o),
(526.228,34,cs),
(529.528,26,o),
(530.465,21,o),
(527.701,8,cs),
(525.787,-1,o),
(518.874,-10,o),
(503.874,-10,cs)
);
}
);
width = 600;
}
);
unicode = 97;
},
{
color = (153, 254, 255, 255);
glyphname = ae;
layers = (
{
layerId = "78C5E225-AB5C-450D-A6D0-D457B4E69ACE";
shapes = (
{
closed = 1;
nodes = (
(288.158,330,ls),
(305.158,330,o),
(314.859,338,o),
(318.473,355,cs),
(328.04,400,ls),
(333.993,428,o),
(330.434,463,o),
(296.434,463,cs),
(278.434,463,o),
(264.308,453,o),
(254.331,439,cs),
(232.953,409,o),
(220.04,400,o),
(198.04,400,cs),
(141.04,400,o),
(121.056,433,o),
(151.623,478,cs),
(184.04,527,o),
(237.056,560,o),
(300.056,560,cs),
(358.056,560,o),
(406.678,530,o),
(400.497,468,c),
(420.678,530,o),
(483.056,560,o),
(540.056,560,cs),
(633.056,560,o),
(673.961,489,o),
(655.04,400,cs),
(644.41,350,ls),
(630.166,283,o),
(590.15,250,o),
(523.15,250,cs),
(439.15,250,ls),
(422.15,250,o),
(412.449,242,o),
(408.835,225,cs),
(392.89,150,ls),
(386.937,122,o),
(390.496,87,o),
(424.496,87,cs),
(442.496,87,o),
(456.622,97,o),
(466.599,111,cs),
(487.977,141,o),
(500.89,150,o),
(522.89,150,cs),
(579.89,150,o),
(598.874,117,o),
(569.307,72,cs),
(536.89,23,o),
(484.874,-10,o),
(421.874,-10,cs),
(365.874,-10,o),
(312.252,20,o),
(318.221,81,c),
(297.827,18,o),
(233.874,-10,o),
(175.874,-10,cs),
(77.874,-10,o),
(42.457,68,o),
(61.803,159,cs),
(83.489,261,o),
(166.158,330,o),
(268.158,330,cs)
);
},
{
closed = 1;
nodes = (
(290.835,225,ls),
(294.449,242,o),
(288.15,250,o),
(271.15,250,cs),
(251.15,250,ls),
(209.15,250,o),
(189.733,201,o),
(182.717,168,cs),
(175.914,136,o),
(174.496,87,o),
(215.496,87,cs),
(249.496,87,o),
(268.725,121,o),
(274.89,150,cs)
);
},
{
closed = 1;
nodes = (
(436.473,355,ls),
(432.859,338,o),
(439.158,330,o),
(456.158,330,cs),
(496.158,330,ls),
(513.158,330,o),
(522.859,338,o),
(526.473,355,cs),
(536.04,400,ls),
(541.993,428,o),
(538.434,463,o),
(504.434,463,cs),
(470.434,463,o),
(451.993,428,o),
(446.04,400,cs)
);
}
);
width = 600;
},
{
anchors = (
{
name = m.uni0308;
position = "{417, 550}";
}
);
layerId = "A3C04AAB-708A-4E7C-A386-00C8304CC3CD";
shapes = (
{
closed = 1;
nodes = (
(311.882,324,ls),
(324.882,324,o),
(333.371,331,o),
(336.134,344,cs),
(347.827,399,ls),
(357.182,443,o),
(348.111,485,o),
(298.111,485,cs),
(265.111,485,o),
(238.284,467,o),
(223.544,440,cs),
(213.505,421,o),
(204.016,414,o),
(188.016,414,cs),
(151.016,414,o),
(136.268,434,o),
(153.072,466,cs),
(181.765,521,o),
(235.056,560,o),
(301.056,560,cs),
(357.056,560,o),
(409.103,532,o),
(404.135,471,c),
(423.678,530,o),
(484.056,560,o),
(539.056,560,cs),
(632.056,560,o),
(668.749,488,o),
(650.04,400,cs),
(636.434,336,ls),
(624.953,282,o),
(593.426,256,o),
(539.426,256,cs),
(417.426,256,ls),
(404.426,256,o),
(395.937,249,o),
(393.174,236,cs),
(374.89,150,ls),
(365.536,106,o),
(375.819,65,o),
(425.819,65,cs),
(458.819,65,o),
(485.433,82,o),
(500.173,109,cs),
(511.425,129,o),
(521.126,137,o),
(538.126,137,cs),
(578.126,137,o),
(592.449,115,o),
(573.433,82,cs),
(542.528,26,o),
(484.874,-10,o),
(417.874,-10,cs),
(362.874,-10,o),
(320.102,24,o),
(321.008,80,c),
(296.465,21,o),
(232.874,-10,o),
(175.874,-10,cs),
(79.874,-10,o),
(45.882,70,o),
(64.803,159,cs),
(84.15,250,o),
(154.882,324,o),
(250.882,324,cs)
);
},
{
closed = 1;
nodes = (
(313.174,236,ls),
(315.937,249,o),
(310.426,256,o),
(297.426,256,cs),
(238.426,256,ls),
(186.426,256,o),
(158.158,203,o),
(149.016,160,cs),
(138.811,112,o),
(150.819,65,o),
(204.819,65,cs),
(254.819,65,o),
(285.323,105,o),
(294.89,150,cs)
);
},
{
closed = 1;
nodes = (
(416.134,344,ls),
(413.371,331,o),
(418.882,324,o),
(431.882,324,cs),
(529.882,324,ls),
(542.882,324,o),
(551.371,331,o),
(554.134,344,cs),
(566.04,400,ls),
(575.182,443,o),
(564.111,485,o),
(515.111,485,cs),
(466.111,485,o),
(437.182,443,o),
(428.04,400,cs)
);
}
);
width = 600;
},
{
layerId = "D6017CDA-DCCB-46D4-A8A1-3FBBF500E309";
shapes = (
{
closed = 1;
nodes = (
(330.331,312,ls),
(340.331,312,o),
(346.394,317,o),
(348.52,327,cs),
(366.166,410,ls),
(377.221,462,o),
(362.914,517,o),
(303.914,517,cs),
(250.914,517,o),
(213.41,477,o),
(198.418,430,cs),
(195.079,419,o),
(188.016,414,o),
(178.016,414,cs),
(156.016,414,o),
(148.568,426,o),
(155.82,446,cs),
(180.426,510,o),
(234.056,560,o),
(306.056,560,cs),
(360.056,560,o),
(406.891,531,o),
(403.772,474,c),
(427.678,530,o),
(487.056,560,o),
(541.056,560,cs),
(629.056,560,o),
(665.024,494,o),
(647.166,410,cs),
(629.945,329,ls),
(621.441,289,o),
(597.189,269,o),
(557.189,269,cs),
(399.189,269,ls),
(389.189,269,o),
(383.126,264,o),
(381.,254,cs),
(356.764,140,ls),
(344.433,82,o),
(368.228,34,o),
(430.228,34,cs),
(483.228,34,o),
(522.52,73,o),
(537.725,121,cs),
(541.063,132,o),
(548.126,137,o),
(558.126,137,cs),
(580.126,137,o),
(588.575,125,o),
(580.323,105,cs),
(555.291,39,o),
(497.874,-10,o),
(423.874,-10,cs),
(370.874,-10,o),
(319.039,19,o),
(318.945,75,c),
(295.402,16,o),
(225.874,-10,o),
(171.874,-10,cs),
(80.874,-10,o),
(55.732,74,o),
(72.953,155,cs),
(89.961,235,o),
(147.331,312,o),
(236.331,312,cs)
);
},
{
closed = 1;
nodes = (
(333.,254,ls),
(335.126,264,o),
(331.189,269,o),
(321.189,269,cs),
(227.189,269,ls),
(166.189,269,o),
(131.796,206,o),
(120.953,155,cs),
(108.622,97,o),
(122.591,31,o),
(189.591,31,cs),
(252.591,31,o),
(296.221,81,o),
(308.764,140,cs)
);
},
{
closed = 1;
nodes = (
(396.52,327,ls),
(394.394,317,o),
(398.331,312,o),
(408.331,312,cs),
(563.331,312,ls),
(573.331,312,o),
(579.394,317,o),
(581.52,327,cs),
(599.166,410,ls),
(611.072,466,o),
(589.914,517,o),
(528.914,517,cs),
(467.914,517,o),
(426.072,466,o),
(414.166,410,cs)
);
}
);
width = 600;
}
);
unicode = 230;
},
{
color = (153, 254, 255, 255);
glyphname = b;
layers = (
{
layerId = "AF231975-8591-4A9E-9633-127BEEE6582E";
name = "#instance";
shapes = (
{
closed = 1;
nodes = (
(103,-10,o),
(91,5,o),
(98,36,cs),
(238,695,ls),
(244,725,o),
(262,740,o),
(292,740,cs),
(322,740,o),
(334,725,o),
(328,695,cs),
(281,476,l),
(305,522,o),
(365,560,o),
(444,560,cs),
(606,560,o),
(606,400,o),
(580,276,cs),
(553,152,o),
(485,-10,o),
(326,-10,cs),
(256,-10,o),
(219,21,o),
(197,80,c),
(188,36,ls),
(181,5,o),
(163,-10,o),
(133,-10,cs)
);
},
{
closed = 1;
nodes = (
(432,75,o),
(473,197,o),
(491,282,cs),
(508,364,o),
(518,475,o),
(404,475,cs),
(332,475,o),
(261,380,o),
(247,316,cs),
(224,206,ls),
(210,143,o),
(262,75,o),
(335,75,cs)
);
}
);
width = 600;
},
{
layerId = "78C5E225-AB5C-450D-A6D0-D457B4E69ACE";
shapes = (
{
closed = 1;
nodes = (
(81,-10,o),
(63,14,o),
(73,63,cs),
(201,665,ls),
(212,715,o),
(242,740,o),
(292,740,cs),
(342,740,o),
(362,715,o),
(351,665,cs),
(312,479,l),
(351,533,o),
(396,560,o),
(465,560,cs),
(630,560,o),
(640,406,o),
(612,274,cs),
(585,148,o),
(512,-10,o),
(352,-10,cs),
(275,-10,o),
(226,27,o),
(220,69,c),
(218,63,ls),
(208,14,o),
(181,-10,o),
(131,-10,cs)
);
},
{
closed = 1;
nodes = (
(422,140,o),
(448,207,o),
(462,273,cs),
(476,341,o),
(480,420,o),
(399,420,cs),
(337,420,o),
(289,373,o),
(277,315,cs),
(260,235,ls),
(248,181,o),
(286,140,o),
(346,140,cs)
);
}
);
width = 600;
},
{
layerId = "A3C04AAB-708A-4E7C-A386-00C8304CC3CD";
shapes = (
{
closed = 1;
nodes = (
(103,-10,o),
(91,5,o),
(98,36,cs),
(238,695,ls),
(244,725,o),
(262,740,o),
(292,740,cs),
(322,740,o),
(334,725,o),
(328,695,cs),
(281,476,l),
(305,522,o),
(365,560,o),
(444,560,cs),
(606,560,o),
(606,400,o),
(580,276,cs),
(553,152,o),
(485,-10,o),
(326,-10,cs),
(256,-10,o),
(219,21,o),
(197,80,c),
(188,36,ls),
(181,5,o),
(163,-10,o),
(133,-10,cs)
);
},
{
closed = 1;
nodes = (
(432,75,o),
(473,197,o),
(491,282,cs),
(508,364,o),
(518,475,o),
(404,475,cs),
(332,475,o),
(261,380,o),
(247,316,cs),
(224,206,ls),
(210,143,o),
(262,75,o),
(335,75,cs)
);
}
);
width = 600;
},
{
layerId = "D6017CDA-DCCB-46D4-A8A1-3FBBF500E309";
shapes = (
{
closed = 1;
nodes = (
(116,-10,o),
(110,-2,o),
(113,15,cs),
(262,715,ls),
(266,732,o),
(275,740,o),
(292,740,cs),
(309,740,o),
(316,732,o),
(312,715,cs),
(260,469,l),
(300,531,o),
(366,560,o),
(429,560,cs),
(580,560,o),
(589,394,o),
(563,275,cs),
(538,155,o),
(459,-10,o),
(311,-10,cs),
(193,-10,o),
(178,57,o),
(177,78,c),
(163,15,ls),
(160,-2,o),
(150,-10,o),
(133,-10,cs)
);
},
{
closed = 1;
nodes = (
(436,38,o),
(493,177,o),
(513,275,cs),
(534,373,o),
(537,512,o),
(412,512,cs),
(338,512,o),
(250,425,o),
(235,355,cs),
(201,194,ls),
(185,119,o),
(232,38,o),
(320,38,cs)
);
}
);
width = 600;
}
);
unicode = 98;
},
{
color = (153, 254, 255, 255);
glyphname = c;
layers = (
{
layerId = "AF231975-8591-4A9E-9633-127BEEE6582E";
name = "#instance";
shapes = (
{
closed = 1;
nodes = (
(181.835,479,o),
(312.056,560,o),
(458.056,560,cs),
(526.056,560,o),
(598.741,535,o),
(605.961,489,cs),
(606.898,484,o),
(607.41,477,o),
(605.922,470,cs),
(602.308,453,o),
(591.544,440,o),
(572.843,432,cs),
(569.631,431,o),
(566.418,430,o),
(559.418,430,cs),
(553.418,430,o),
(546.631,431,o),
(539.119,438,cs),
(518.946,456,o),
(500.922,470,o),
(442.922,470,cs),
(365.922,470,o),
(256.316,406,o),
(226.764,267,cs),
(201.465,148,o),
(257.008,80,o),
(357.008,80,cs),
(389.008,80,o),
(405.496,87,o),
(429.047,99,cs),
(456.024,113,o),
(471.299,119,o),
(491.299,119,cs),
(498.299,119,o),
(505.087,118,o),
(511.449,115,cs),
(524.961,108,o),
(531.197,95,o),
(527.795,79,cs),
(526.095,71,o),
(520.969,61,o),
(514.055,52,cs),
(481.126,10,o),
(403.874,-10,o),
(334.874,-10,cs),
(188.874,-10,o),
(96.583,78,o),
(139.103,278,cs)
);
}
);
width = 600;
},
{
layerId = "78C5E225-AB5C-450D-A6D0-D457B4E69ACE";
shapes = (
{
closed = 1;
nodes = (
(156.835,479,o),
(283.056,560,o),
(432.056,560,cs),
(484.056,560,o),
(609.891,531,o),
(615.009,461,cs),
(616.095,452,o),
(614.82,446,o),
(614.607,445,cs),
(608.442,416,o),
(592.701,389,o),
(564.575,379,cs),
(556.938,376,o),
(548.512,374,o),
(537.512,374,cs),
(514.512,374,o),
(503.426,383,o),
(494.339,392,cs),
(465.867,418,o),
(445.355,425,o),
(416.355,425,cs),
(353.355,425,o),
(287.276,387,o),
(263.252,274,cs),
(240.929,169,o),
(281.575,125,o),
(341.575,125,cs),
(378.575,125,o),
(408.638,130,o),
(448.378,157,cs),
(465.929,169,o),
(475.78,173,o),
(493.78,173,cs),
(505.78,173,o),
(515.355,171,o),
(522.717,168,cs),
(546.591,158,o),
(552.063,132,o),
(547.173,109,cs),
(545.685,102,o),
(542.984,94,o),
(538.284,86,cs),
(499.764,13,o),
(362.874,-10,o),
(306.874,-10,cs),
(160.874,-10,o),
(71.583,78,o),
(114.103,278,cs)
);
}
);
width = 600;
},
{
layerId = "A3C04AAB-708A-4E7C-A386-00C8304CC3CD";
shapes = (
{
closed = 1;
nodes = (
(181.835,479,o),
(312.056,560,o),
(458.056,560,cs),
(526.056,560,o),
(598.741,535,o),
(605.961,489,cs),
(606.898,484,o),
(607.41,477,o),
(605.922,470,cs),
(602.308,453,o),
(591.544,440,o),
(572.843,432,cs),
(569.631,431,o),
(566.418,430,o),
(559.418,430,cs),
(553.418,430,o),
(546.631,431,o),
(539.119,438,cs),
(518.946,456,o),
(500.922,470,o),
(442.922,470,cs),
(365.922,470,o),
(256.316,406,o),
(226.764,267,cs),
(201.465,148,o),
(257.008,80,o),
(357.008,80,cs),
(389.008,80,o),
(405.496,87,o),
(429.047,99,cs),
(456.024,113,o),
(471.299,119,o),
(491.299,119,cs),
(498.299,119,o),
(505.087,118,o),
(511.449,115,cs),
(524.961,108,o),
(531.197,95,o),
(527.795,79,cs),
(526.095,71,o),
(520.969,61,o),
(514.055,52,cs),
(481.126,10,o),
(403.874,-10,o),
(334.874,-10,cs),
(188.874,-10,o),
(96.583,78,o),
(139.103,278,cs)
);
}
);
width = 600;
},
{
layerId = "D6017CDA-DCCB-46D4-A8A1-3FBBF500E309";
shapes = (
{
closed = 1;
nodes = (
(201.835,479,o),
(320.056,560,o),
(463.056,560,cs),
(526.056,560,o),
(586.316,533,o),
(599.788,507,cs),
(601.725,502,o),
(602.662,497,o),
(601.387,491,cs),
(599.261,481,o),
(591.347,472,o),
(577.497,468,cs),
(574.284,467,o),
(571.072,466,o),
(567.072,466,cs),
(554.072,466,o),
(544.772,474,o),
(539.835,479,cs),
(515.938,503,o),
(482.426,510,o),
(448.426,510,cs),
(345.426,510,o),
(241.843,432,o),
(208.89,277,cs),
(177.638,130,o),
(217.504,40,o),
(348.504,40,cs),
(379.504,40,o),
(430.205,48,o),
(467.457,68,cs),
(487.795,79,o),
(494.433,82,o),
(500.433,82,cs),
(504.433,82,o),
(511.221,81,o),
(515.732,74,cs),
(519.669,69,o),
(521.181,62,o),
(519.48,54,cs),
(518.417,49,o),
(516.142,43,o),
(508.866,37,cs),
(488.252,20,o),
(402.874,-10,o),
(326.874,-10,cs),
(197.874,-10,o),
(116.583,78,o),
(159.103,278,cs)
);
}
);
width = 600;
}
);
unicode = 99;
},
{
color = (153, 254, 255, 255);
glyphname = d;
layers = (
{
layerId = "AF231975-8591-4A9E-9633-127BEEE6582E";
name = "#instance";
shapes = (
{
closed = 1;
nodes = (
(422,-10,o),
(410,5,o),
(417,36,cs),
(426,80,l),
(378,21,o),
(330,-10,o),
(260,-10,cs),
(101,-10,o),
(101,152,o),
(128,276,cs),
(154,400,o),
(222,560,o),
(384,560,cs),
(463,560,o),
(506,522,o),
(510,476,c),
(557,695,ls),
(563,725,o),
(581,740,o),
(611,740,cs),
(641,740,o),
(653,725,o),
(647,695,cs),
(507,36,ls),
(500,5,o),
(482,-10,o),
(452,-10,cs)
);
},
{
closed = 1;
nodes = (
(360,75,o),
(439,143,o),
(453,206,cs),
(476,316,ls),
(490,380,o),
(460,475,o),
(388,475,cs),
(274,475,o),
(236,364,o),
(219,282,cs),
(201,197,o),
(190,75,o),
(287,75,cs)
);
}
);
width = 600;
},
{
layerId = "78C5E225-AB5C-450D-A6D0-D457B4E69ACE";
shapes = (
{
closed = 1;
nodes = (
(414,-10,o),
(397,14,o),
(407,63,cs),
(409,69,l),
(385,27,o),
(320,-10,o),
(243,-10,cs),
(83,-10,o),
(76,148,o),
(103,274,cs),
(131,406,o),
(207,560,o),
(372,560,cs),
(441,560,o),
(474,533,o),
(491,479,c),
(530,665,ls),
(541,715,o),
(571,740,o),
(621,740,cs),
(671,740,o),
(691,715,o),
(680,665,cs),
(552,63,ls),
(542,14,o),
(514,-10,o),
(464,-10,cs)
);
},
{
closed = 1;
nodes = (
(373,140,o),
(427,181,o),
(439,235,cs),
(456,315,ls),
(468,373,o),
(440,420,o),
(378,420,cs),
(297,420,o),
(267,341,o),
(253,273,cs),
(239,207,o),
(237,140,o),
(313,140,cs)
);
}
);
width = 600;
},
{
layerId = "A3C04AAB-708A-4E7C-A386-00C8304CC3CD";
shapes = (
{
closed = 1;
nodes = (
(422,-10,o),
(410,5,o),
(417,36,cs),
(426,80,l),
(378,21,o),
(330,-10,o),
(260,-10,cs),
(101,-10,o),
(101,152,o),
(128,276,cs),
(154,400,o),
(222,560,o),
(384,560,cs),
(463,560,o),
(506,522,o),
(510,476,c),
(557,695,ls),
(563,725,o),
(581,740,o),
(611,740,cs),
(641,740,o),
(653,725,o),
(647,695,cs),
(507,36,ls),
(500,5,o),
(482,-10,o),
(452,-10,cs)
);
},
{
closed = 1;
nodes = (
(360,75,o),
(439,143,o),
(453,206,cs),
(476,316,ls),
(490,380,o),
(460,475,o),
(388,475,cs),
(274,475,o),
(236,364,o),
(219,282,cs),
(201,197,o),
(190,75,o),
(287,75,cs)
);
}
);
width = 600;
},
{
layerId = "D6017CDA-DCCB-46D4-A8A1-3FBBF500E309";
shapes = (
{
closed = 1;
nodes = (
(446,-10,o),
(440,-2,o),
(443,15,cs),
(457,78,l),
(446,57,o),
(403,-10,o),
(285,-10,cs),
(137,-10,o),
(128,155,o),
(153,275,cs),
(179,394,o),
(258,560,o),
(409,560,cs),
(472,560,o),
(526,531,o),
(540,469,c),
(592,715,ls),
(596,732,o),
(605,740,o),
(622,740,cs),
(639,740,o),
(646,732,o),
(642,715,cs),
(493,15,ls),
(490,-2,o),
(480,-10,o),
(463,-10,cs)
);
},
{
closed = 1;
nodes = (
(384,38,o),
(465,119,o),
(481,194,cs),
(515,355,ls),
(530,425,o),
(480,512,o),
(406,512,cs),
(281,512,o),
(224,373,o),
(203,275,cs),
(183,177,o),
(180,38,o),
(296,38,cs)
);
}
);
width = 600;
}
);
unicode = 100;
},
{
color = (153, 254, 255, 255);
glyphname = eth;
layers = (
{
layerId = "78C5E225-AB5C-450D-A6D0-D457B4E69ACE";
shapes = (
{
closed = 1;
nodes = (
(308,632,ls),
(326,638,o),
(330,646,o),
(324,660,cs),
(323,663,ls),
(302,708,o),
(322,730,o),
(384,730,cs),
(426,730,o),
(458,717,o),
(464,707,cs),
(467,702,ls),
(472,693,o),
(481,690,o),
(493,694,cs),
(581,723,ls),
(628,739,o),
(647,724,o),
(637,677,cs),
(632,654,o),
(618,638,o),
(594,630,cs),
(548,614,ls),
(530,608,o),
(525,599,o),
(533,586,cs),
(560,537,ls),
(619,430,o),
(632,337,o),
(613,251,cs),
(580,96,o),
(459,0,o),
(300,0,cs),
(143,0,o),
(60,94,o),
(90,236,cs),
(118,368,o),
(219,456,o),
(340,456,cs),
(409,456,o),
(452,410,o),
(465,375,c),
(471,375,l),
(473,380,o),
(460,414,o),
(418,489,cs),
(390,538,ls),
(383,551,o),
(371,556,o),
(354,550,cs),
(284,526,ls),
(236,510,o),
(218,525,o),
(228,572,cs),
(232,595,o),
(247,611,o),
(271,619,cs)
);
},
{
closed = 1;
nodes = (
(394,125,o),
(446,168,o),
(460,235,cs),
(474,301,o),
(439,345,o),
(373,345,cs),
(306,345,o),
(254,302,o),
(240,235,cs),
(226,168,o),
(260,125,o),
(327,125,cs)
);
}
);
width = 600;
},
{
layerId = "A3C04AAB-708A-4E7C-A386-00C8304CC3CD";
shapes = (
{
closed = 1;
nodes = (
(351,623,ls),
(365,629,o),
(368,636,o),
(363,647,cs),
(349,674,ls),
(330,712,o),
(343,730,o),
(389,730,cs),
(412,730,o),
(429,720,o),
(438,701,cs),
(447,682,ls),
(453,671,o),
(461,668,o),
(474,674,cs),
(564,712,ls),
(600,727,o),
(614,718,o),
(606,682,cs),
(602,664,o),
(591,651,o),
(574,644,cs),
(504,614,ls),
(490,608,o),
(486,601,o),
(491,590,cs),
(538,493,ls),
(579,408,o),
(595,308,o),
(577,223,cs),
(548,83,o),
(436,-10,o),
(297,-10,cs),
(160,-10,o),
(87,80,o),
(116,215,cs),
(144,348,o),
(247,436,o),
(374,436,cs),
(432,436,o),
(466,404,o),
(476,380,c),
(490,380,l),
(487,393,o),
(472,429,o),
(447,480,cs),
(410,555,ls),
(404,566,o),
(395,569,o),
(382,563,cs),
(275,518,ls),
(240,503,o),
(226,512,o),
(233,548,cs),
(237,566,o),
(248,578,o),
(266,586,cs)
);
},
{
closed = 1;
nodes = (
(399,70,o),
(467,128,o),
(486,215,cs),
(504,302,o),
(461,360,o),
(376,360,cs),
(293,360,o),
(224,302,o),
(206,215,cs),
(187,128,o),
(231,70,o),
(314,70,cs)
);
}
);
width = 600;
},
{
layerId = "D6017CDA-DCCB-46D4-A8A1-3FBBF500E309";
shapes = (
{
closed = 1;
nodes = (
(379,617,ls),
(389,621,o),
(392,627,o),
(388,635,cs),
(358,694,ls),
(346,718,o),
(354,730,o),
(383,730,cs),
(398,730,o),
(408,724,o),
(414,712,c),
(441,657,ls),
(445,649,o),
(453,647,o),
(462,651,cs),
(587,704,l),
(604,712,o),
(611,706,o),
(607,688,cs),
(605,679,o),
(600,673,o),
(591,669,c),
(478,621,ls),
(468,617,o),
(465,611,o),
(469,603,cs),
(511,517,ls),
(567,402,o),
(584,302,o),
(565,213,cs),
(537,78,o),
(432,-10,o),
(298,-10,cs),
(165,-10,o),
(97,79,o),
(126,215,cs),
(154,350,o),
(254,436,o),
(383,436,cs),
(456,436,o),
(502,385,o),
(516,347,c),
(519,347,l),
(517,366,o),
(500,419,o),
(462,491,cs),
(416,581,ls),
(412,589,o),
(405,591,o),
(395,587,cs),
(253,526,ls),
(235,518,o),
(228,524,o),
(232,542,cs),
(234,551,o),
(239,557,o),
(248,561,c)
);
},
{
closed = 1;
nodes = (
(409,40,o),
(488,109,o),
(511,216,cs),
(533,318,o),
(478,390,o),
(383,390,cs),
(282,390,o),
(203,322,o),
(181,215,cs),
(158,108,o),
(208,40,o),
(309,40,cs)
);
}
);
width = 600;
}
);
unicode = 240;
},
{
color = (153, 254, 255, 255);
glyphname = dcaron;
layers = (
{
layerId = "78C5E225-AB5C-450D-A6D0-D457B4E69ACE";
shapes = (
{
closed = 1;
nodes = (
(337,47,o),
(322,34,qs),
(272,-10,o),
(216,-10,qs),
(131,-10,o),
(48,131,o),
(78,275,qs),
(109,419,o),
(236,560,o),
(321,560,qs),
(392,560,o),
(429,505,qs),
(435,498,o),
(437,492,qs),
(439,485,o),
(447,486,o),
(452,506,cs),
(485,665,ls),
(496,715,o),
(526,740,o),
(576,740,cs),
(626,740,o),
(646,715,o),
(635,665,cs),
(507,63,ls),
(497,14,o),
(468,-10,o),
(419,-10,cs),
(370,-10,o),
(352,13,o),
(362,62,cs),
(363,64,ls),
(364,69,o),
(360,69,o),
(356,65,cs)
);
},
{
closed = 1;
nodes = (
(319,140,o),
(386,199,o),
(394,235,qs),
(411,315,ls),
(421,361,o),
(378,420,o),
(335,420,qs),
(299,420,o),
(245,354,o),
(228,275,qs),
(212,197,o),
(240,140,o),
(276,140,qs)
);
},
{
closed = 1;
nodes = (
(633,550,o),
(619,569,o),
(630,607,cs),
(648,669,ls),
(660,710,o),
(686,730,o),
(727,730,cs),
(768,730,o),
(782,710,o),
(768,669,cs),
(748,607,ls),
(736,569,o),
(711,550,o),
(672,550,cs)
);
}
);
width = 600;
},
{
layerId = "A3C04AAB-708A-4E7C-A386-00C8304CC3CD";
shapes = (
{
closed = 1;
nodes = (
(370,45,o),
(344,27,qs),
(291,-10,o),
(236,-10,qs),
(163,-10,o),
(94,125,o),
(125,275,qs),
(157,425,o),
(284,560,o),
(357,560,qs),
(424,560,o),
(449,523,qs),
(464,500,o),
(475,476,qs),
(477,473,o),
(479,473,o),
(479,476,cs),
(526,695,ls),
(532,725,o),
(550,740,o),
(580,740,cs),
(610,740,o),
(622,725,o),
(616,695,cs),
(475,35,ls),
(469,5,o),
(451,-10,o),
(421,-10,cs),
(391,-10,o),
(379,5,o),
(385,35,cs),
(394,74,ls),
(394,76,o),
(391,77,o),
(390,74,cs)
);
},
{
closed = 1;
nodes = (
(316,73,o),
(413,163,o),
(422,205,qs),
(445,315,ls),
(459,381,o),
(405,475,o),
(366,475,qs),
(321,475,o),
(241,393,o),
(215,275,qs),
(191,158,o),
(237,73,o),
(274,73,qs)
);
},
{
closed = 1;
nodes = (
(645,550,o),
(635,562,o),
(643,587,cs),
(673,688,ls),
(681,716,o),
(699,730,o),
(727,730,cs),
(755,730,o),
(764,716,o),
(754,688,cs),
(720,587,ls),
(711,562,o),
(695,550,o),
(670,550,cs)
);
}
);
width = 600;
},
{
layerId = "D6017CDA-DCCB-46D4-A8A1-3FBBF500E309";
shapes = (
{
closed = 1;
nodes = (
(395,51,o),
(368,31,qs),
(311,-10,o),
(255,-10,qs),
(182,-10,o),
(112,129,o),
(143,275,qs),
(174,420,o),
(303,560,o),
(376,560,qs),
(442,560,o),
(471,519,qs),
(488,497,o),
(496,474,qs),
(497,471,o),
(500,471,o),
(501,475,cs),
(552,715,ls),
(556,732,o),
(565,740,o),
(582,740,cs),
(599,740,o),
(606,732,o),
(602,715,cs),
(453,15,ls),
(450,-2,o),
(440,-10,o),
(423,-10,cs),
(406,-10,o),
(400,-2,o),
(403,15,cs),
(416,75,ls),
(417,79,o),
(414,80,o),
(411,76,cs)
);
},
{
closed = 1;
nodes = (
(317,38,o),
(428,131,o),
(441,194,qs),
(475,355,ls),
(487,409,o),
(429,512,o),
(376,512,qs),
(319,512,o),
(221,404,o),
(193,275,qs),
(166,145,o),
(218,38,o),
(275,38,qs)
);
},
{
closed = 1;
nodes = (
(654,550,o),
(649,557,o),
(654,571,cs),
(701,704,ls),
(706,721,o),
(719,730,o),
(736,730,cs),
(753,730,o),
(758,721,o),
(752,704,cs),
(697,571,ls),
(691,557,o),
(682,550,o),
(668,550,cs)
);
}
);
width = 600;
}
);
unicode = 271;
},
{
color = (153, 254, 255, 255);
glyphname = dcroat;
layers = (
{
anchors = (
{
name = t.uni0308;
position = "{559, 700}";
}
);
layerId = "78C5E225-AB5C-450D-A6D0-D457B4E69ACE";
shapes = (
{
closed = 1;
nodes = (
(378,46,o),
(362,34,qs),
(302,-10,o),
(236,-10,qs),
(156,-10,o),
(66,121,o),
(94,255,qs),
(121,379,o),
(270,510,o),
(350,510,qs),
(424,510,o),
(456,475,qs),
(462,468,o),
(468,464,qs),
(473,460,o),
(482,461,o),
(484,469,cs),
(525,665,ls),
(536,715,o),
(566,740,o),
(616,740,cs),
(666,740,o),
(686,715,o),
(675,665,cs),
(547,63,ls),
(537,14,o),
(508,-10,o),
(459,-10,cs),
(410,-10,o),
(392,13,o),
(402,62,cs),
(403,64,ls),
(404,69,o),
(400,69,o),
(396,65,cs)
);
},
{
closed = 1;
nodes = (
(359,140,o),
(426,199,o),
(434,235,qs),
(440,265,ls),
(450,311,o),
(412,370,o),
(365,370,qs),
(324,370,o),
(258,319,o),
(244,255,qs),
(231,192,o),
(275,140,o),
(316,140,qs)
);
},
{
closed = 1;
nodes = (
(413,555,ls),
(376,555,o),
(362,573,o),
(370,610,cs),
(378,647,o),
(399,665,o),
(436,665,cs),
(696,665,ls),
(733,665,o),
(748,647,o),
(740,610,cs),
(732,573,o),
(710,555,o),
(673,555,cs)
);
}
);
width = 600;
},
{
anchors = (
{
name = _m.uni0308;
position = "{524, 488}";
},
{
name = _t.uni0308;
position = "{524, 488}";
},
{
name = t.uni0308;
position = "{569, 703}";
}
);
layerId = "A3C04AAB-708A-4E7C-A386-00C8304CC3CD";
shapes = (
{
closed = 1;
nodes = (
(410,45,o),
(384,27,qs),
(331,-10,o),
(266,-10,qs),
(183,-10,o),
(106,135,o),
(131,255,qs),
(157,375,o),
(293,510,o),
(376,510,qs),
(451,510,o),
(479,473,qs),
(495,451,o),
(505,426,qs),
(506,423,o),
(508,423,o),
(509,426,cs),
(566,695,ls),
(572,725,o),
(590,740,o),
(620,740,cs),
(650,740,o),
(662,725,o),
(656,695,cs),
(515,35,ls),
(509,5,o),
(491,-10,o),
(461,-10,cs),
(431,-10,o),
(419,5,o),
(425,35,cs),
(434,74,ls),
(434,76,o),
(431,77,o),
(430,74,cs)
);
},
{
closed = 1;
nodes = (
(356,73,o),
(453,163,o),
(462,205,qs),
(474,265,ls),
(488,331,o),
(432,425,o),
(385,425,qs),
(330,425,o),
(240,343,o),
(221,255,qs),
(203,168,o),
(257,73,o),
(304,73,qs)
);
},
{
closed = 1;
nodes = (
(419,572,ls),
(394,572,o),
(384,585,o),
(390,610,cs),
(395,635,o),
(410,647,o),
(435,647,cs),
(690,647,ls),
(715,647,o),
(725,635,o),
(720,610,cs),
(714,585,o),
(699,572,o),
(674,572,cs)
);
}
);
width = 600;
},
{
anchors = (
{
name = t.uni0308;
position = "{586, 687}";
}
);
layerId = "D6017CDA-DCCB-46D4-A8A1-3FBBF500E309";
shapes = (
{
closed = 1;
nodes = (
(435,51,o),
(408,31,qs),
(351,-10,o),
(285,-10,qs),
(202,-10,o),
(122,129,o),
(149,255,qs),
(174,370,o),
(312,510,o),
(395,510,qs),
(471,510,o),
(501,469,qs),
(517,447,o),
(525,424,qs),
(526,421,o),
(529,421,o),
(530,425,cs),
(592,715,ls),
(596,732,o),
(605,740,o),
(622,740,cs),
(639,740,o),
(646,732,o),
(642,715,cs),
(493,15,ls),
(490,-2,o),
(480,-10,o),
(463,-10,cs),
(446,-10,o),
(440,-2,o),
(443,15,cs),
(456,75,ls),
(457,79,o),
(454,80,o),
(451,76,cs)
);
},
{
closed = 1;
nodes = (
(357,38,o),
(468,131,o),
(481,194,qs),
(505,305,ls),
(516,359,o),
(458,462,o),
(395,462,qs),
(328,462,o),
(220,354,o),
(199,255,qs),
(176,145,o),
(238,38,o),
(305,38,qs)
);
},
{
closed = 1;
nodes = (
(436,588,ls),
(422,588,o),
(417,596,o),
(420,610,cs),
(423,624,o),
(431,631,o),
(445,631,cs),
(693,631,ls),
(707,631,o),
(713,624,o),
(710,610,cs),
(707,596,o),
(698,588,o),
(684,588,cs)
);
}
);
width = 600;
}
);
unicode = 273;
},
{
color = (153, 254, 255, 255);
glyphname = e;
layers = (
{
layerId = "AF231975-8591-4A9E-9633-127BEEE6582E";
name = "#instance";
shapes = (
{
closed = 1;
nodes = (
(534.126,137,o),
(515.339,138,o),
(482.874,117,cs),
(441.347,91,o),
(385.008,80,o),
(325.008,80,cs),
(268.008,80,o),
(220.087,118,o),
(221.118,184,cs),
(224.741,408,o),
(339.922,470,o),
(434.922,470,cs),
(492.922,470,o),
(525.757,441,o),
(527.253,401,cs),
(531.717,295,o),
(276.528,280,o),
(152.378,284,c),
(145.945,202,l),
(283.307,199,o),
(637.922,216,o),
(621.591,412,cs),
(614.15,504,o),
(564.056,560,o),
(446.056,560,cs),
(287.056,560,o),
(130.733,455,o),
(130.843,178,cs),
(131.032,66,o),
(203.874,-10,o),
(309.874,-10,cs),
(390.874,-10,o),
(471.213,1,o),
(532.354,44,cs),
(560.394,63,o),
(566.921,89,o),
(549.449,115,cs)
);
}
);
width = 600;
},
{
layerId = "78C5E225-AB5C-450D-A6D0-D457B4E69ACE";
shapes = (
{
closed = 1;
nodes = (
(529,169,o),
(495,165,o),
(478,155,cs),
(433,128,o),
(387,119,o),
(326,119,cs),
(283,119,o),
(245,149,o),
(245,194,cs),
(245,293,o),
(296,434,o),
(420,434,cs),
(466,434,o),
(482,414,o),
(486,384,cs),
(494,320,o),
(283,313,o),
(161,315,c),
(152,198,ls),
(329,193,o),
(632,216,o),
(609,430,cs),
(599,520,o),
(540,560,o),
(439,560,cs),
(214,560,o),
(118,371,o),
(118,180,cs),
(118,67,o),
(195,-10,o),
(303,-10,cs),
(391,-10,o),
(479,-1,o),
(541,53,cs),
(559,69,o),
(567,108,o),
(545,143,cs)
);
}
);
width = 600;
},
{
layerId = "A3C04AAB-708A-4E7C-A386-00C8304CC3CD";
shapes = (
{
closed = 1;
nodes = (
(534.126,137,o),
(515.339,138,o),
(482.874,117,cs),
(441.347,91,o),
(385.008,80,o),
(325.008,80,cs),
(268.008,80,o),
(220.087,118,o),
(221.118,184,cs),
(224.741,408,o),
(339.922,470,o),
(434.922,470,cs),
(492.922,470,o),
(525.757,441,o),
(527.253,401,cs),
(531.717,295,o),
(276.528,280,o),
(152.378,284,c),
(145.945,202,ls),
(283.307,199,o),
(637.922,216,o),
(621.591,412,cs),
(614.15,504,o),
(564.056,560,o),
(446.056,560,cs),
(287.056,560,o),
(130.733,455,o),
(130.843,178,cs),
(131.032,66,o),
(203.874,-10,o),
(309.874,-10,cs),
(390.874,-10,o),
(471.213,1,o),
(532.354,44,cs),
(560.394,63,o),
(566.921,89,o),
(549.449,115,cs)
);
}
);
width = 600;
},
{
layerId = "D6017CDA-DCCB-46D4-A8A1-3FBBF500E309";
shapes = (
{
closed = 1;
nodes = (
(532.961,108,o),
(521.961,108,o),
(505.984,94,cs),
(455.417,49,o),
(392.291,39,o),
(316.291,39,cs),
(250.291,39,o),
(196.134,90,o),
(195.654,163,cs),
(195.953,409,o),
(323.276,514,o),
(443.276,514,cs),
(496.276,514,o),
(548.536,487,o),
(548.843,432,cs),
(550.441,289,o),
(277.339,265,o),
(158.764,267,c),
(153.559,219,ls),
(274.134,217,o),
(601.087,245,o),
(596.418,430,cs),
(594.552,520,o),
(534.056,560,o),
(445.056,560,cs),
(294.056,560,o),
(145.119,438,o),
(145.504,167,cs),
(145.181,62,o),
(217.874,-10,o),
(309.874,-10,cs),
(397.874,-10,o),
(473.425,2,o),
(532.268,53,cs),
(547.032,66,o),
(550.221,81,o),
(541.197,95,cs)
);
}
);
width = 600;
}
);
unicode = 101;
},
{
color = (153, 254, 255, 255);
glyphname = schwa;
layers = (
{
layerId = "78C5E225-AB5C-450D-A6D0-D457B4E69ACE";
shapes = (
{
closed = 1;
nodes = (
(241,381,o),
(275,385,o),
(292,395,cs),
(337,422,o),
(383,431,o),
(444,431,cs),
(487,431,o),
(525,401,o),
(525,356,cs),
(525,257,o),
(474,116,o),
(350,116,cs),
(304,116,o),
(288,136,o),
(284,166,cs),
(276,230,o),
(487,237,o),
(609,235,c),
(618,352,l),
(441,357,o),
(138,334,o),
(161,120,cs),
(171,30,o),
(220,-10,o),
(331,-10,cs),
(556,-10,o),
(652,179,o),
(652,370,cs),
(652,483,o),
(575,560,o),
(467,560,cs),
(379,560,o),
(291,551,o),
(229,497,cs),
(211,481,o),
(203,442,o),
(225,407,cs)
);
}
);
width = 600;
},
{
layerId = "A3C04AAB-708A-4E7C-A386-00C8304CC3CD";
shapes = (
{
closed = 1;
nodes = (
(228.804,413,o),
(247.591,412,o),
(280.056,433,cs),
(321.583,459,o),
(377.922,470,o),
(437.922,470,cs),
(494.922,470,o),
(542.843,432,o),
(541.812,366,cs),
(538.189,142,o),
(423.008,80,o),
(328.008,80,cs),
(270.008,80,o),
(237.173,109,o),
(235.677,149,cs),
(231.213,255,o),
(486.402,270,o),
(610.552,266,c),
(616.985,348,l),
(479.623,351,o),
(125.008,334,o),
(141.339,138,cs),
(148.78,46,o),
(198.874,-10,o),
(316.874,-10,cs),
(475.874,-10,o),
(632.197,95,o),
(632.087,372,cs),
(631.898,484,o),
(559.056,560,o),
(453.056,560,cs),
(372.056,560,o),
(291.717,549,o),
(230.576,506,cs),
(202.536,487,o),
(196.009,461,o),
(213.481,435,cs)
);
}
);
width = 600;
},
{
layerId = "D6017CDA-DCCB-46D4-A8A1-3FBBF500E309";
shapes = (
{
closed = 1;
nodes = (
(217.039,442,o),
(228.039,442,o),
(244.016,456,cs),
(294.583,501,o),
(357.709,511,o),
(433.709,511,cs),
(499.709,511,o),
(553.866,460,o),
(554.346,387,cs),
(554.047,141,o),
(426.724,36,o),
(306.724,36,cs),
(253.724,36,o),
(201.464,63,o),
(201.157,118,cs),
(199.559,261,o),
(472.661,285,o),
(591.236,283,c),
(596.441,331,l),
(475.866,333,o),
(148.913,305,o),
(153.582,120,cs),
(155.448,30,o),
(215.944,-10,o),
(304.944,-10,cs),
(455.944,-10,o),
(604.881,112,o),
(604.496,383,cs),
(604.819,488,o),
(532.126,560,o),
(440.126,560,cs),
(352.126,560,o),
(276.575,548,o),
(217.732,497,cs),
(202.968,484,o),
(199.779,469,o),
(208.803,455,cs)
);
}
);
width = 600;
}
);
unicode = 601;
},
{
color = (153, 254, 255, 255);
glyphname = f;
layers = (
{
layerId = "AF231975-8591-4A9E-9633-127BEEE6582E";
name = "#instance";
shapes = (
{
closed = 1;
nodes = (
(616,470,ls),
(643,470,o),
(656,452,o),
(650,425,cs),
(645,398,o),
(624,380,o),
(597,380,cs),
(190,380,ls),
(163,380,o),
(150,398,o),
(155,425,cs),
(161,452,o),
(182,470,o),
(209,470,cs)
);
},
{
closed = 1;
nodes = (
(331,-20,ls),
(306,-137,o),
(185,-210,o),
(108,-210,qs),
(63,-210,ls),
(36,-210,o),
(21,-192,o),
(26,-165,cs),
(32,-138,o),
(55,-120,o),
(82,-120,cs),
(127,-120,ls),
(163,-120,o),
(229,-75,o),
(241,-20,qs),
(366,570,ls),
(381,640,o),
(497,730,o),
(574,730,qs),
(639,730,ls),
(666,730,o),
(681,712,o),
(676,685,cs),
(670,658,o),
(647,640,o),
(620,640,cs),
(555,640,ls),
(519,640,o),
(462,596,o),
(456,570,qs)
);
}
);
width = 600;
},
{
layerId = "78C5E225-AB5C-450D-A6D0-D457B4E69ACE";
shapes = (
{
closed = 1;
nodes = (
(605,475,ls),
(650,475,o),
(667,453,o),
(658,408,cs),
(648,363,o),
(621,340,o),
(576,340,cs),
(193,340,ls),
(148,340,o),
(131,363,o),
(141,408,cs),
(150,453,o),
(177,475,o),
(222,475,cs)
);
},
{
closed = 1;
nodes = (
(380,-10,ls),
(352,-143,o),
(205,-235,o),
(115,-235,qs),
(64,-235,ls),
(20,-235,o),
(3,-214,o),
(13,-170,cs),
(22,-126,o),
(47,-105,o),
(91,-105,cs),
(142,-105,ls),
(167,-105,o),
(218,-65,o),
(230,-10,qs),
(346,545,ls),
(363,627,o),
(500,730,o),
(590,730,qs),
(631,730,ls),
(675,730,o),
(692,709,o),
(682,665,cs),
(673,621,o),
(648,600,o),
(604,600,cs),
(563,600,ls),
(538,600,o),
(501,570,o),
(496,545,qs)
);
}
);
width = 600;
},
{
layerId = "A3C04AAB-708A-4E7C-A386-00C8304CC3CD";
shapes = (
{
closed = 1;
nodes = (
(616,470,ls),
(643,470,o),
(656,452,o),
(650,425,cs),
(645,398,o),
(624,380,o),
(597,380,cs),
(190,380,ls),
(163,380,o),
(150,398,o),
(155,425,cs),
(161,452,o),
(182,470,o),
(209,470,cs)
);
},
{
closed = 1;
nodes = (
(331,-20,ls),
(306,-137,o),
(185,-210,o),
(108,-210,qs),
(63,-210,ls),
(36,-210,o),
(21,-192,o),
(26,-165,cs),
(32,-138,o),
(55,-120,o),
(82,-120,cs),
(127,-120,ls),
(163,-120,o),
(229,-75,o),
(241,-20,qs),
(366,570,ls),
(381,640,o),
(497,730,o),
(574,730,qs),
(639,730,ls),
(666,730,o),
(681,712,o),
(676,685,cs),
(670,658,o),
(647,640,o),
(620,640,cs),
(555,640,ls),
(519,640,o),
(462,596,o),
(456,570,qs)
);
}
);
width = 600;
},
{
layerId = "D6017CDA-DCCB-46D4-A8A1-3FBBF500E309";
shapes = (
{
closed = 1;
nodes = (
(622,469,ls),
(637,469,o),
(645,460,o),
(642,445,cs),
(639,430,o),
(626,419,o),
(611,419,cs),
(188,419,ls),
(173,419,o),
(166,430,o),
(169,445,cs),
(172,460,o),
(184,469,o),
(199,469,cs)
);
},
{
closed = 1;
nodes = (
(311,-20,ls),
(293,-107,o),
(186,-185,o),
(125,-185,qs),
(66,-185,ls),
(51,-185,o),
(44,-175,o),
(47,-160,cs),
(50,-145,o),
(61,-135,o),
(76,-135,cs),
(135,-135,ls),
(173,-135,o),
(250,-72,o),
(261,-20,qs),
(391,595,ls),
(403,653,o),
(499,730,o),
(560,730,qs),
(649,730,ls),
(664,730,o),
(671,720,o),
(668,705,cs),
(665,690,o),
(654,680,o),
(639,680,cs),
(550,680,ls),
(512,680,o),
(448,627,o),
(441,595,qs)
);
}
);
width = 600;
}
);
unicode = 102;
},
{
color = (153, 254, 255, 255);
glyphname = g;
layers = (
{
layerId = "78C5E225-AB5C-450D-A6D0-D457B4E69ACE";
shapes = (
{
closed = 1;
nodes = (
(493.536,487,ls),
(504.166,537,o),
(531.056,560,o),
(579.056,560,cs),
(628.056,560,o),
(648.166,537,o),
(637.536,487,cs),
(545.906,56,ls),
(507.212,-126,o),
(419.598,-270,o),
(216.598,-270,cs),
(137.598,-270,o),
(72.763,-241,o),
(32.519,-181,cs),
(23.496,-167,o),
(19.535,-148,o),
(23.362,-130,cs),
(31.228,-93,o),
(73.732,-53,o),
(115.732,-53,cs),
(128.732,-53,o),
(141.882,-57,o),
(150.756,-67,cs),
(177.165,-98,o),
(212.299,-135,o),
(262.299,-135,cs),
(347.299,-135,o),
(374.646,-44,o),
(389.102,24,cs),
(395.055,52,l),
(361.126,10,o),
(291,0,o),
(249,0,cs),
(84,0,o),
(70.402,143,o),
(98.89,277,cs),
(125.89,404,o),
(199.056,560,o),
(358.056,560,cs),
(454.056,560,o),
(490.938,503,o),
(492.898,484,c)
);
},
{
closed = 1;
nodes = (
(292.355,425,o),
(262.922,343,o),
(248.89,277,cs),
(234.433,209,o),
(231.701,135,o),
(312.701,135,cs),
(375.701,135,o),
(423.756,187,o),
(436.087,245,cs),
(450.969,315,ls),
(462.449,369,o),
(429.355,425,o),
(369.355,425,cs)
);
}
);
width = 600;
},
{
layerId = "A3C04AAB-708A-4E7C-A386-00C8304CC3CD";
shapes = (
{
closed = 1;
nodes = (
(524.938,503,ls),
(531.954,536,o),
(544.056,560,o),
(582.056,560,cs),
(612.056,560,o),
(623.867,545,o),
(617.489,515,cs),
(500.984,-33,ls),
(475.685,-152,o),
(359.976,-240,o),
(248.976,-240,cs),
(145.976,-240,o),
(99.905,-198,o),
(72.685,-152,cs),
(65.236,-140,o),
(61.937,-132,o),
(64.488,-120,cs),
(69.165,-98,o),
(93.394,-64,o),
(123.394,-64,cs),
(138.394,-64,o),
(145.905,-71,o),
(151.992,-80,cs),
(171.464,-106,o),
(215.11,-150,o),
(265.11,-150,cs),
(319.11,-150,o),
(394.401,-111,o),
(408.008,-47,cs),
(436.071,85,l),
(394.016,33,o),
(332,0,o),
(263,0,cs),
(112,0,o),
(108.465,148,o),
(135.678,276,cs),
(162.89,404,o),
(231.056,560,o),
(387.056,560,cs),
(457.056,560,o),
(508.465,529,o),
(518.56,473,c)
);
},
{
closed = 1;
nodes = (
(283.41,477,o),
(242.898,357,o),
(225.252,274,cs),
(208.882,197,o),
(199.134,90,o),
(299.134,90,cs),
(385.134,90,o),
(455.205,175,o),
(470.3,246,cs),
(491.347,345,ls),
(504.741,408,o),
(455.41,477,o),
(381.41,477,cs)
);
}
);
width = 600;
},
{
layerId = "D6017CDA-DCCB-46D4-A8A1-3FBBF500E309";
shapes = (
{
closed = 1;
nodes = (
(553.741,535,ls),
(557.355,552,o),
(566.056,560,o),
(584.056,560,cs),
(601.056,560,o),
(607.355,552,o),
(603.741,535,cs),
(476.394,-64,ls),
(454.496,-167,o),
(344.228,-220,o),
(258.228,-220,cs),
(162.228,-220,o),
(119.819,-189,o),
(92.472,-153,cs),
(85.386,-144,o),
(82.874,-137,o),
(85.638,-124,cs),
(89.252,-107,o),
(100.803,-95,o),
(115.803,-95,cs),
(127.803,-95,o),
(132.527,-101,o),
(138.039,-108,cs),
(149.85,-123,o),
(199.858,-170,o),
(261.858,-170,cs),
(319.858,-170,o),
(411.086,-136,o),
(425.543,-68,cs),
(458.071,85,l),
(421.228,34,o),
(344,0,o),
(288,0,cs),
(133,0,o),
(127.103,151,o),
(153.465,275,cs),
(180.04,400,o),
(252.056,560,o),
(400.056,560,cs),
(467.056,560,o),
(528.04,527,o),
(539.709,469,c)
);
},
{
closed = 1;
nodes = (
(274.851,512,o),
(224.087,372,o),
(203.465,275,cs),
(183.268,180,o),
(176.63,50,o),
(301.63,50,cs),
(378.63,50,o),
(467.638,130,o),
(483.583,205,cs),
(515.686,356,ls),
(532.481,435,o),
(482.851,512,o),
(393.851,512,cs)
);
}
);
width = 600;
}
);
unicode = 103;
},
{
color = (153, 254, 255, 255);
glyphname = h;
layers = (
{
layerId = "78C5E225-AB5C-450D-A6D0-D457B4E69ACE";
shapes = (
{
closed = 1;
nodes = (
(207.379,665,ls),
(218.009,715,o),
(245.324,740,o),
(295.324,740,cs),
(345.324,740,o),
(363.009,715,o),
(352.379,665,cs),
(313.686,483,l),
(323.087,499,o),
(361.056,560,o),
(466.056,560,cs),
(595.056,560,o),
(635.709,469,o),
(611.473,355,cs),
(549.819,65,ls),
(539.189,15,o),
(508.874,-10,o),
(458.874,-10,cs),
(408.874,-10,o),
(389.189,15,o),
(399.819,65,cs),
(456.158,330,ls),
(465.938,376,o),
(460.355,425,o),
(405.355,425,cs),
(346.355,425,o),
(294.237,368,o),
(281.906,310,cs),
(229.819,65,ls),
(219.189,15,o),
(188.874,-10,o),
(138.874,-10,cs),
(88.874,-10,o),
(69.189,15,o),
(79.819,65,cs)
);
}
);
width = 600;
},
{
layerId = "A3C04AAB-708A-4E7C-A386-00C8304CC3CD";
shapes = (
{
closed = 1;
nodes = (
(239.757,695,ls),
(246.135,725,o),
(264.324,740,o),
(294.324,740,cs),
(324.324,740,o),
(336.135,725,o),
(329.757,695,cs),
(283.623,478,l),
(322.741,535,o),
(386.056,560,o),
(449.056,560,cs),
(563.056,560,o),
(612.898,484,o),
(588.662,370,cs),
(517.441,35,ls),
(511.063,5,o),
(492.874,-10,o),
(462.874,-10,cs),
(432.874,-10,o),
(421.063,5,o),
(427.441,35,cs),
(493.134,344,ls),
(507.804,413,o),
(485.922,470,o),
(409.922,470,cs),
(328.922,470,o),
(267.89,404,o),
(252.158,330,cs),
(189.441,35,ls),
(183.063,5,o),
(164.874,-10,o),
(134.874,-10,cs),
(104.874,-10,o),
(93.063,5,o),
(99.441,35,cs)
);
}
);
width = 600;
},
{
layerId = "D6017CDA-DCCB-46D4-A8A1-3FBBF500E309";
shapes = (
{
closed = 1;
nodes = (
(262.009,715,ls),
(265.623,732,o),
(275.324,740,o),
(292.324,740,cs),
(309.324,740,o),
(315.623,732,o),
(312.009,715,cs),
(262.686,483,l),
(312.316,533,o),
(364.056,560,o),
(441.056,560,cs),
(549.056,560,o),
(593.198,476,o),
(570.024,367,cs),
(495.189,15,ls),
(491.575,-2,o),
(481.874,-10,o),
(464.874,-10,cs),
(447.874,-10,o),
(441.575,-2,o),
(445.189,15,cs),
(517.473,355,ls),
(535.119,438,o),
(509.426,510,o),
(418.426,510,cs),
(324.426,510,o),
(251.843,432,o),
(233.347,345,cs),
(163.189,15,ls),
(159.575,-2,o),
(149.874,-10,o),
(132.874,-10,cs),
(115.874,-10,o),
(109.575,-2,o),
(113.189,15,cs)
);
}
);
width = 600;
}
);
unicode = 104;
},
{
color = (153, 254, 255, 255);
glyphname = idotless;
layers = (
{
layerId = "78C5E225-AB5C-450D-A6D0-D457B4E69ACE";
shapes = (
{
closed = 1;
nodes = (
(403.244,194,ls),
(390.953,155,o),
(411.213,128,o),
(429.213,128,cs),
(454.213,128,o),
(474.827,145,o),
(503.567,172,cs),
(533.52,200,o),
(557.945,202,o),
(585.843,178,cs),
(616.315,152,o),
(617.362,124,o),
(590.622,97,cs),
(525.803,32,o),
(459.087,-9,o),
(384.087,-9,cs),
(274.087,-9,o),
(214.032,66,o),
(248.142,170,cs),
(304.071,339,ls),
(315.938,376,o),
(301.914,390,o),
(263.363,378,cs),
(220.599,365,ls),
(173.623,351,o),
(160.276,387,o),
(169.418,430,cs),
(179.41,477,o),
(206.749,488,o),
(254.3,500,cs),
(374.678,530,ls),
(454.93,550,o),
(493.174,490,o),
(469.166,410,cs)
);
}
);
width = 600;
},
{
layerId = "A3C04AAB-708A-4E7C-A386-00C8304CC3CD";
shapes = (
{
closed = 1;
nodes = (
(387.622,224,ls),
(357.575,125,o),
(372.158,76,o),
(416.158,76,cs),
(458.158,76,o),
(483.835,98,o),
(513.425,129,cs),
(536.528,153,o),
(555.378,157,o),
(573.977,141,cs),
(594.15,123,o),
(592.473,101,o),
(570.795,79,cs),
(516.102,24,o),
(463.874,-10,o),
(390.874,-10,cs),
(290.874,-10,o),
(253.543,59,o),
(284.229,161,cs),
(352.914,390,ls),
(359.379,411,o),
(344.654,417,o),
(321.166,410,cs),
(232.426,383,ls),
(205.725,375,o),
(181.615,398,o),
(187.607,445,cs),
(191.347,472,o),
(212.473,482,o),
(241.174,490,cs),
(392.678,530,ls),
(447.867,545,o),
(472.15,504,o),
(455.67,450,cs)
);
}
);
width = 600;
},
{
layerId = "D6017CDA-DCCB-46D4-A8A1-3FBBF500E309";
shapes = (
{
closed = 1;
nodes = (
(357.67,196,ls),
(322.52,73,o),
(348.717,41,o),
(397.717,41,cs),
(452.717,41,o),
(481.819,65,o),
(519.536,106,cs),
(531.087,118,o),
(537.362,124,o),
(549.236,114,cs),
(560.898,103,o),
(560.559,92,o),
(550.221,81,cs),
(493.89,23,o),
(452.874,-10,o),
(379.874,-10,cs),
(297.874,-10,o),
(271.543,59,o),
(298.953,155,cs),
(381.67,450,ls),
(386.922,470,o),
(378.198,476,o),
(357.922,470,cs),
(226.418,430,ls),
(210.355,425,o),
(203.67,450,o),
(206.859,465,cs),
(210.048,480,o),
(221.324,486,o),
(237.174,490,cs),
(388.678,530,ls),
(429.017,541,o),
(447.426,510,o),
(435.922,470,cs)
);
}
);
width = 600;
}
);
unicode = 305;
},
{
color = (153, 254, 255, 255);
glyphname = ij;
layers = (
{
layerId = "78C5E225-AB5C-450D-A6D0-D457B4E69ACE";
shapes = (
{
closed = 1;
nodes = (
(114,-180,ls),
(69,-180,o),
(51,-158,o),
(61,-113,cs),
(71,-68,o),
(97,-45,o),
(142,-45,cs),
(270,-45,ls),
(308,-45,o),
(366,5,o),
(375,45,qs),
(466,475,ls),
(477,525,o),
(507,550,o),
(557,550,cs),
(607,550,o),
(627,525,o),
(616,475,cs),
(524,40,ls),
(502,-62,o),
(357,-180,o),
(253,-180,qs)
);
},
{
closed = 1;
nodes = (
(186,475,ls),
(197,525,o),
(227,550,o),
(277,550,cs),
(327,550,o),
(347,525,o),
(336,475,cs),
(265,140,ls),
(254,90,o),
(224,65,o),
(174,65,cs),
(124,65,o),
(104,90,o),
(115,140,cs)
);
},
{
closed = 1;
nodes = (
(254,637,o),
(214,679,o),
(222,715,qs),
(230,751,o),
(288,793,o),
(329,793,qs),
(370,793,o),
(410,751,o),
(402,715,qs),
(394,679,o),
(336,637,o),
(295,637,qs)
);
},
{
closed = 1;
nodes = (
(534,637,o),
(494,679,o),
(502,715,qs),
(510,751,o),
(568,793,o),
(609,793,qs),
(650,793,o),
(690,751,o),
(682,715,qs),
(674,679,o),
(616,637,o),
(575,637,qs)
);
}
);
width = 600;
},
{
layerId = "A3C04AAB-708A-4E7C-A386-00C8304CC3CD";
shapes = (
{
closed = 1;
nodes = (
(111,-180,ls),
(84,-180,o),
(73,-166,o),
(78,-139,cs),
(84,-112,o),
(101,-98,o),
(128,-98,cs),
(253,-98,ls),
(315,-98,o),
(399,-30,o),
(412,31,qs),
(512,505,ls),
(519,535,o),
(537,550,o),
(567,550,cs),
(597,550,o),
(609,535,o),
(602,505,cs),
(502,31,ls),
(481,-66,o),
(337,-180,o),
(236,-180,qs)
);
},
{
closed = 1;
nodes = (
(215,505,ls),
(222,535,o),
(240,550,o),
(270,550,cs),
(300,550,o),
(312,535,o),
(305,505,cs),
(208,45,ls),
(201,15,o),
(183,0,o),
(153,0,cs),
(123,0,o),
(111,15,o),
(118,45,cs)
);
},
{
closed = 1;
nodes = (
(256,649,o),
(225,683,o),
(231,712,qs),
(238,742,o),
(283,777,o),
(316,777,qs),
(349,777,o),
(380,742,o),
(373,712,qs),
(367,683,o),
(322,649,o),
(289,649,qs)
);
},
{
closed = 1;
nodes = (
(554,649,o),
(523,683,o),
(529,712,qs),
(536,742,o),
(581,777,o),
(614,777,qs),
(647,777,o),
(678,742,o),
(671,712,qs),
(665,683,o),
(620,649,o),
(587,649,qs)
);
}
);
width = 600;
},
{
layerId = "D6017CDA-DCCB-46D4-A8A1-3FBBF500E309";
shapes = (
{
closed = 1;
nodes = (
(112,-180,ls),
(97,-180,o),
(90,-173,o),
(93,-158,cs),
(97,-143,o),
(106,-135,o),
(121,-135,cs),
(252,-135,ls),
(323,-135,o),
(412,-60,o),
(427,10,qs),
(537,525,ls),
(540,542,o),
(550,550,o),
(567,550,cs),
(584,550,o),
(590,542,o),
(587,525,cs),
(477,10,ls),
(458,-79,o),
(335,-180,o),
(243,-180,qs)
);
},
{
closed = 1;
nodes = (
(239,525,ls),
(242,542,o),
(252,550,o),
(269,550,cs),
(286,550,o),
(292,542,o),
(289,525,cs),
(182,25,ls),
(179,8,o),
(169,0,o),
(152,0,cs),
(135,0,o),
(129,8,o),
(132,25,cs)
);
},
{
closed = 1;
nodes = (
(265,655,o),
(240,685,o),
(245,710,qs),
(250,735,o),
(289,765,o),
(315,765,qs),
(341,765,o),
(366,735,o),
(361,710,qs),
(356,685,o),
(317,655,o),
(291,655,qs)
);
},
{
closed = 1;
nodes = (
(561,655,o),
(536,685,o),
(541,710,qs),
(546,735,o),
(585,765,o),
(611,765,qs),
(637,765,o),
(662,735,o),
(657,710,qs),
(652,685,o),
(613,655,o),
(587,655,qs)
);
}
);
width = 600;
}
);
unicode = 307;
},
{
color = (153, 254, 255, 255);
glyphname = ij_acute;
layers = (
{
anchors = (
{
name = m.uni0308;
position = "{662, 785}";
}
);
layerId = "78C5E225-AB5C-450D-A6D0-D457B4E69ACE";
shapes = (
{
closed = 1;
nodes = (
(71,-68,o),
(97,-45,o),
(142,-45,cs),
(270,-45,ls),
(308,-45,o),
(366,5,o),
(375,45,qs),
(466,475,ls),
(477,525,o),
(507,550,o),
(557,550,cs),
(607,550,o),
(627,525,o),
(616,475,cs),
(524,40,ls),
(502,-62,o),
(357,-180,o),
(253,-180,qs),
(114,-180,ls),
(69,-180,o),
(51,-158,o),
(61,-113,cs)
);
},
{
closed = 1;
nodes = (
(124,65,o),
(104,90,o),
(115,140,cs),
(186,475,ls),
(197,525,o),
(227,550,o),
(277,550,cs),
(327,550,o),
(347,525,o),
(336,475,cs),
(265,140,ls),
(254,90,o),
(224,65,o),
(174,65,cs)
);
},
{
closed = 1;
nodes = (
(531,645,o),
(525,671,o),
(576,724,cs),
(595,745,ls),
(626,778,o),
(656,785,o),
(695,785,cs),
(762,785,o),
(768,759,o),
(714,708,cs),
(688,683,ls),
(662,657,o),
(631,645,o),
(598,645,cs)
);
},
{
closed = 1;
nodes = (
(247,645,o),
(241,671,o),
(292,724,cs),
(311,745,ls),
(342,778,o),
(372,785,o),
(411,785,cs),
(478,785,o),
(484,759,o),
(430,708,cs),
(404,683,ls),
(378,657,o),
(347,645,o),
(314,645,cs)
);
}
);
width = 600;
},
{
anchors = (
{
name = m.uni0308;
position = "{662, 785}";
}
);
layerId = "A3C04AAB-708A-4E7C-A386-00C8304CC3CD";
shapes = (
{
closed = 1;
nodes = (
(84,-112,o),
(101,-98,o),
(128,-98,cs),
(253,-98,ls),
(315,-98,o),
(399,-30,o),
(412,31,qs),
(512,505,ls),
(519,535,o),
(537,550,o),
(567,550,cs),
(597,550,o),
(609,535,o),
(602,505,cs),
(502,31,ls),
(481,-66,o),
(337,-180,o),
(236,-180,qs),
(111,-180,ls),
(84,-180,o),
(73,-166,o),
(78,-139,cs)
);
},
{
closed = 1;
nodes = (
(123,0,o),
(111,15,o),
(118,45,cs),
(215,505,ls),
(222,535,o),
(240,550,o),
(270,550,cs),
(300,550,o),
(312,535,o),
(305,505,cs),
(208,45,ls),
(201,15,o),
(183,0,o),
(153,0,cs)
);
},
{
closed = 1;
nodes = (
(554,645,o),
(549,661,o),
(582,694,cs),
(644,759,ls),
(661,776,o),
(680,785,o),
(702,785,cs),
(745,785,o),
(750,768,o),
(716,734,cs),
(650,669,ls),
(634,653,o),
(616,645,o),
(595,645,cs)
);
},
{
closed = 1;
nodes = (
(265,645,o),
(260,661,o),
(293,694,cs),
(355,759,ls),
(372,776,o),
(391,785,o),
(413,785,cs),
(456,785,o),
(461,768,o),
(427,734,cs),
(361,669,ls),
(345,653,o),
(327,645,o),
(306,645,cs)
);
}
);
width = 600;
},
{
anchors = (
{
name = m.uni0308;
position = "{666, 785}";
}
);
layerId = "D6017CDA-DCCB-46D4-A8A1-3FBBF500E309";
shapes = (
{
closed = 1;
nodes = (
(97,-143,o),
(106,-135,o),
(121,-135,cs),
(252,-135,ls),
(323,-135,o),
(412,-60,o),
(427,10,qs),
(537,525,ls),
(540,542,o),
(550,550,o),
(567,550,cs),
(584,550,o),
(590,542,o),
(587,525,cs),
(477,10,ls),
(458,-79,o),
(335,-180,o),
(243,-180,qs),
(112,-180,ls),
(97,-180,o),
(90,-173,o),
(93,-158,cs)
);
},
{
closed = 1;
nodes = (
(135,0,o),
(129,8,o),
(132,25,cs),
(239,525,ls),
(242,542,o),
(252,550,o),
(269,550,cs),
(286,550,o),
(292,542,o),
(289,525,cs),
(182,25,ls),
(179,8,o),
(169,0,o),
(152,0,cs)
);
},
{
closed = 1;
nodes = (
(568,645,o),
(566,654,o),
(584,673,cs),
(677,769,ls),
(688,780,o),
(700,785,o),
(713,785,cs),
(739,785,o),
(741,775,o),
(720,754,cs),
(624,659,ls),
(615,650,o),
(604,645,o),
(592,645,cs)
);
},
{
closed = 1;
nodes = (
(273,645,o),
(271,654,o),
(289,673,cs),
(382,769,ls),
(393,780,o),
(405,785,o),
(418,785,cs),
(444,785,o),
(446,775,o),
(425,754,cs),
(329,659,ls),
(320,650,o),
(309,645,o),
(297,645,cs)
);
}
);
width = 600;
}
);
},
{
color = (153, 254, 255, 255);
glyphname = jdotless;
layers = (
{
layerId = "78C5E225-AB5C-450D-A6D0-D457B4E69ACE";
shapes = (
{
closed = 1;
nodes = (
(474.78,46,ls),
(430.559,-162,o),
(351.598,-270,o),
(167.598,-270,cs),
(124.598,-270,o),
(61.874,-264,o),
(3.519,-181,cs),
(-6.504,-167,o),
(-8.827,-145,o),
(-5.425,-129,cs),
(1.803,-95,o),
(43.732,-53,o),
(83.732,-53,cs),
(104.732,-53,o),
(117.968,-66,o),
(134.504,-87,cs),
(148.464,-106,o),
(165.299,-135,o),
(205.299,-135,cs),
(261.299,-135,o),
(296.079,-89,o),
(319.677,22,cs),
(387.071,339,ls),
(394.938,376,o),
(384.701,389,o),
(346.363,378,cs),
(273.898,357,ls),
(224.922,343,o),
(213.575,379,o),
(222.717,422,cs),
(232.709,469,o),
(261.048,480,o),
(307.599,492,cs),
(457.678,530,ls),
(537.93,550,o),
(569.174,490,o),
(552.166,410,cs)
);
}
);
width = 600;
},
{
layerId = "A3C04AAB-708A-4E7C-A386-00C8304CC3CD";
shapes = (
{
closed = 1;
nodes = (
(432.984,-33,ls),
(406.622,-157,o),
(300.976,-240,o),
(188.976,-240,cs),
(110.976,-240,o),
(63.693,-199,o),
(29.535,-148,cs),
(23.236,-140,o),
(22.575,-129,o),
(24.275,-121,cs),
(28.953,-99,o),
(51.543,-68,o),
(83.543,-68,cs),
(100.543,-68,o),
(110.779,-81,o),
(118.441,-92,cs),
(138.85,-123,o),
(161.11,-150,o),
(206.11,-150,cs),
(264.11,-150,o),
(325.976,-113,o),
(340.008,-47,cs),
(432.914,390,ls),
(437.379,411,o),
(424.442,416,o),
(401.166,410,cs),
(292.426,383,ls),
(265.938,376,o),
(241.615,398,o),
(247.607,445,cs),
(251.347,472,o),
(272.686,483,o),
(301.174,490,cs),
(472.678,530,ls),
(527.442,543,o),
(547.15,504,o),
(535.67,450,cs)
);
}
);
width = 600;
},
{
layerId = "D6017CDA-DCCB-46D4-A8A1-3FBBF500E309";
shapes = (
{
closed = 1;
nodes = (
(402.606,-63,ls),
(382.834,-156,o),
(292.228,-220,o),
(192.228,-220,cs),
(104.228,-220,o),
(63.858,-170,o),
(44.386,-144,cs),
(40.449,-139,o),
(41.149,-131,o),
(42.,-127,cs),
(44.764,-114,o),
(60.016,-94,o),
(72.016,-94,cs),
(79.016,-94,o),
(85.527,-101,o),
(93.401,-111,cs),
(122.96,-146,o),
(151.858,-170,o),
(200.858,-170,cs),
(269.858,-170,o),
(339.85,-123,o),
(351.756,-67,cs),
(461.67,450,ls),
(465.922,470,o),
(457.985,475,o),
(437.922,470,cs),
(286.418,430,ls),
(270.568,426,o),
(263.67,450,o),
(266.859,465,cs),
(270.048,480,o),
(281.324,486,o),
(297.174,490,cs),
(468.678,530,ls),
(508.591,539,o),
(524.426,510,o),
(515.922,470,cs)
);
}
);
width = 600;
}
);
unicode = 567;
},
{
color = (153, 254, 255, 255);
glyphname = k;
layers = (
{
layerId = "AF231975-8591-4A9E-9633-127BEEE6582E";
name = "#instance";
shapes = (
{
closed = 1;
nodes = (
(197.441,35,ls),
(191.063,5,o),
(172.874,-10,o),
(142.874,-10,cs),
(112.874,-10,o),
(101.063,5,o),
(107.441,35,cs),
(247.757,695,ls),
(254.135,725,o),
(272.324,740,o),
(302.324,740,cs),
(332.324,740,o),
(344.135,725,o),
(337.757,695,cs),
(260.583,332,ls),
(258.67,323,o),
(263.607,318,o),
(273.308,326,cs),
(529.591,539,ls),
(546.568,553,o),
(564.056,560,o),
(583.056,560,cs),
(619.056,560,o),
(627.402,524,o),
(596.662,497,cs),
(432.686,356,ls),
(420.56,346,o),
(417.434,336,o),
(421.882,324,cs),
(527.78,46,ls),
(539.402,16,o),
(512.874,-10,o),
(488.874,-10,cs),
(466.874,-10,o),
(443.874,-10,o),
(433.827,18,cs),
(342.489,261,ls),
(338.04,273,o),
(332.252,274,o),
(318.914,263,cs),
(246.945,202,ls),
(233.607,191,o),
(228.268,180,o),
(225.504,167,cs)
);
}
);
width = 600;
},
{
layerId = "78C5E225-AB5C-450D-A6D0-D457B4E69ACE";
shapes = (
{
closed = 1;
nodes = (
(238.819,65,ls),
(228.189,15,o),
(197.874,-10,o),
(147.874,-10,cs),
(97.874,-10,o),
(78.189,15,o),
(88.819,65,cs),
(216.379,665,ls),
(227.009,715,o),
(257.324,740,o),
(307.324,740,cs),
(357.324,740,o),
(377.009,715,o),
(366.379,665,cs),
(309.615,398,ls),
(307.276,387,o),
(315.213,382,o),
(325.127,391,cs),
(485.04,527,ls),
(510.717,549,o),
(539.056,560,o),
(570.056,560,cs),
(618.056,560,o),
(646.001,508,o),
(592.583,459,cs),
(469.56,346,ls),
(455.796,333,o),
(451.032,320,o),
(457.056,306,cs),
(551.284,86,ls),
(572.079,38,o),
(520.874,-10,o),
(475.874,-10,cs),
(437.874,-10,o),
(410.213,1,o),
(397.016,33,cs),
(328.095,198,ls),
(322.859,211,o),
(313.496,214,o),
(298.945,202,c),
(281.756,187,ls),
(261.929,169,o),
(259.229,161,o),
(255.614,144,cs)
);
}
);
width = 600;
},
{
layerId = "A3C04AAB-708A-4E7C-A386-00C8304CC3CD";
shapes = (
{
closed = 1;
nodes = (
(197.441,35,ls),
(191.063,5,o),
(172.874,-10,o),
(142.874,-10,cs),
(112.874,-10,o),
(101.063,5,o),
(107.441,35,cs),
(247.757,695,ls),
(254.135,725,o),
(272.324,740,o),
(302.324,740,cs),
(332.324,740,o),
(344.135,725,o),
(337.757,695,cs),
(260.583,332,ls),
(258.67,323,o),
(263.607,318,o),
(273.308,326,cs),
(529.591,539,ls),
(546.568,553,o),
(564.056,560,o),
(583.056,560,cs),
(619.056,560,o),
(627.402,524,o),
(596.662,497,cs),
(432.686,356,ls),
(420.56,346,o),
(417.434,336,o),
(421.882,324,cs),
(527.78,46,ls),
(539.402,16,o),
(512.874,-10,o),
(488.874,-10,cs),
(466.874,-10,o),
(443.874,-10,o),
(433.827,18,cs),
(342.489,261,ls),
(338.04,273,o),
(332.252,274,o),
(318.914,263,cs),
(246.945,202,ls),
(233.607,191,o),
(228.268,180,o),
(225.504,167,cs)
);
}
);
width = 600;
},
{
layerId = "D6017CDA-DCCB-46D4-A8A1-3FBBF500E309";
shapes = (
{
closed = 1;
nodes = (
(173.189,15,ls),
(169.575,-2,o),
(159.874,-10,o),
(142.874,-10,cs),
(125.874,-10,o),
(119.575,-2,o),
(123.189,15,cs),
(272.009,715,ls),
(275.623,732,o),
(285.324,740,o),
(302.324,740,cs),
(319.324,740,o),
(325.623,732,o),
(322.009,715,cs),
(230.591,285,ls),
(229.315,279,o),
(233.678,276,o),
(239.741,281,cs),
(554.08,546,ls),
(564.993,555,o),
(576.056,560,o),
(589.056,560,cs),
(607.056,560,o),
(616.954,536,o),
(597.339,519,cs),
(405.473,355,ls),
(397.985,348,o),
(395.284,340,o),
(398.371,331,cs),
(514.89,23,ls),
(520.701,8,o),
(504.874,-10,o),
(488.874,-10,cs),
(475.874,-10,o),
(467.15,-4,o),
(463.488,7,c),
(356.142,297,ls),
(353.056,306,o),
(347.056,306,o),
(338.567,299,cs),
(222.52,200,ls),
(214.032,193,o),
(209.118,184,o),
(206.992,174,cs)
);
}
);
width = 600;
}
);
unicode = 107;
},
{
color = (153, 254, 255, 255);
glyphname = l;
layers = (
{
layerId = "AF231975-8591-4A9E-9633-127BEEE6582E";
name = "#instance";
shapes = (
{
closed = 1;
nodes = (
(528.473,101,o),
(530.15,123,o),
(509.977,141,cs),
(491.378,157,o),
(472.528,153,o),
(449.425,129,cs),
(419.835,98,o),
(384.158,76,o),
(342.158,76,cs),
(298.158,76,o),
(284.449,115,o),
(292.158,203,cs),
(321.591,539,o),
(427.253,655,o),
(491.253,655,cs),
(519.253,655,o),
(532.088,626,o),
(524.371,585,cs),
(487.701,389,o),
(348.063,259,o),
(84.103,151,cs),
(53.339,138,o),
(41.299,119,o),
(47.347,91,cs),
(53.181,62,o),
(70.48,54,o),
(101.032,66,cs),
(413.607,191,o),
(565.434,336,o),
(615.221,589,cs),
(630.166,664,o),
(613.324,740,o),
(514.324,740,cs),
(366.324,740,o),
(248.773,601,o),
(202.229,161,cs),
(191.756,60,o),
(216.874,-10,o),
(316.874,-10,cs),
(389.874,-10,o),
(452.102,24,o),
(506.795,79,cs)
);
}
);
width = 600;
},
{
layerId = "78C5E225-AB5C-450D-A6D0-D457B4E69ACE";
shapes = (
{
closed = 1;
nodes = (
(554,124,o),
(552,152,o),
(522,178,cs),
(494,202,o),
(470,200,o),
(440,172,cs),
(411,145,o),
(380,128,o),
(355,128,cs),
(337,128,o),
(319,158,o),
(323,197,cs),
(346,444,o),
(413,605,o),
(471,605,cs),
(494,605,o),
(492,562,o),
(486,538,cs),
(453,406,o),
(334,301,o),
(110,207,cs),
(69,190,o),
(53,162,o),
(61,119,cs),
(69,76,o),
(93,62,o),
(134,78,cs),
(427,197,o),
(577,331,o),
(624,536,cs),
(647,635,o),
(627,740,o),
(505,740,cs),
(307,740,o),
(225,532,o),
(184,170,cs),
(172,65,o),
(210,-9,o),
(320,-9,cs),
(395,-9,o),
(463,32,o),
(527,97,cs)
);
}
);
width = 600;
},
{
layerId = "A3C04AAB-708A-4E7C-A386-00C8304CC3CD";
shapes = (
{
closed = 1;
nodes = (
(528.473,101,o),
(530.15,123,o),
(509.977,141,cs),
(491.378,157,o),
(472.528,153,o),
(449.425,129,cs),
(419.835,98,o),
(384.158,76,o),
(342.158,76,cs),
(298.158,76,o),
(284.449,115,o),
(292.158,203,cs),
(321.591,539,o),
(427.253,655,o),
(491.253,655,cs),
(519.253,655,o),
(532.088,626,o),
(524.371,585,cs),
(487.701,389,o),
(348.063,259,o),
(84.103,151,cs),
(53.339,138,o),
(41.299,119,o),
(47.347,91,cs),
(53.181,62,o),
(70.48,54,o),
(101.032,66,cs),
(413.607,191,o),
(565.434,336,o),
(615.221,589,cs),
(630.166,664,o),
(613.324,740,o),
(514.324,740,cs),
(366.324,740,o),
(248.773,601,o),
(202.229,161,cs),
(191.756,60,o),
(216.874,-10,o),
(316.874,-10,cs),
(389.874,-10,o),
(452.102,24,o),
(506.795,79,cs)
);
}
);
width = 600;
},
{
layerId = "D6017CDA-DCCB-46D4-A8A1-3FBBF500E309";
shapes = (
{
closed = 1;
nodes = (
(526,92,o),
(526,103,o),
(514,114,cs),
(502,124,o),
(492,123,o),
(481,111,cs),
(443,70,o),
(398,41,o),
(343,41,cs),
(284,41,o),
(258,93,o),
(273,196,cs),
(326,568,o),
(431,694,o),
(521,694,cs),
(563,694,o),
(568,645,o),
(562,618,cs),
(506,341,o),
(360,227,o),
(72,110,cs),
(55,103,o),
(49,92,o),
(52,74,cs),
(55,56,o),
(64,50,o),
(81,57,cs),
(400,185,o),
(569,324,o),
(616,616,cs),
(625,672,o),
(616,740,o),
(527,740,cs),
(368,740,o),
(271,572,o),
(219,155,cs),
(207,59,o),
(233,-10,o),
(325,-10,cs),
(398,-10,o),
(459,23,o),
(515,81,cs)
);
}
);
width = 600;
}
);
unicode = 108;
},
{
color = (153, 254, 255, 255);
glyphname = m;
layers = (
{
layerId = "78C5E225-AB5C-450D-A6D0-D457B4E69ACE";
shapes = (
{
closed = 1;
nodes = (
(59,-10,o),
(35,10,o),
(44,54,cs),
(139,499,ls),
(148,541,o),
(179,560,o),
(216,560,cs),
(257,560,o),
(277,537,o),
(269,499,cs),
(267,490,l),
(297,536,o),
(328,560,o),
(374,560,cs),
(422,560,o),
(448,534,o),
(456,493,c),
(479,534,o),
(520,560,o),
(572,560,cs),
(639,560,o),
(676,515,o),
(661,440,cs),
(578,54,ls),
(569,10,o),
(538,-10,o),
(496,-10,cs),
(453,-10,o),
(429,11,o),
(439,55,cs),
(511,393,ls),
(515,412,o),
(509,436,o),
(488,436,cs),
(466,436,o),
(453,412,o),
(449,393,cs),
(375,49,ls),
(367,8,o),
(337,-10,o),
(298,-10,cs),
(259,-10,o),
(237,8,o),
(245,49,cs),
(319,393,ls),
(323,412,o),
(320,436,o),
(298,436,cs),
(276,436,o),
(261,412,o),
(257,393,cs),
(185,55,ls),
(175,11,o),
(145,-10,o),
(102,-10,cs)
);
}
);
width = 600;
},
{
layerId = "A3C04AAB-708A-4E7C-A386-00C8304CC3CD";
shapes = (
{
closed = 1;
nodes = (
(76,0,o),
(58,13,o),
(64,42,cs),
(166,521,ls),
(171,548,o),
(194,560,o),
(219,560,cs),
(245,560,o),
(255,547,o),
(251,526,cs),
(244,495,l),
(270,534,o),
(305,560,o),
(349,560,cs),
(400,560,o),
(434,536,o),
(433,496,c),
(465,537,o),
(498,560,o),
(552,560,cs),
(630,560,o),
(651,497,o),
(634,418,cs),
(554,42,ls),
(548,13,o),
(525,0,o),
(498,0,cs),
(471,0,o),
(454,13,o),
(460,42,cs),
(538,409,ls),
(546,445,o),
(540,481,o),
(498,481,cs),
(457,481,o),
(437,446,o),
(429,410,cs),
(350,37,ls),
(344,11,o),
(324,0,o),
(300,0,cs),
(276,0,o),
(260,11,o),
(266,37,cs),
(345,409,ls),
(352,444,o),
(348,481,o),
(306,481,cs),
(264,481,o),
(244,447,o),
(236,410,cs),
(158,42,ls),
(152,13,o),
(130,0,o),
(103,0,cs)
);
}
);
width = 600;
},
{
layerId = "D6017CDA-DCCB-46D4-A8A1-3FBBF500E309";
shapes = (
{
closed = 1;
nodes = (
(82,-10,o),
(75,-1,o),
(78,15,cs),
(189,538,ls),
(193,553,o),
(201,560,o),
(215,560,cs),
(231,560,o),
(238,553,o),
(234,538,cs),
(225,496,l),
(250,537,o),
(292,560,o),
(337,560,cs),
(380,560,o),
(418,539,o),
(423,495,c),
(454,539,o),
(489,560,o),
(537,560,cs),
(610,560,o),
(631,499,o),
(617,431,cs),
(528,14,ls),
(525,-2,o),
(515,-10,o),
(499,-10,cs),
(483,-10,o),
(476,-2,o),
(479,14,cs),
(565,420,ls),
(575,468,o),
(564,513,o),
(510,513,cs),
(456,513,o),
(423,468,o),
(413,420,cs),
(327,14,ls),
(324,-2,o),
(314,-10,o),
(298,-10,cs),
(282,-10,o),
(275,-2,o),
(278,14,cs),
(364,420,ls),
(374,468,o),
(363,513,o),
(309,513,cs),
(255,513,o),
(223,468,o),
(213,420,cs),
(127,14,ls),
(124,-2,o),
(114,-10,o),
(98,-10,cs)
);
}
);
width = 600;
}
);
unicode = 109;
},
{
color = (153, 254, 255, 255);
glyphname = n;
layers = (
{
layerId = "AF231975-8591-4A9E-9633-127BEEE6582E";
name = "#instance";
shapes = (
{
closed = 1;
nodes = (
(201.489,515,ls),
(207.867,545,o),
(226.056,560,o),
(256.056,560,cs),
(286.056,560,o),
(297.867,545,o),
(291.489,515,cs),
(283.623,478,l),
(322.741,535,o),
(386.056,560,o),
(449.056,560,cs),
(563.056,560,o),
(612.898,484,o),
(588.662,370,cs),
(517.441,35,ls),
(511.063,5,o),
(492.874,-10,o),
(462.874,-10,cs),
(432.874,-10,o),
(421.063,5,o),
(427.441,35,cs),
(493.134,344,ls),
(507.804,413,o),
(485.922,470,o),
(409.922,470,cs),
(328.922,470,o),
(267.89,404,o),
(252.158,330,cs),
(189.441,35,ls),
(183.063,5,o),
(164.874,-10,o),
(134.874,-10,cs),
(104.874,-10,o),
(93.063,5,o),
(99.441,35,cs)
);
}
);
width = 600;
},
{
layerId = "78C5E225-AB5C-450D-A6D0-D457B4E69ACE";
shapes = (
{
closed = 1;
nodes = (
(169.536,487,ls),
(179.954,536,o),
(209.056,560,o),
(254.056,560,cs),
(299.056,560,o),
(324.954,536,o),
(314.536,487,cs),
(313.686,483,l),
(323.087,499,o),
(361.056,560,o),
(466.056,560,cs),
(595.056,560,o),
(635.709,469,o),
(611.473,355,cs),
(549.819,65,ls),
(539.189,15,o),
(508.874,-10,o),
(458.874,-10,cs),
(408.874,-10,o),
(389.189,15,o),
(399.819,65,cs),
(456.158,330,ls),
(465.938,376,o),
(460.355,425,o),
(405.355,425,cs),
(346.355,425,o),
(294.237,368,o),
(281.906,310,cs),
(229.819,65,ls),
(219.189,15,o),
(188.874,-10,o),
(138.874,-10,cs),
(88.874,-10,o),
(69.189,15,o),
(79.819,65,cs)
);
}
);
width = 600;
},
{
layerId = "A3C04AAB-708A-4E7C-A386-00C8304CC3CD";
shapes = (
{
closed = 1;
nodes = (
(201.489,515,ls),
(207.867,545,o),
(226.056,560,o),
(256.056,560,cs),
(286.056,560,o),
(297.867,545,o),
(291.489,515,cs),
(283.623,478,l),
(322.741,535,o),
(386.056,560,o),
(449.056,560,cs),
(563.056,560,o),
(612.898,484,o),
(588.662,370,cs),
(517.441,35,ls),
(511.063,5,o),
(492.874,-10,o),
(462.874,-10,cs),
(432.874,-10,o),
(421.063,5,o),
(427.441,35,cs),
(493.134,344,ls),
(507.804,413,o),
(485.922,470,o),
(409.922,470,cs),
(328.922,470,o),
(267.89,404,o),
(252.158,330,cs),
(189.441,35,ls),
(183.063,5,o),
(164.874,-10,o),
(134.874,-10,cs),
(104.874,-10,o),
(93.063,5,o),
(99.441,35,cs)
);
}
);
width = 600;
},
{
layerId = "D6017CDA-DCCB-46D4-A8A1-3FBBF500E309";
shapes = (
{
closed = 1;
nodes = (
(223.741,535,ls),
(227.355,552,o),
(237.056,560,o),
(254.056,560,cs),
(271.056,560,o),
(277.355,552,o),
(273.741,535,cs),
(262.686,483,l),
(302.316,533,o),
(360.056,560,o),
(441.056,560,cs),
(549.056,560,o),
(593.198,476,o),
(570.024,367,cs),
(495.189,15,ls),
(491.575,-2,o),
(481.874,-10,o),
(464.874,-10,cs),
(447.874,-10,o),
(441.575,-2,o),
(445.189,15,cs),
(517.473,355,ls),
(535.119,438,o),
(509.426,510,o),
(418.426,510,cs),
(324.426,510,o),
(251.843,432,o),
(233.347,345,cs),
(163.189,15,ls),
(159.575,-2,o),
(149.874,-10,o),
(132.874,-10,cs),
(115.874,-10,o),
(109.575,-2,o),
(113.189,15,cs)
);
}
);
width = 600;
}
);
unicode = 110;
},
{
color = (153, 254, 255, 255);
glyphname = o;
layers = (
{
layerId = "AF231975-8591-4A9E-9633-127BEEE6582E";
name = "#instance";
shapes = (
{
closed = 1;
nodes = (
(143.874,-10,o),
(98.386,110,o),
(133.678,276,cs),
(168.544,440,o),
(263.056,560,o),
(419.056,560,cs),
(576.056,560,o),
(618.544,440,o),
(583.678,276,cs),
(548.386,110,o),
(452.874,-10,o),
(297.874,-10,cs)
);
},
{
closed = 1;
nodes = (
(411.008,80,o),
(469.016,160,o),
(493.678,276,cs),
(517.914,390,o),
(494.922,470,o),
(399.922,470,cs),
(304.922,470,o),
(247.914,390,o),
(223.465,275,cs),
(199.016,160,o),
(223.008,80,o),
(317.008,80,cs)
);
}
);
width = 600;
},
{
layerId = "78C5E225-AB5C-450D-A6D0-D457B4E69ACE";
shapes = (
{
closed = 1;
nodes = (
(132.874,-10,o),
(81.15,123,o),
(113.465,275,cs),
(145.78,427,o),
(254.056,560,o),
(419.056,560,cs),
(584.056,560,o),
(636.205,429,o),
(603.465,275,cs),
(571.15,123,o),
(462.874,-10,o),
(297.874,-10,cs)
);
},
{
closed = 1;
nodes = (
(389.449,115,o),
(435.394,190,o),
(453.465,275,cs),
(471.961,362,o),
(457.481,435,o),
(392.481,435,cs),
(327.481,435,o),
(281.536,360,o),
(263.465,275,cs),
(245.394,190,o),
(259.449,115,o),
(324.449,115,cs)
);
}
);
width = 600;
},
{
layerId = "A3C04AAB-708A-4E7C-A386-00C8304CC3CD";
shapes = (
{
closed = 1;
nodes = (
(143.874,-10,o),
(98.386,110,o),
(133.678,276,cs),
(168.544,440,o),
(263.056,560,o),
(419.056,560,cs),
(576.056,560,o),
(618.544,440,o),
(583.678,276,cs),
(548.386,110,o),
(452.874,-10,o),
(297.874,-10,cs)
);
},
{
closed = 1;
nodes = (
(411.008,80,o),
(469.016,160,o),
(493.678,276,cs),
(517.914,390,o),
(494.922,470,o),
(399.922,470,cs),
(304.922,470,o),
(247.914,390,o),
(223.465,275,cs),
(199.016,160,o),
(223.008,80,o),
(317.008,80,cs)
);
}
);
width = 600;
},
{
layerId = "D6017CDA-DCCB-46D4-A8A1-3FBBF500E309";
shapes = (
{
closed = 1;
nodes = (
(163.874,-10,o),
(111.26,100,o),
(148.465,275,cs),
(185.67,450,o),
(285.056,560,o),
(421.056,560,cs),
(557.056,560,o),
(605.67,450,o),
(569.103,278,cs),
(531.26,100,o),
(430.874,-10,o),
(297.874,-10,cs)
);
},
{
closed = 1;
nodes = (
(409.504,40,o),
(487.638,130,o),
(519.103,278,cs),
(549.292,420,o),
(514.426,510,o),
(410.426,510,cs),
(307.426,510,o),
(229.292,420,o),
(198.465,275,cs),
(167.638,130,o),
(206.504,40,o),
(308.504,40,cs)
);
}
);
width = 600;
}
);
unicode = 111;
},
{
color = (153, 254, 255, 255);
glyphname = oe;
layers = (
{
layerId = "78C5E225-AB5C-450D-A6D0-D457B4E69ACE";
shapes = (
{
closed = 1;
nodes = (
(639,350,ls),
(625,283,o),
(585,250,o),
(518,250,cs),
(435,250,ls),
(418,250,o),
(408,242,o),
(405,225,cs),
(387,140,ls),
(381,115,o),
(400,87,o),
(422,87,qs),
(444,87,o),
(459,101,qs),
(461,102,o),
(462,103,qs),
(488,130,o),
(503,140,o),
(518,140,cs),
(574,140,o),
(593,108,o),
(563,65,cs),
(550,47,o),
(532,32,qs),
(483,-10,o),
(418,-10,qs),
(380,-10,o),
(335,14,o),
(317,49,o),
(314,65,q),
(303,49,o),
(269,14,o),
(215,-10,o),
(178,-10,qs),
(113,-10,o),
(58,73,o),
(65,140,qs),
(74,229,o),
(93,321,o),
(122,410,cs),
(145,478,o),
(234,560,o),
(299,560,qs),
(336,560,o),
(380,536,o),
(399,501,o),
(403,485,q),
(413,501,o),
(446,536,o),
(501,560,o),
(539,560,qs),
(604,560,o),
(667,478,o),
(652,410,qs)
);
},
{
closed = 1;
nodes = (
(237,87,o),
(264,115,o),
(273,140,qs),
(302,229,o),
(321,321,o),
(330,410,cs),
(333,436,o),
(317,463,o),
(295,463,qs),
(273,463,o),
(245,435,o),
(237,410,qs),
(208,321,o),
(189,229,o),
(180,140,cs),
(177,115,o),
(193,87,o),
(215,87,qs)
);
},
{
closed = 1;
nodes = (
(432,355,ls),
(429,338,o),
(435,330,o),
(452,330,cs),
(470,330,ls),
(504,330,o),
(524,346,o),
(531,380,cs),
(537,410,ls),
(543,436,o),
(524,463,o),
(502,463,qs),
(480,463,o),
(449,435,o),
(444,410,qs)
);
}
);
width = 600;
},
{
layerId = "A3C04AAB-708A-4E7C-A386-00C8304CC3CD";
shapes = (
{
closed = 1;
nodes = (
(635,330,ls),
(624,276,o),
(592,250,o),
(538,250,cs),
(416,250,ls),
(403,250,o),
(395,243,o),
(392,230,cs),
(375,150,ls),
(367,112,o),
(393,67,o),
(424,67,qs),
(451,67,o),
(473,83,qs),
(482,89,o),
(489,98,qs),
(505,118,o),
(516,125,o),
(532,125,cs),
(572,125,o),
(584,104,o),
(561,71,cs),
(544,46,o),
(520,27,qs),
(474,-10,o),
(418,-10,qs),
(378,-10,o),
(332,16,o),
(315,53,o),
(315,70,q),
(308,53,o),
(274,16,o),
(218,-10,o),
(178,-10,qs),
(111,-10,o),
(61,78,o),
(67,150,qs),
(75,233,o),
(93,318,o),
(120,400,cs),
(145,473,o),
(232,560,o),
(299,560,qs),
(339,560,o),
(385,534,o),
(403,497,o),
(402,480,q),
(410,497,o),
(443,534,o),
(499,560,o),
(539,560,qs),
(606,560,o),
(666,474,o),
(650,400,qs)
);
},
{
closed = 1;
nodes = (
(235,67,o),
(271,112,o),
(284,150,qs),
(312,233,o),
(330,318,o),
(337,400,cs),
(340,438,o),
(324,483,o),
(293,483,qs),
(261,483,o),
(218,438,o),
(205,400,qs),
(178,318,o),
(160,233,o),
(152,150,cs),
(149,112,o),
(172,67,o),
(204,67,qs)
);
},
{
closed = 1;
nodes = (
(416,343,ls),
(413,330,o),
(419,323,o),
(432,323,cs),
(509,323,ls),
(536,323,o),
(551,336,o),
(557,363,cs),
(565,400,ls),
(573,438,o),
(545,483,o),
(513,483,qs),
(482,483,o),
(436,438,o),
(428,400,qs)
);
}
);
width = 600;
},
{
layerId = "D6017CDA-DCCB-46D4-A8A1-3FBBF500E309";
shapes = (
{
closed = 1;
nodes = (
(633,320,ls),
(625,280,o),
(600,260,o),
(560,260,cs),
(397,260,ls),
(387,260,o),
(381,255,o),
(379,245,cs),
(357,140,ls),
(347,93,o),
(387,34,o),
(430,34,qs),
(472,35,o),
(504,60,qs),
(526,78,o),
(537,101,qs),
(547,118,o),
(557,125,o),
(573,125,cs),
(590,125,o),
(595,116,o),
(588,100,cs),
(570,56,o),
(533,27,qs),
(486,-10,o),
(424,-10,qs),
(386,-10,o),
(340,17,o),
(320,57,o),
(319,75,q),
(310,57,o),
(272,17,o),
(213,-10,o),
(172,-10,qs),
(108,-10,o),
(58,71,o),
(65,139,qs),
(73,228,o),
(93,319,o),
(122,408,cs),
(144,477,o),
(233,560,o),
(299,560,qs),
(338,560,o),
(383,532,o),
(404,493,o),
(404,474,q),
(414,493,o),
(451,532,o),
(507,560,o),
(542,560,qs),
(607,560,o),
(667,478,o),
(652,410,qs)
);
},
{
closed = 1;
nodes = (
(233,34,o),
(288,93,o),
(303,140,qs),
(332,229,o),
(351,321,o),
(360,410,cs),
(365,457,o),
(336,516,o),
(293,516,qs),
(250,516,o),
(188,457,o),
(173,408,qs),
(144,319,o),
(124,228,o),
(116,139,cs),
(111,92,o),
(147,34,o),
(190,34,qs)
);
},
{
closed = 1;
nodes = (
(396,325,ls),
(394,315,o),
(398,310,o),
(408,310,cs),
(551,310,ls),
(571,310,o),
(583,320,o),
(587,340,cs),
(602,410,ls),
(612,457,o),
(573,516,o),
(530,516,qs),
(488,516,o),
(424,457,o),
(414,410,qs)
);
}
);
width = 600;
}
);
unicode = 339;
},
{
color = (153, 254, 255, 255);
glyphname = p;
layers = (
{
layerId = "78C5E225-AB5C-450D-A6D0-D457B4E69ACE";
shapes = (
{
closed = 1;
nodes = (
(304.056,560,o),
(320.954,536,o),
(310.536,487,cs),
(309.261,481,l),
(333.19,523,o),
(398.056,560,o),
(475.056,560,cs),
(635.056,560,o),
(641.465,402,o),
(614.678,276,cs),
(586.614,144,o),
(510.874,-10,o),
(345.874,-10,cs),
(276.874,-10,o),
(243.614,17,o),
(227.095,71,c),
(187.551,-115,ls),
(176.921,-165,o),
(146.606,-190,o),
(96.606,-190,cs),
(46.606,-190,o),
(26.921,-165,o),
(37.551,-115,cs),
(165.536,487,ls),
(175.954,536,o),
(204.056,560,o),
(254.056,560,cs)
);
},
{
closed = 1;
nodes = (
(345.166,410,o),
(290.449,369,o),
(278.969,315,cs),
(261.961,235,ls),
(249.63,177,o),
(277.638,130,o),
(339.638,130,cs),
(420.638,130,o),
(450.433,209,o),
(464.89,277,cs),
(478.922,343,o),
(481.166,410,o),
(405.166,410,cs)
);
}
);
width = 600;
},
{
layerId = "A3C04AAB-708A-4E7C-A386-00C8304CC3CD";
shapes = (
{
closed = 1;
nodes = (
(284.056,560,o),
(295.867,545,o),
(289.276,514,cs),
(279.922,470,l),
(327.465,529,o),
(377.056,560,o),
(447.056,560,cs),
(606.056,560,o),
(605.615,398,o),
(579.252,274,cs),
(552.89,150,o),
(484.874,-10,o),
(322.874,-10,cs),
(243.874,-10,o),
(199.953,28,o),
(195.732,74,c),
(149.173,-145,ls),
(142.795,-175,o),
(124.606,-190,o),
(94.606,-190,cs),
(64.606,-190,o),
(52.795,-175,o),
(59.173,-145,cs),
(199.276,514,ls),
(205.867,545,o),
(224.056,560,o),
(254.056,560,cs)
);
},
{
closed = 1;
nodes = (
(346.985,475,o),
(266.528,407,o),
(253.134,344,cs),
(229.748,234,ls),
(216.142,170,o),
(246.945,75,o),
(318.945,75,cs),
(432.945,75,o),
(470.544,186,o),
(487.977,268,cs),
(506.048,353,o),
(516.985,475,o),
(419.985,475,cs)
);
}
);
width = 600;
},
{
layerId = "D6017CDA-DCCB-46D4-A8A1-3FBBF500E309";
shapes = (
{
closed = 1;
nodes = (
(271.056,560,o),
(277.355,552,o),
(273.741,535,cs),
(260.347,472,l),
(270.812,493,o),
(314.056,560,o),
(432.056,560,cs),
(580.056,560,o),
(588.977,395,o),
(563.465,275,cs),
(538.166,156,o),
(458.874,-10,o),
(307.874,-10,cs),
(244.874,-10,o),
(191.039,19,o),
(177.221,81,c),
(124.921,-165,ls),
(121.307,-182,o),
(111.606,-190,o),
(94.606,-190,cs),
(77.606,-190,o),
(71.307,-182,o),
(74.921,-165,cs),
(223.741,535,ls),
(227.355,552,o),
(237.056,560,o),
(254.056,560,cs)
);
},
{
closed = 1;
nodes = (
(332.851,512,o),
(251.631,431,o),
(235.686,356,cs),
(201.457,195,ls),
(186.575,125,o),
(237.079,38,o),
(311.079,38,cs),
(436.079,38,o),
(492.63,177,o),
(513.465,275,cs),
(534.3,373,o),
(536.851,512,o),
(420.851,512,cs)
);
}
);
width = 600;
}
);
unicode = 112;
},
{
color = (153, 254, 255, 255);
glyphname = q;
layers = (
{
layerId = "AF231975-8591-4A9E-9633-127BEEE6582E";
name = "#instance";
shapes = (
{
closed = 1;
nodes = (
(614,560,o),
(626,545,o),
(619,514,cs),
(479,-145,ls),
(473,-175,o),
(455,-190,o),
(425,-190,cs),
(395,-190,o),
(383,-175,o),
(389,-145,cs),
(436,74,l),
(412,28,o),
(352,-10,o),
(273,-10,cs),
(111,-10,o),
(111,150,o),
(137,274,cs),
(164,398,o),
(232,560,o),
(391,560,cs),
(461,560,o),
(497,529,o),
(520,470,c),
(529,514,ls),
(536,545,o),
(554,560,o),
(584,560,cs)
);
},
{
closed = 1;
nodes = (
(285,475,o),
(244,353,o),
(226,268,cs),
(209,186,o),
(199,75,o),
(313,75,cs),
(385,75,o),
(456,170,o),
(470,234,cs),
(493,344,ls),
(507,407,o),
(455,475,o),
(382,475,cs)
);
}
);
width = 600;
},
{
layerId = "78C5E225-AB5C-450D-A6D0-D457B4E69ACE";
shapes = (
{
closed = 1;
nodes = (
(634,560,o),
(652,536,o),
(642,487,cs),
(514,-115,ls),
(503,-165,o),
(473,-190,o),
(423,-190,cs),
(373,-190,o),
(353,-165,o),
(364,-115,cs),
(403,71,l),
(364,17,o),
(319,-10,o),
(250,-10,cs),
(85,-10,o),
(75,144,o),
(103,276,cs),
(129,402,o),
(203,560,o),
(363,560,cs),
(440,560,o),
(489,523,o),
(495,481,c),
(497,487,ls),
(507,536,o),
(534,560,o),
(584,560,cs)
);
},
{
closed = 1;
nodes = (
(293,410,o),
(267,343,o),
(253,277,cs),
(238,209,o),
(235,130,o),
(316,130,cs),
(378,130,o),
(426,177,o),
(438,235,cs),
(455,315,ls),
(466,369,o),
(429,410,o),
(369,410,cs)
);
}
);
width = 600;
},
{
layerId = "A3C04AAB-708A-4E7C-A386-00C8304CC3CD";
shapes = (
{
closed = 1;
nodes = (
(614,560,o),
(626,545,o),
(619,514,cs),
(479,-145,ls),
(473,-175,o),
(455,-190,o),
(425,-190,cs),
(395,-190,o),
(383,-175,o),
(389,-145,cs),
(436,74,l),
(412,28,o),
(352,-10,o),
(273,-10,cs),
(111,-10,o),
(111,150,o),
(137,274,cs),
(164,398,o),
(232,560,o),
(391,560,cs),
(461,560,o),
(497,529,o),
(520,470,c),
(529,514,ls),
(536,545,o),
(554,560,o),
(584,560,cs)
);
},
{
closed = 1;
nodes = (
(285,475,o),
(244,353,o),
(226,268,cs),
(209,186,o),
(199,75,o),
(313,75,cs),
(385,75,o),
(456,170,o),
(470,234,cs),
(493,344,ls),
(507,407,o),
(455,475,o),
(382,475,cs)
);
}
);
width = 600;
},
{
layerId = "D6017CDA-DCCB-46D4-A8A1-3FBBF500E309";
shapes = (
{
closed = 1;
nodes = (
(601,560,o),
(607,552,o),
(604,535,cs),
(455,-165,ls),
(451,-182,o),
(442,-190,o),
(425,-190,cs),
(408,-190,o),
(401,-182,o),
(405,-165,cs),
(457,81,l),
(417,19,o),
(351,-10,o),
(288,-10,cs),
(137,-10,o),
(128,156,o),
(153,275,cs),
(179,395,o),
(258,560,o),
(406,560,cs),
(524,560,o),
(539,493,o),
(540,472,c),
(554,535,ls),
(557,552,o),
(567,560,o),
(584,560,cs)
);
},
{
closed = 1;
nodes = (
(281,512,o),
(224,373,o),
(203,275,cs),
(183,177,o),
(180,38,o),
(305,38,cs),
(379,38,o),
(467,125,o),
(481,195,cs),
(516,356,ls),
(532,431,o),
(485,512,o),
(397,512,cs)
);
}
);
width = 600;
}
);
unicode = 113;
},
{
color = (153, 254, 255, 255);
glyphname = r;
layers = (
{
layerId = "AF231975-8591-4A9E-9633-127BEEE6582E";
name = "#instance";
shapes = (
{
closed = 1;
nodes = (
(124.874,-10,o),
(113.063,5,o),
(119.441,35,cs),
(221.489,515,ls),
(227.867,545,o),
(246.056,560,o),
(276.056,560,cs),
(308.056,560,o),
(317.867,545,o),
(311.489,515,cs),
(304.686,483,l),
(342.891,531,o),
(427.056,560,o),
(500.056,560,cs),
(615.056,560,o),
(643.324,486,o),
(620.788,380,cs),
(614.41,350,o),
(596.221,335,o),
(567.221,335,cs),
(533.221,335,o),
(529.473,355,o),
(533.914,390,cs),
(538.694,436,o),
(532.985,475,o),
(474.985,475,cs),
(397.985,475,o),
(288.103,405,o),
(272.158,330,cs),
(209.441,35,ls),
(203.063,5,o),
(184.874,-10,o),
(154.874,-10,cs)
);
}
);
width = 600;
},
{
layerId = "78C5E225-AB5C-450D-A6D0-D457B4E69ACE";
shapes = (
{
closed = 1;
nodes = (
(108.874,-10,o),
(89.189,15,o),
(99.819,65,cs),
(189.536,487,ls),
(199.954,536,o),
(229.056,560,o),
(280.056,560,cs),
(335.056,560,o),
(344.103,532,o),
(333.686,483,cs),
(332.41,477,l),
(368.316,533,o),
(447.056,560,o),
(528.056,560,cs),
(626.056,560,o),
(673.835,479,o),
(654.276,387,cs),
(642.158,330,o),
(610.843,305,o),
(551.843,305,cs),
(502.843,305,o),
(493.67,323,o),
(498.961,362,cs),
(505.953,409,o),
(491.355,425,o),
(457.355,425,cs),
(391.355,425,o),
(314.024,367,o),
(299.355,298,cs),
(249.819,65,ls),
(239.189,15,o),
(208.874,-10,o),
(158.874,-10,cs)
);
}
);
width = 600;
},
{
layerId = "A3C04AAB-708A-4E7C-A386-00C8304CC3CD";
shapes = (
{
closed = 1;
nodes = (
(124.874,-10,o),
(113.063,5,o),
(119.441,35,cs),
(221.489,515,ls),
(227.867,545,o),
(246.056,560,o),
(276.056,560,cs),
(308.056,560,o),
(317.867,545,o),
(311.489,515,cs),
(304.686,483,l),
(342.891,531,o),
(427.056,560,o),
(500.056,560,cs),
(615.056,560,o),
(643.324,486,o),
(620.788,380,cs),
(614.41,350,o),
(596.221,335,o),
(567.221,335,cs),
(533.221,335,o),
(529.473,355,o),
(533.914,390,cs),
(538.694,436,o),
(532.985,475,o),
(474.985,475,cs),
(397.985,475,o),
(288.103,405,o),
(272.158,330,cs),
(209.441,35,ls),
(203.063,5,o),
(184.874,-10,o),
(154.874,-10,cs)
);
}
);
width = 600;
},
{
layerId = "D6017CDA-DCCB-46D4-A8A1-3FBBF500E309";
shapes = (
{
closed = 1;
nodes = (
(137.874,-10,o),
(131.575,-2,o),
(135.189,15,cs),
(245.741,535,ls),
(249.355,552,o),
(259.056,560,o),
(276.056,560,cs),
(292.056,560,o),
(299.355,552,o),
(295.741,535,cs),
(282.56,473,l),
(324.615,525,o),
(412.056,560,o),
(487.056,560,cs),
(599.056,560,o),
(620.261,481,o),
(598.788,380,cs),
(595.174,363,o),
(585.473,355,o),
(568.473,355,cs),
(551.473,355,o),
(546.174,363,o),
(548.788,380,cs),
(560.308,453,o),
(550.426,510,o),
(470.426,510,cs),
(381.426,510,o),
(275.544,440,o),
(256.41,350,cs),
(185.189,15,ls),
(181.575,-2,o),
(171.874,-10,o),
(154.874,-10,cs)
);
}
);
width = 591;
}
);
unicode = 114;
},
{
color = (153, 254, 255, 255);
glyphname = s;
layers = (
{
layerId = "78C5E225-AB5C-450D-A6D0-D457B4E69ACE";
shapes = (
{
closed = 1;
nodes = (
(216.874,-10,o),
(159.488,7,o),
(119.969,61,cs),
(106.008,80,o),
(99.835,98,o),
(104.725,121,cs),
(114.079,165,o),
(141.607,191,o),
(174.607,191,cs),
(187.607,191,o),
(203.969,188,o),
(214.63,177,cs),
(246.402,143,o),
(280.575,125,o),
(328.575,125,cs),
(367.575,125,o),
(413.,127,o),
(419.591,158,cs),
(424.693,182,o),
(417.244,194,o),
(395.52,200,cs),
(248.449,242,ls),
(185.276,260,o),
(155.906,310,o),
(172.276,387,cs),
(199.489,515,o),
(298.056,560,o),
(424.056,560,cs),
(505.056,560,o),
(561.954,536,o),
(591.599,492,cs),
(598.473,482,o),
(605.284,467,o),
(600.394,444,cs),
(590.402,397,o),
(562.512,374,o),
(528.512,374,cs),
(509.512,374,o),
(491.788,380,o),
(485.489,388,cs),
(468.166,410,o),
(440.355,425,o),
(392.355,425,cs),
(351.355,425,o),
(328.229,415,o),
(323.339,392,cs),
(318.662,370,o),
(325.323,359,o),
(342.26,354,cs),
(465.394,317,ls),
(543.504,294,o),
(584.426,256,o),
(565.292,166,cs),
(535.528,26,o),
(420.874,-10,o),
(301.874,-10,cs)
);
}
);
width = 600;
},
{
layerId = "A3C04AAB-708A-4E7C-A386-00C8304CC3CD";
shapes = (
{
closed = 1;
nodes = (
(227.874,-10,o),
(166.126,10,o),
(126.095,71,cs),
(116.284,86,o),
(113.536,106,o),
(117.362,124,cs),
(123.528,153,o),
(144.441,162,o),
(163.441,162,cs),
(177.441,162,o),
(187.378,157,o),
(199.614,144,cs),
(236.685,102,o),
(267.008,80,o),
(326.008,80,cs),
(368.008,80,o),
(438.709,88,o),
(453.166,156,cs),
(462.52,200,o),
(439.41,223,o),
(401.323,232,cs),
(278.276,260,ls),
(223.827,272,o),
(178.119,311,o),
(197.04,400,cs),
(221.914,517,o),
(325.056,560,o),
(417.056,560,cs),
(493.056,560,o),
(565.678,530,o),
(587.985,475,cs),
(593.796,460,o),
(594.245,448,o),
(592.331,439,cs),
(587.867,418,o),
(569.827,399,o),
(550.827,399,cs),
(531.827,399,o),
(514.678,403,o),
(503.654,417,cs),
(478.457,449,o),
(452.922,470,o),
(401.922,470,cs),
(352.922,470,o),
(297.883,451,o),
(287.04,400,cs),
(281.087,372,o),
(291.41,350,o),
(316.134,344,cs),
(438.544,313,ls),
(510.717,295,o),
(563.575,252,o),
(542.953,155,cs),
(516.591,31,o),
(404.874,-10,o),
(300.874,-10,cs)
);
}
);
width = 600;
},
{
layerId = "D6017CDA-DCCB-46D4-A8A1-3FBBF500E309";
shapes = (
{
closed = 1;
nodes = (
(230.874,-10,o),
(173.575,-2,o),
(143.055,52,cs),
(132.882,70,o),
(124.197,95,o),
(127.811,112,cs),
(130.575,125,o),
(140.701,135,o),
(156.701,135,cs),
(167.701,135,o),
(177.851,131,o),
(182.299,119,cs),
(201.969,61,o),
(240.504,40,o),
(297.504,40,cs),
(369.504,40,o),
(462.819,65,o),
(480.465,148,cs),
(490.457,195,o),
(468.685,229,o),
(427.237,241,cs),
(297.528,280,ls),
(237.355,298,o),
(190.158,330,o),
(207.804,413,cs),
(230.127,518,o),
(324.056,560,o),
(415.056,560,cs),
(495.056,560,o),
(555.253,528,o),
(578.347,472,cs),
(583.009,461,o),
(584.308,453,o),
(582.607,445,cs),
(579.631,431,o),
(568.355,425,o),
(555.355,425,cs),
(545.355,425,o),
(537.993,428,o),
(533.906,437,cs),
(503.45,496,o),
(464.426,510,o),
(401.426,510,cs),
(339.426,510,o),
(273.473,482,o),
(259.016,414,cs),
(248.174,363,o),
(277.071,339,o),
(322.095,325,cs),
(452.591,285,ls),
(509.764,267,o),
(548.26,227,o),
(532.315,152,cs),
(508.291,39,o),
(392.874,-10,o),
(297.874,-10,cs)
);
}
);
width = 600;
}
);
unicode = 115;
},
{
color = (153, 254, 255, 255);
glyphname = germandbls;
layers = (
{
layerId = "78C5E225-AB5C-450D-A6D0-D457B4E69ACE";
shapes = (
{
closed = 1;
nodes = (
(226,75,ls),
(215,25,o),
(185,0,o),
(135,0,cs),
(85,0,o),
(65,25,o),
(76,75,cs),
(169,512,ls),
(198,647,o),
(316,740,o),
(461,740,cs),
(602,740,o),
(684,659,o),
(659,541,cs),
(642,462,o),
(582,398,o),
(511,386,c),
(587,368,o),
(627,295,o),
(608,207,cs),
(582,84,o),
(471,0,o),
(337,0,cs),
(336,0,ls),
(292,0,o),
(275,21,o),
(285,65,cs),
(294,109,o),
(320,130,o),
(364,130,cs),
(367,130,ls),
(398,130,o),
(448,170,o),
(460,228,cs),
(473,286,o),
(446,325,o),
(399,325,cs),
(395,325,ls),
(358,325,o),
(344,343,o),
(352,380,cs),
(360,417,o),
(381,435,o),
(418,435,cs),
(422,435,ls),
(466,435,o),
(496,472,o),
(508,525,cs),
(519,578,o),
(488,615,o),
(434,615,cs),
(378,615,o),
(332,573,o),
(319,512,cs)
);
}
);
width = 600;
},
{
layerId = "A3C04AAB-708A-4E7C-A386-00C8304CC3CD";
shapes = (
{
closed = 1;
nodes = (
(192,45,ls),
(185,15,o),
(167,0,o),
(137,0,cs),
(107,0,o),
(95,15,o),
(102,45,cs),
(206,534,ls),
(231,656,o),
(335,740,o),
(460,740,cs),
(585,740,o),
(654,665,o),
(631,556,cs),
(614,477,o),
(552,408,o),
(479,391,c),
(559,376,o),
(600,300,o),
(579,204,cs),
(554,83,o),
(446,0,o),
(315,0,cs),
(298,0,ls),
(271,0,o),
(260,14,o),
(266,41,cs),
(271,68,o),
(288,82,o),
(315,82,cs),
(322,82,ls),
(404,82,o),
(473,135,o),
(489,212,cs),
(505,289,o),
(464,342,o),
(387,342,cs),
(370,342,ls),
(343,342,o),
(332,355,o),
(338,382,cs),
(344,409,o),
(360,422,o),
(387,422,cs),
(393,422,ls),
(464,422,o),
(523,470,o),
(538,541,cs),
(553,612,o),
(514,660,o),
(443,660,cs),
(371,660,o),
(311,609,o),
(296,534,cs)
);
}
);
width = 600;
},
{
layerId = "D6017CDA-DCCB-46D4-A8A1-3FBBF500E309";
shapes = (
{
closed = 1;
nodes = (
(165,25,ls),
(162,8,o),
(152,0,o),
(135,0,cs),
(118,0,o),
(112,8,o),
(115,25,cs),
(225,543,ls),
(250,660,o),
(347,740,o),
(464,740,cs),
(580,740,o),
(643,663,o),
(619,550,cs),
(601,468,o),
(538,398,o),
(463,383,c),
(543,367,o),
(584,292,o),
(564,198,cs),
(539,81,o),
(434,0,o),
(307,0,cs),
(288,0,ls),
(273,0,o),
(267,8,o),
(270,23,cs),
(273,38,o),
(283,45,o),
(298,45,cs),
(317,45,ls),
(414,45,o),
(493,109,o),
(513,202,cs),
(533,295,o),
(480,359,o),
(383,359,cs),
(364,359,ls),
(349,359,o),
(343,367,o),
(346,382,cs),
(349,397,o),
(359,404,o),
(374,404,cs),
(393,404,ls),
(479,404,o),
(550,463,o),
(569,550,cs),
(587,636,o),
(541,695,o),
(455,695,cs),
(368,695,o),
(295,633,o),
(275,543,cs)
);
}
);
width = 600;
}
);
unicode = 223;
},
{
color = (153, 254, 255, 255);
glyphname = longs;
layers = (
{
layerId = "78C5E225-AB5C-450D-A6D0-D457B4E69ACE";
shapes = (
{
closed = 1;
nodes = (
(299,65,ls),
(288,15,o),
(258,-10,o),
(208,-10,cs),
(158,-10,o),
(138,15,o),
(149,65,cs),
(247,525,ls),
(273,650,o),
(374,730,o),
(505,730,cs),
(625,730,ls),
(669,730,o),
(686,709,o),
(676,665,cs),
(667,621,o),
(642,600,o),
(598,600,cs),
(488,600,ls),
(443,600,o),
(406,570,o),
(397,525,cs)
);
}
);
width = 600;
},
{
layerId = "A3C04AAB-708A-4E7C-A386-00C8304CC3CD";
shapes = (
{
closed = 1;
nodes = (
(262,35,ls),
(256,5,o),
(238,-10,o),
(208,-10,cs),
(178,-10,o),
(166,5,o),
(172,35,cs),
(286,571,ls),
(307,666,o),
(388,730,o),
(489,730,cs),
(625,730,ls),
(652,730,o),
(662,717,o),
(657,690,cs),
(651,663,o),
(635,650,o),
(608,650,cs),
(472,650,ls),
(425,650,o),
(386,618,o),
(376,570,cs)
);
}
);
width = 600;
},
{
layerId = "D6017CDA-DCCB-46D4-A8A1-3FBBF500E309";
shapes = (
{
closed = 1;
nodes = (
(233,15,ls),
(230,-2,o),
(220,-10,o),
(203,-10,cs),
(186,-10,o),
(180,-2,o),
(183,15,cs),
(306,595,ls),
(324,678,o),
(388,730,o),
(471,730,cs),
(627,730,ls),
(642,730,o),
(649,723,o),
(645,708,cs),
(642,693,o),
(634,685,o),
(619,685,cs),
(461,685,ls),
(411,685,o),
(368,648,o),
(356,595,cs)
);
}
);
width = 600;
}
);
unicode = 383;
},
{
color = (153, 254, 255, 255);
glyphname = t;
layers = (
{
layerId = "AF231975-8591-4A9E-9633-127BEEE6582E";
name = "#instance";
shapes = (
{
closed = 1;
nodes = (
(591.678,530,ls),
(618.678,530,o),
(628.851,512,o),
(623.111,485,cs),
(617.371,458,o),
(599.544,440,o),
(572.544,440,cs),
(191.544,440,ls),
(164.544,440,o),
(154.371,458,o),
(160.111,485,cs),
(165.851,512,o),
(183.678,530,o),
(210.678,530,cs)
);
},
{
closed = 1;
nodes = (
(355.316,660,l),
(361.694,690,o),
(379.883,705,o),
(409.883,705,cs),
(439.883,705,o),
(451.694,690,o),
(445.316,660,c),
(342.622,224,l),
(318.575,125,o),
(327.158,76,o),
(371.158,76,cs),
(413.158,76,o),
(438.835,98,o),
(468.425,129,cs),
(491.528,153,o),
(510.378,157,o),
(528.977,141,cs),
(549.15,123,o),
(547.473,101,o),
(525.795,79,cs),
(471.102,24,o),
(418.874,-10,o),
(345.874,-10,cs),
(245.874,-10,o),
(214.543,59,o),
(239.229,161,c)
);
}
);
width = 600;
},
{
layerId = "78C5E225-AB5C-450D-A6D0-D457B4E69ACE";
shapes = (
{
closed = 1;
nodes = (
(584.678,530,ls),
(629.678,530,o),
(648.001,508,o),
(638.434,463,cs),
(628.867,418,o),
(600.977,395,o),
(555.977,395,cs),
(186.977,395,ls),
(142.977,395,o),
(125.654,417,o),
(135.009,461,cs),
(144.788,507,o),
(172.678,530,o),
(218.678,530,cs)
);
},
{
closed = 1;
nodes = (
(318.938,630,ls),
(329.568,680,o),
(359.883,705,o),
(409.883,705,cs),
(459.883,705,o),
(479.568,680,o),
(468.938,630,cs),
(366.244,194,ls),
(356.953,155,o),
(374.213,128,o),
(392.213,128,cs),
(417.213,128,o),
(437.827,145,o),
(466.567,172,cs),
(496.52,200,o),
(520.945,202,o),
(548.843,178,cs),
(579.315,152,o),
(580.362,124,o),
(553.622,97,cs),
(488.803,32,o),
(422.087,-9,o),
(347.087,-9,cs),
(237.087,-9,o),
(185.819,65,o),
(211.142,170,cs)
);
}
);
width = 600;
},
{
layerId = "A3C04AAB-708A-4E7C-A386-00C8304CC3CD";
shapes = (
{
closed = 1;
nodes = (
(591.678,530,ls),
(618.678,530,o),
(628.851,512,o),
(623.111,485,cs),
(617.371,458,o),
(599.544,440,o),
(572.544,440,cs),
(191.544,440,ls),
(164.544,440,o),
(154.371,458,o),
(160.111,485,cs),
(165.851,512,o),
(183.678,530,o),
(210.678,530,cs)
);
},
{
closed = 1;
nodes = (
(355.316,660,ls),
(361.694,690,o),
(379.883,705,o),
(409.883,705,cs),
(439.883,705,o),
(451.694,690,o),
(445.316,660,cs),
(342.622,224,ls),
(318.575,125,o),
(327.158,76,o),
(371.158,76,cs),
(413.158,76,o),
(438.835,98,o),
(468.425,129,cs),
(491.528,153,o),
(510.378,157,o),
(528.977,141,cs),
(549.15,123,o),
(547.473,101,o),
(525.795,79,cs),
(471.102,24,o),
(418.874,-10,o),
(345.874,-10,cs),
(245.874,-10,o),
(214.543,59,o),
(239.229,161,cs)
);
}
);
width = 600;
},
{
layerId = "D6017CDA-DCCB-46D4-A8A1-3FBBF500E309";
shapes = (
{
closed = 1;
nodes = (
(594.678,530,ls),
(609.678,530,o),
(615.552,520,o),
(612.363,505,cs),
(609.174,490,o),
(599.048,480,o),
(584.048,480,cs),
(197.048,480,ls),
(182.048,480,o),
(176.174,490,o),
(179.363,505,cs),
(182.552,520,o),
(192.678,530,o),
(207.678,530,cs)
);
},
{
closed = 1;
nodes = (
(379.568,680,ls),
(383.182,697,o),
(392.883,705,o),
(409.883,705,cs),
(426.883,705,o),
(433.182,697,o),
(429.568,680,cs),
(317.67,196,ls),
(288.52,73,o),
(308.717,41,o),
(357.717,41,cs),
(412.717,41,o),
(441.819,65,o),
(479.536,106,cs),
(491.087,118,o),
(497.362,124,o),
(509.236,114,cs),
(520.898,103,o),
(520.559,92,o),
(510.221,81,cs),
(453.89,23,o),
(412.874,-10,o),
(339.874,-10,cs),
(257.874,-10,o),
(236.543,59,o),
(258.953,155,cs)
);
}
);
width = 600;
}
);
unicode = 116;
},
{
color = (153, 254, 255, 255);
glyphname = u;
layers = (
{
layerId = "AF231975-8591-4A9E-9633-127BEEE6582E";
name = "#instance";
shapes = (
{
closed = 1;
nodes = (
(517.441,35,ls),
(511.063,5,o),
(492.874,-10,o),
(462.874,-10,cs),
(432.874,-10,o),
(421.063,5,o),
(427.441,35,cs),
(435.307,72,l),
(396.189,15,o),
(332.874,-10,o),
(269.874,-10,cs),
(155.874,-10,o),
(106.032,66,o),
(130.268,180,cs),
(201.489,515,ls),
(207.867,545,o),
(226.056,560,o),
(256.056,560,cs),
(286.056,560,o),
(297.867,545,o),
(291.489,515,cs),
(225.796,206,ls),
(211.126,137,o),
(233.008,80,o),
(309.008,80,cs),
(390.008,80,o),
(451.04,146,o),
(466.772,220,cs),
(529.489,515,ls),
(535.867,545,o),
(554.056,560,o),
(584.056,560,cs),
(614.056,560,o),
(625.867,545,o),
(619.489,515,cs)
);
}
);
width = 600;
},
{
layerId = "78C5E225-AB5C-450D-A6D0-D457B4E69ACE";
shapes = (
{
closed = 1;
nodes = (
(549.394,63,ls),
(538.976,14,o),
(509.874,-10,o),
(464.874,-10,cs),
(419.874,-10,o),
(393.976,14,o),
(404.394,63,cs),
(405.244,67,l),
(395.843,51,o),
(357.874,-10,o),
(252.874,-10,cs),
(123.874,-10,o),
(83.221,81,o),
(107.457,195,cs),
(169.111,485,ls),
(179.741,535,o),
(210.056,560,o),
(260.056,560,cs),
(310.056,560,o),
(329.741,535,o),
(319.111,485,cs),
(262.772,220,ls),
(252.992,174,o),
(258.575,125,o),
(313.575,125,cs),
(372.575,125,o),
(424.693,182,o),
(437.024,240,cs),
(489.111,485,ls),
(499.741,535,o),
(530.056,560,o),
(580.056,560,cs),
(630.056,560,o),
(649.741,535,o),
(639.111,485,cs)
);
}
);
width = 600;
},
{
layerId = "A3C04AAB-708A-4E7C-A386-00C8304CC3CD";
shapes = (
{
closed = 1;
nodes = (
(517.441,35,ls),
(511.063,5,o),
(492.874,-10,o),
(462.874,-10,cs),
(432.874,-10,o),
(421.063,5,o),
(427.441,35,cs),
(435.307,72,l),
(396.189,15,o),
(332.874,-10,o),
(269.874,-10,cs),
(155.874,-10,o),
(106.032,66,o),
(130.268,180,cs),
(201.489,515,ls),
(207.867,545,o),
(226.056,560,o),
(256.056,560,cs),
(286.056,560,o),
(297.867,545,o),
(291.489,515,cs),
(225.796,206,ls),
(211.126,137,o),
(233.008,80,o),
(309.008,80,cs),
(390.008,80,o),
(451.04,146,o),
(466.772,220,cs),
(529.489,515,ls),
(535.867,545,o),
(554.056,560,o),
(584.056,560,cs),
(614.056,560,o),
(625.867,545,o),
(619.489,515,cs)
);
}
);
width = 600;
},
{
layerId = "D6017CDA-DCCB-46D4-A8A1-3FBBF500E309";
shapes = (
{
closed = 1;
nodes = (
(495.189,15,ls),
(491.575,-2,o),
(481.874,-10,o),
(464.874,-10,cs),
(447.874,-10,o),
(441.575,-2,o),
(445.189,15,cs),
(456.244,67,l),
(416.614,17,o),
(352.874,-10,o),
(277.874,-10,cs),
(169.874,-10,o),
(125.732,74,o),
(148.906,183,cs),
(223.741,535,ls),
(227.355,552,o),
(237.056,560,o),
(254.056,560,cs),
(271.056,560,o),
(277.355,552,o),
(273.741,535,cs),
(201.457,195,ls),
(183.811,112,o),
(209.504,40,o),
(300.504,40,cs),
(394.504,40,o),
(467.087,118,o),
(485.583,205,cs),
(555.741,535,ls),
(559.355,552,o),
(569.056,560,o),
(586.056,560,cs),
(603.056,560,o),
(609.355,552,o),
(605.741,535,cs)
);
}
);
width = 600;
}
);
unicode = 117;
},
{
color = (153, 254, 255, 255);
glyphname = v;
layers = (
{
layerId = "78C5E225-AB5C-450D-A6D0-D457B4E69ACE";
shapes = (
{
closed = 1;
nodes = (
(158.473,482,ls),
(151.103,532,o),
(201.056,560,o),
(235.056,560,cs),
(271.056,560,o),
(291.804,540,o),
(296.001,508,cs),
(332.662,243,ls),
(335.772,220,o),
(352.284,213,o),
(370.536,233,cs),
(450.032,320,o),
(500.505,421,o),
(520.001,508,cs),
(527.229,542,o),
(547.056,560,o),
(593.056,560,cs),
(627.056,560,o),
(664.741,535,o),
(646.473,482,cs),
(588.756,314,o),
(539.111,231,o),
(407.181,62,cs),
(372.827,18,o),
(347.874,-10,o),
(297.874,-10,cs),
(247.874,-10,o),
(226.189,15,o),
(219.181,62,cs)
);
}
);
width = 600;
},
{
layerId = "A3C04AAB-708A-4E7C-A386-00C8304CC3CD";
shapes = (
{
closed = 1;
nodes = (
(182.001,508,ls),
(178.528,534,o),
(202.056,560,o),
(233.056,560,cs),
(257.056,560,o),
(272.505,548,o),
(275.615,525,cs),
(324.331,185,ls),
(327.079,165,o),
(339.504,167,o),
(354.331,185,cs),
(448.142,297,o),
(513.804,413,o),
(547.615,525,cs),
(554.717,549,o),
(571.056,560,o),
(600.056,560,cs),
(631.056,560,o),
(643.741,535,o),
(634.001,508,cs),
(566.457,322,o),
(511.197,222,o),
(371.079,38,cs),
(348.913,9,o),
(331.874,-10,o),
(297.874,-10,cs),
(264.874,-10,o),
(249.276,6,o),
(245.079,38,cs)
);
}
);
width = 600;
},
{
layerId = "D6017CDA-DCCB-46D4-A8A1-3FBBF500E309";
shapes = (
{
closed = 1;
nodes = (
(200.891,531,ls),
(199.292,547,o),
(219.056,560,o),
(229.056,560,cs),
(242.056,560,o),
(253.78,554,o),
(255.017,541,cs),
(311.26,100,ls),
(313.646,83,o),
(318.858,84,o),
(331.26,100,cs),
(442.3,246,o),
(524.977,395,o),
(575.017,541,cs),
(579.78,554,o),
(591.056,560,o),
(604.056,560,cs),
(624.056,560,o),
(631.292,547,o),
(624.891,531,cs),
(546.008,334,o),
(481.709,215,o),
(342.039,19,cs),
(329.213,1,o),
(317.874,-10,o),
(297.874,-10,cs),
(277.874,-10,o),
(269,0,o),
(266.039,19,cs)
);
}
);
width = 600;
}
);
unicode = 118;
},
{
color = (153, 254, 255, 255);
glyphname = w;
layers = (
{
layerId = "78C5E225-AB5C-450D-A6D0-D457B4E69ACE";
shapes = (
{
closed = 1;
nodes = (
(111.174,490,ls),
(114.166,537,o),
(142.056,560,o),
(189.056,560,cs),
(229.056,560,o),
(243.804,540,o),
(240.3,500,cs),
(214.835,225,ls),
(213.859,211,o),
(221.433,209,o),
(229.622,224,cs),
(313.725,375,ls),
(333.379,411,o),
(353.418,430,o),
(391.418,430,cs),
(429.418,430,o),
(441.379,411,o),
(445.725,375,cs),
(465.622,224,ls),
(467.433,209,o),
(473.646,210,o),
(480.835,225,cs),
(523.607,318,o),
(555.229,415,o),
(574.001,508,cs),
(581.442,543,o),
(606.056,560,o),
(641.056,560,cs),
(693.056,560,o),
(704.528,534,o),
(693.473,482,cs),
(663.56,346,o),
(611.008,207,o),
(541.095,71,cs),
(514.039,19,o),
(487.874,-10,o),
(433.874,-10,cs),
(379.874,-10,o),
(364.827,18,o),
(357.882,70,cs),
(345.355,171,ls),
(343.331,185,o),
(335.544,186,o),
(327.355,171,cs),
(272.52,73,ls),
(243.252,20,o),
(215.874,-10,o),
(159.874,-10,cs),
(103.874,-10,o),
(80.614,17,o),
(84.52,73,cs)
);
}
);
width = 600;
},
{
layerId = "A3C04AAB-708A-4E7C-A386-00C8304CC3CD";
shapes = (
{
closed = 1;
nodes = (
(124.363,505,ls),
(126.229,542,o),
(148.056,560,o),
(185.056,560,cs),
(210.056,560,o),
(219.505,548,o),
(218.19,523,cs),
(197.827,145,ls),
(197.276,133,o),
(203.063,132,o),
(208.614,144,cs),
(325.426,383,ls),
(341.229,415,o),
(359.418,430,o),
(391.418,430,cs),
(423.418,430,o),
(435.229,415,o),
(437.426,383,cs),
(452.827,145,ls),
(453.488,134,o),
(457.488,134,o),
(464.04,146,cs),
(531.402,270,o),
(578.827,399,o),
(604.19,523,cs),
(609.505,548,o),
(628.056,560,o),
(653.056,560,cs),
(690.056,560,o),
(698.229,542,o),
(690.363,505,cs),
(657.473,355,o),
(597.52,200,o),
(514.63,50,cs),
(493.551,12,o),
(474.874,-10,o),
(433.874,-10,cs),
(392.874,-10,o),
(378.339,11,o),
(375.63,50,cs),
(362.489,261,ls),
(361.827,272,o),
(353.827,272,o),
(348.489,261,cs),
(245.843,51,ls),
(226.339,11,o),
(202.874,-10,o),
(161.874,-10,cs),
(120.874,-10,o),
(104.126,10,o),
(105.843,51,cs)
);
}
);
width = 600;
},
{
layerId = "D6017CDA-DCCB-46D4-A8A1-3FBBF500E309";
shapes = (
{
closed = 1;
nodes = (
(151.678,530,ls),
(152.93,550,o),
(164.056,560,o),
(185.056,560,cs),
(199.056,560,o),
(203.78,554,o),
(202.804,540,cs),
(180.693,55,ls),
(180.63,50,o),
(183.417,49,o),
(186.693,55,cs),
(346.827,399,ls),
(357.505,421,o),
(370.418,430,o),
(391.418,430,cs),
(412.418,430,o),
(421.505,421,o),
(422.827,399,cs),
(438.693,55,ls),
(438.63,50,o),
(441.63,50,o),
(444.693,55,cs),
(534.709,215,o),
(596.788,380,o),
(626.804,540,cs),
(629.78,554,o),
(639.056,560,o),
(653.056,560,cs),
(674.056,560,o),
(677.93,550,o),
(673.678,530,cs),
(640.386,364,o),
(574.032,193,o),
(480.74,27,cs),
(466.425,2,o),
(455.874,-10,o),
(430.874,-10,cs),
(405.874,-10,o),
(395.425,2,o),
(393.74,27,cs),
(377.347,345,ls),
(377.41,350,o),
(371.41,350,o),
(369.347,345,cs),
(217.74,27,ls),
(205.425,2,o),
(190.874,-10,o),
(165.874,-10,cs),
(140.874,-10,o),
(129.425,2,o),
(130.74,27,cs)
);
}
);
width = 600;
}
);
unicode = 119;
},
{
color = (153, 254, 255, 255);
glyphname = x;
layers = (
{
layerId = "AF231975-8591-4A9E-9633-127BEEE6582E";
name = "#instance";
shapes = (
{
closed = 1;
nodes = (
(179,20,ls),
(162,1,o),
(143,-10,o),
(119,-10,cs),
(92,-10,o),
(65,11,o),
(99,49,cs),
(526,530,ls),
(543,550,o),
(563,560,o),
(587,560,cs),
(615,560,o),
(642,540,o),
(606,500,cs)
);
},
{
closed = 1;
nodes = (
(215,412,o),
(200,405,o),
(175,413,cs),
(153,420,o),
(144,435,o),
(151,455,cs),
(198,585,o),
(381,603,o),
(397,457,cs),
(433,115,ls),
(437,73,o),
(483,67,o),
(517,104,cs),
(538,127,o),
(553,130,o),
(574,117,cs),
(593,105,o),
(600,90,o),
(591,72,cs),
(541,-31,o),
(366,-50,o),
(351,93,cs),
(315,435,ls),
(310,482,o),
(260,490,o),
(232,441,cs)
);
}
);
width = 600;
},
{
layerId = "78C5E225-AB5C-450D-A6D0-D457B4E69ACE";
shapes = (
{
closed = 1;
nodes = (
(227.654,36,ls),
(201.276,6,o),
(170.874,-10,o),
(134.874,-10,cs),
(89.874,-10,o),
(48.677,22,o),
(103.858,84,cs),
(474.851,512,ls),
(500.654,544,o),
(532.056,560,o),
(569.056,560,cs),
(614.056,560,o),
(654.253,528,o),
(600.072,466,cs)
);
},
{
closed = 1;
nodes = (
(229.268,434,o),
(196.725,375,o),
(152.615,398,cs),
(115.654,417,o),
(107.457,449,o),
(132.261,481,cs),
(213.796,587,o),
(403.072,593,o),
(418.158,457,cs),
(452.89,150,ls),
(455.213,128,o),
(464.512,120,o),
(475.512,120,cs),
(529.937,122,o),
(557.205,175,o),
(601.315,152,cs),
(638.276,133,o),
(645.473,101,o),
(620.669,69,cs),
(537.709,-39,o),
(351.071,-42,o),
(335.772,93,cs),
(301.04,400,ls),
(298.654,417,o),
(291.568,426,o),
(281.78,427,cs)
);
}
);
width = 600;
},
{
layerId = "A3C04AAB-708A-4E7C-A386-00C8304CC3CD";
shapes = (
{
closed = 1;
nodes = (
(179,20,ls),
(162,1,o),
(143,-10,o),
(119,-10,cs),
(92,-10,o),
(65,11,o),
(99,49,cs),
(526,530,ls),
(543,550,o),
(563,560,o),
(587,560,cs),
(615,560,o),
(642,540,o),
(606,500,cs)
);
},
{
closed = 1;
nodes = (
(215,412,o),
(200,405,o),
(175,413,cs),
(153,420,o),
(144,435,o),
(151,455,cs),
(198,585,o),
(381,603,o),
(397,457,cs),
(433,115,ls),
(437,73,o),
(483,67,o),
(517,104,cs),
(538,127,o),
(553,130,o),
(574,117,cs),
(593,105,o),
(600,90,o),
(591,72,cs),
(541,-31,o),
(366,-50,o),
(351,93,cs),
(315,435,ls),
(310,482,o),
(260,490,o),
(232,441,cs)
);
}
);
width = 600;
},
{
layerId = "D6017CDA-DCCB-46D4-A8A1-3FBBF500E309";
shapes = (
{
closed = 1;
nodes = (
(150,5,ls),
(141,-5,o),
(125,-10,o),
(112,-10,cs),
(96,-10,o),
(76,0,o),
(96,22,cs),
(553,543,ls),
(563,554,o),
(580,560,o),
(593,560,cs),
(610,560,o),
(629,550,o),
(609,528,cs)
);
},
{
closed = 1;
nodes = (
(218,445,o),
(211,442,o),
(198,447,cs),
(188,451,o),
(184,458,o),
(186,468,cs),
(213,579,o),
(371,599,o),
(382,477,cs),
(418,75,ls),
(424,11,o),
(507,25,o),
(532,79,cs),
(538,92,o),
(545,96,o),
(557,89,cs),
(567,84,o),
(570,75,o),
(566,66,cs),
(527,-25,o),
(377,-48,o),
(366,73,cs),
(330,475,ls),
(326,525,o),
(245,520,o),
(223,459,cs)
);
}
);
width = 600;
}
);
unicode = 120;
},
{
color = (153, 254, 255, 255);
glyphname = y;
layers = (
{
layerId = "78C5E225-AB5C-450D-A6D0-D457B4E69ACE";
shapes = (
{
closed = 1;
nodes = (
(549.394,63,ls),
(510.701,-119,o),
(421.598,-270,o),
(218.598,-270,cs),
(139.598,-270,o),
(74.763,-241,o),
(34.519,-181,cs),
(25.496,-167,o),
(21.535,-148,o),
(25.362,-130,cs),
(33.228,-93,o),
(75.732,-53,o),
(117.732,-53,cs),
(130.732,-53,o),
(143.882,-57,o),
(152.756,-67,cs),
(179.165,-98,o),
(214.299,-135,o),
(264.299,-135,cs),
(349.299,-135,o),
(389.937,-5,o),
(404.394,63,cs),
(405.244,67,l),
(395.843,51,o),
(357.874,-10,o),
(252.874,-10,cs),
(123.874,-10,o),
(83.221,81,o),
(107.457,195,cs),
(169.111,485,ls),
(179.741,535,o),
(210.056,560,o),
(260.056,560,cs),
(310.056,560,o),
(329.741,535,o),
(319.111,485,cs),
(262.772,220,ls),
(252.992,174,o),
(258.575,125,o),
(313.575,125,cs),
(372.575,125,o),
(424.693,182,o),
(437.024,240,cs),
(489.111,485,ls),
(499.741,535,o),
(530.056,560,o),
(580.056,560,cs),
(630.056,560,o),
(649.741,535,o),
(639.111,485,cs)
);
}
);
width = 600;
},
{
layerId = "A3C04AAB-708A-4E7C-A386-00C8304CC3CD";
shapes = (
{
closed = 1;
nodes = (
(502.984,-33,ls),
(477.685,-152,o),
(361.976,-240,o),
(250.976,-240,cs),
(147.976,-240,o),
(101.905,-198,o),
(74.685,-152,cs),
(67.236,-140,o),
(63.937,-132,o),
(66.488,-120,cs),
(71.165,-98,o),
(95.394,-64,o),
(125.394,-64,cs),
(140.394,-64,o),
(147.905,-71,o),
(153.992,-80,cs),
(173.464,-106,o),
(217.11,-150,o),
(267.11,-150,cs),
(321.11,-150,o),
(396.401,-111,o),
(410.008,-47,cs),
(435.307,72,l),
(396.189,15,o),
(332.874,-10,o),
(269.874,-10,cs),
(155.874,-10,o),
(106.032,66,o),
(130.268,180,cs),
(201.489,515,ls),
(207.867,545,o),
(226.056,560,o),
(256.056,560,cs),
(286.056,560,o),
(297.867,545,o),
(291.489,515,cs),
(225.796,206,ls),
(211.126,137,o),
(233.008,80,o),
(309.008,80,cs),
(390.008,80,o),
(451.04,146,o),
(466.772,220,cs),
(529.489,515,ls),
(535.867,545,o),
(554.056,560,o),
(584.056,560,cs),
(614.056,560,o),
(625.867,545,o),
(619.489,515,cs)
);
}
);
width = 600;
},
{
layerId = "D6017CDA-DCCB-46D4-A8A1-3FBBF500E309";
shapes = (
{
closed = 1;
nodes = (
(478.394,-64,ls),
(456.496,-167,o),
(346.228,-220,o),
(260.228,-220,cs),
(164.228,-220,o),
(121.819,-189,o),
(94.472,-153,cs),
(87.386,-144,o),
(84.874,-137,o),
(87.638,-124,cs),
(91.252,-107,o),
(102.803,-95,o),
(117.803,-95,cs),
(129.803,-95,o),
(134.527,-101,o),
(140.039,-108,cs),
(151.85,-123,o),
(201.858,-170,o),
(263.858,-170,cs),
(321.858,-170,o),
(413.086,-136,o),
(427.543,-68,cs),
(456.244,67,l),
(416.614,17,o),
(352.874,-10,o),
(277.874,-10,cs),
(169.874,-10,o),
(125.732,74,o),
(148.906,183,cs),
(223.741,535,ls),
(227.355,552,o),
(237.056,560,o),
(254.056,560,cs),
(271.056,560,o),
(277.355,552,o),
(273.741,535,cs),
(201.457,195,ls),
(183.811,112,o),
(209.504,40,o),
(300.504,40,cs),
(394.504,40,o),
(467.087,118,o),
(485.583,205,cs),
(555.741,535,ls),
(559.355,552,o),
(569.056,560,o),
(586.056,560,cs),
(603.056,560,o),
(609.355,552,o),
(605.741,535,cs)
);
}
);
width = 600;
}
);
unicode = 121;
},
